<svg width="40" height="41" viewBox="0 0 40 41" fill="none" xmlns="http://www.w3.org/2000/svg">
<path d="M13.379 32.5992C13.379 32.7633 13.1935 32.8945 12.9597 32.8945C12.6935 32.9191 12.5081 32.7879 12.5081 32.5992C12.5081 32.4352 12.6935 32.3039 12.9274 32.3039C13.1694 32.2793 13.379 32.4105 13.379 32.5992ZM10.871 32.2301C10.8145 32.3941 10.9758 32.5828 11.2177 32.632C11.4274 32.7141 11.6694 32.632 11.7177 32.468C11.7661 32.3039 11.6129 32.1152 11.371 32.0414C11.1613 31.984 10.9274 32.066 10.871 32.2301ZM14.4355 32.0906C14.2016 32.148 14.0403 32.3039 14.0645 32.4926C14.0887 32.6566 14.2984 32.7633 14.5403 32.7059C14.7742 32.6484 14.9355 32.4926 14.9113 32.3285C14.8871 32.1727 14.6694 32.066 14.4355 32.0906ZM19.7419 0.65625C8.55645 0.65625 0 9.29414 0 20.6719C0 29.7691 5.62903 37.5539 13.6694 40.2938C14.7016 40.4824 15.0645 39.8344 15.0645 39.3012C15.0645 38.7926 15.0403 35.9871 15.0403 34.2645C15.0403 34.2645 9.39516 35.4949 8.20968 31.8199C8.20968 31.8199 7.29032 29.4328 5.96774 28.8176C5.96774 28.8176 4.12097 27.5297 6.09677 27.5543C6.09677 27.5543 8.10484 27.7184 9.20968 29.6707C10.9758 32.8371 13.9355 31.9266 15.0887 31.3852C15.2742 30.0727 15.7984 29.1621 16.379 28.6207C11.871 28.1121 7.32258 27.4477 7.32258 19.5562C7.32258 17.3004 7.93548 16.1684 9.22581 14.7246C9.01613 14.1914 8.33064 11.993 9.43548 9.15469C11.121 8.62148 15 11.3695 15 11.3695C16.6129 10.9102 18.3468 10.6723 20.0645 10.6723C21.7823 10.6723 23.5161 10.9102 25.129 11.3695C25.129 11.3695 29.0081 8.61328 30.6935 9.15469C31.7984 12.0012 31.1129 14.1914 30.9032 14.7246C32.1936 16.1766 32.9839 17.3086 32.9839 19.5562C32.9839 27.4723 28.2339 28.1039 23.7258 28.6207C24.4677 29.2687 25.0968 30.4992 25.0968 32.427C25.0968 35.1914 25.0726 38.6121 25.0726 39.2848C25.0726 39.818 25.4435 40.466 26.4677 40.2773C34.5323 37.5539 40 29.7691 40 20.6719C40 9.29414 30.9274 0.65625 19.7419 0.65625ZM7.83871 28.9488C7.73387 29.0309 7.75806 29.2195 7.89516 29.3754C8.02419 29.5066 8.20968 29.5641 8.31452 29.4574C8.41935 29.3754 8.39516 29.1867 8.25806 29.0309C8.12903 28.8996 7.94355 28.8422 7.83871 28.9488ZM6.96774 28.2844C6.91129 28.391 6.99194 28.5223 7.15323 28.6043C7.28226 28.6863 7.44355 28.6617 7.5 28.5469C7.55645 28.4402 7.47581 28.309 7.31452 28.227C7.15323 28.1777 7.02419 28.2023 6.96774 28.2844ZM9.58065 31.2047C9.45161 31.3113 9.5 31.5574 9.68548 31.7133C9.87097 31.902 10.1048 31.9266 10.2097 31.7953C10.3145 31.6887 10.2661 31.4426 10.1048 31.2867C9.92742 31.098 9.68548 31.0734 9.58065 31.2047ZM8.66129 29.9988C8.53226 30.0809 8.53226 30.2941 8.66129 30.4828C8.79032 30.6715 9.00806 30.7535 9.1129 30.6715C9.24193 30.5648 9.24193 30.3516 9.1129 30.1629C9 29.9742 8.79032 29.8922 8.66129 29.9988Z" fill="#EEEEEE"/>
</svg>
