<svg width="36" height="37" viewBox="0 0 36 37" fill="none" xmlns="http://www.w3.org/2000/svg">
<path d="M8.05982 36.75H0.594643V12.2145H8.05982V36.75ZM4.32321 8.86758C1.93661 8.86758 0 6.84961 0 4.41328C0 3.24281 0.45548 2.12027 1.26624 1.29262C2.077 0.464969 3.17663 0 4.32321 0C5.4698 0 6.56943 0.464969 7.38019 1.29262C8.19095 2.12027 8.64643 3.24281 8.64643 4.41328C8.64643 6.84961 6.70982 8.86758 4.32321 8.86758ZM35.992 36.75H28.5429V24.8062C28.5429 21.9598 28.4866 18.3094 24.6616 18.3094C20.7804 18.3094 20.1857 21.402 20.1857 24.6012V36.75H12.7286V12.2145H19.8884V15.5613H19.9929C20.9893 13.6336 23.4241 11.5992 27.0563 11.5992C34.6098 11.5992 36 16.677 36 23.2723V36.75H35.992Z" fill="#EEEEEE"/>
</svg>
