<svg width="52" height="30" viewBox="0 0 52 30" fill="none" xmlns="http://www.w3.org/2000/svg">
<path d="M14.6656 0.0949707C6.565 0.0949707 0 6.76411 0 15C0 23.236 6.565 29.9051 14.6656 29.9051C22.7662 29.9051 29.3312 23.236 29.3312 15C29.3312 6.76411 22.7662 0.0949707 14.6656 0.0949707ZM38.09 0.964502C34.0437 0.964502 30.7612 7.2481 30.7612 15C30.7612 22.752 34.0437 29.0356 38.0981 29.0356C42.1525 29.0356 45.435 22.752 45.435 15H45.4187C45.4187 7.2481 42.1362 0.964502 38.09 0.964502ZM49.4244 2.42466C48.0025 2.42466 46.8487 8.052 46.8487 15C46.8487 21.9481 48.0025 27.5754 49.4244 27.5754C50.8462 27.5754 52 21.9399 52 15C52 8.06021 50.8462 2.42466 49.4244 2.42466Z" fill="#EEEEEE"/>
</svg>
