<svg width="42" height="36" viewBox="0 0 42 36" fill="none" xmlns="http://www.w3.org/2000/svg">
<path d="M37.6852 9.44414C37.7098 9.81328 37.7098 10.1906 37.7098 10.5598C37.7098 21.9375 29.0473 35.0543 13.2152 35.0543C8.33438 35.0543 3.80625 33.6434 0 31.1906C0.689062 31.2727 1.36172 31.2973 2.07539 31.2973C6.10312 31.2973 9.80274 29.9355 12.7641 27.6223C8.98242 27.5402 5.80781 25.0629 4.7168 21.6504C5.25 21.7324 5.7832 21.7816 6.34102 21.7816C7.11211 21.7816 7.8832 21.675 8.60508 21.4863C4.65938 20.6906 1.70625 17.2207 1.70625 13.0371V12.9305C2.85469 13.5703 4.18359 13.9723 5.59453 14.0215C3.27305 12.4793 1.75547 9.83789 1.75547 6.85195C1.75547 5.25234 2.18203 3.78398 2.92852 2.5043C7.16953 7.72969 13.5352 11.1422 20.6801 11.5113C20.5488 10.8715 20.4668 10.207 20.4668 9.54258C20.4668 4.80117 24.3059 0.9375 29.0719 0.9375C31.5492 0.9375 33.7887 1.9793 35.3637 3.65273C37.3078 3.28359 39.1781 2.56172 40.827 1.57734C40.1871 3.57891 38.8254 5.25234 37.0453 6.31875C38.7762 6.13008 40.4578 5.6543 42 4.98984C40.827 6.69609 39.3586 8.21367 37.6852 9.44414Z" fill="#EEEEEE"/>
</svg>
