<svg width="73" height="57" viewBox="0 0 73 57" fill="none" xmlns="http://www.w3.org/2000/svg">
<path d="M71.5474 8.92109C70.7162 5.40313 68.2752 2.64219 65.1745 1.70703C59.5537 0 37.0176 0 37.0176 0C37.0176 0 14.4815 0 8.86065 1.70703C5.75995 2.64219 3.31898 5.40313 2.48773 8.92109C0.983566 15.2891 0.983566 28.5594 0.983566 28.5594C0.983566 28.5594 0.983566 41.8297 2.48773 48.1977C3.31898 51.7156 5.75995 54.3578 8.86065 55.293C14.4815 57 37.0176 57 37.0176 57C37.0176 57 59.5537 57 65.1745 55.293C68.2752 54.3578 70.7162 51.7008 71.5474 48.1977C73.0516 41.8297 73.0516 28.5594 73.0516 28.5594C73.0516 28.5594 73.0516 15.2891 71.5474 8.92109ZM29.6551 40.6125V16.5063L48.4836 28.5594L29.6551 40.6125Z" fill="white"/>
</svg>
