<?xml version="1.0" encoding="UTF-8"?><svg id="Layer_2" xmlns="http://www.w3.org/2000/svg" viewBox="0 0 56.36 57.6"><defs><style>.cls-1{fill:none;stroke:#41a1ce;stroke-linecap:round;stroke-linejoin:round;stroke-width:1.2px;}</style></defs><g id="Layer_1-2"><path class="cls-1" d="M37.37,12.48c-8.88-5.63-21.95-4.38-29.55,3.21C1.04,22.45-1.63,33.77,2.7,42.76c4.36,9.06,11.5,13.81,21.64,14.22,9.37.38,19.64-5.86,22.96-15.95,2.51-7.63,1.76-14.92-2.85-21.65"/><path class="cls-1" d="M31.04,19.38c-5.01-2.08-9.89-1.94-14.55.97-5.01,3.12-8,9.75-6.5,15.9,1.35,5.54,5.33,10.58,12.45,11.61,8.5,1.23,16.24-4.69,17.05-13.33.27-2.84-.21-5.47-1.32-8.07"/><path class="cls-1" d="M23.02,27.3c-4.72,1.76-5.36,6.79-2.87,9.5,1.38,1.5,3.1,2.5,5.34,1.95,2.69-.66,4.49-2.15,4.98-4.99"/><path class="cls-1" d="M41.77,14.78c-5.76,6-11.44,12.07-17.05,18.21"/><path class="cls-1" d="M48.47.6c.68.55,1.12,1.33,1.31,2.12.51,2.1,1.96,3.08,3.86,3.63.79.23,1.49.6,2.11,1.14.05.4-.14.72-.39.97-2.1,2.12-4.24,4.19-6.13,6.52-1.04,1.28-2.3,1.77-3.82.77-.84-.55-1.9-.66-2.68-1.34"/><path class="cls-1" d="M48.25.77c-2.87,3-5.78,5.01-8.5,8.25.8,1.52,1.07,3.25,2.4,4.42"/></g></svg>