<?xml version="1.0" encoding="UTF-8"?><svg id="Layer_2" xmlns="http://www.w3.org/2000/svg" viewBox="0 0 48.59 48.46"><defs><style>.cls-1{fill:none;stroke:#41a1ce;stroke-linecap:round;stroke-linejoin:round;stroke-width:1.2px;}</style></defs><g id="Layer_1-2"><path class="cls-1" d="M10.71,43.72c8.42,6,21.33,5.48,29.2-1.57,7.02-6.28,10.25-17.26,6.47-26.33C42.59,6.68,35.83,1.63,25.89.69,16.7-.18,6.28,5.39,2.47,15.13-.4,22.5-.06,29.7,4.12,36.56"/><path class="cls-1" d="M23.19,9.69c-5.28.74-9.35,3.3-11.85,8.09-2.69,5.15-1.91,12.26,2.43,16.73,3.91,4.02,9.81,6.3,16.35,3.62,7.82-3.21,11.43-12.09,7.8-19.82-1.19-2.54-2.91-4.54-5.15-6.18"/><polyline class="cls-1" points="32.28 16.01 31.26 11.26 35.68 9.88"/><polyline class="cls-1" points="10.17 47.82 10.07 42.97 14.68 42.44"/></g></svg>