<svg width="91" height="77" viewBox="0 0 91 77" fill="none" xmlns="http://www.w3.org/2000/svg">
<g clip-path="url(#clip0_250_188)">
<path d="M44.9176 76.8617C45.2927 77.0397 45.7271 77.0298 46.0824 76.8617C47.2375 76.308 57.7116 71.2261 68.4228 62.5552C83.1913 50.6018 91 37.6103 91 24.9846C91 11.2021 79.8249 -0.00978088 66.093 -0.00978088C58.067 -0.00978088 50.4952 3.87581 45.8159 10.3815L45.4901 10.8264L45.1644 10.3815C40.5146 3.8857 32.933 0.000106123 24.907 0.000106123C11.1751 0.000106123 0 11.212 0 24.9945C0 31.7572 2.20145 38.6089 6.555 45.3518L6.94988 45.9648H1.37221C0.612063 45.9648 0 46.5778 0 47.3391C0 48.1004 0.612063 48.7134 1.37221 48.7134H17.2562C20.0895 48.7134 20.7805 45.9648 21.2346 44.1357C21.6591 42.445 21.9158 41.6442 22.518 41.6343H22.6069L22.6858 41.664C23.3374 41.9507 23.9494 43.4733 24.7886 46.0043C25.7659 48.9309 26.8617 52.243 29.616 52.243C32.3703 52.243 33.0119 47.7346 34.394 37.551C35.3516 30.4719 36.5066 22.76 37.9973 20.832L38.3626 20.3673L38.6587 20.8815C40.0704 23.3631 40.8898 33.2007 41.492 40.3786C42.726 55.1498 43.5355 62.8518 47.2671 62.8518C51.2949 62.8518 52.6177 56.3956 54.0097 49.5538C54.5625 46.8349 55.3226 43.1272 56.0532 41.9111L56.2506 41.5849L56.5862 41.7727C57.3365 42.2077 57.8696 43.5524 58.4323 45.1442C59.0542 46.8942 59.6861 48.7035 61.384 48.7035H68.4425C69.2026 48.7035 69.8147 48.0905 69.8147 47.3292C69.8147 46.5679 69.2026 45.9549 68.4425 45.9549H61.6901L61.5815 45.7275C61.3939 45.332 61.1668 44.6993 61.0089 44.2346C60.2586 42.099 59.1233 38.8857 56.0828 38.8857C53.3778 38.8857 52.5585 42.8998 51.3146 48.9803C50.2978 53.993 49.0638 59.2134 47.6916 59.9747L47.3856 60.1428L47.1782 59.856C45.7863 57.9182 44.9768 49.4154 44.2068 40.1315C42.9728 25.3603 42.1633 17.6583 38.4317 17.6583C34.7 17.6583 33.318 25.0241 31.6693 37.1555C31.0968 41.4069 30.3761 46.6964 29.5962 48.7925L29.3198 49.534L28.8953 48.8716C28.3326 48.0015 27.7304 46.1922 27.375 45.1145C26.3977 42.188 25.292 38.8659 22.5476 38.8659C19.8032 38.8659 19.0233 41.6244 18.5692 43.4436C18.1842 44.9959 17.9078 45.9351 17.2562 45.9351H10.2965L10.178 45.7671C5.24203 38.8165 2.73454 31.8165 2.73454 24.9648C2.74441 12.7247 12.6855 2.74869 24.907 2.74869C32.9626 2.74869 40.3962 7.10886 44.3055 14.1286C44.5227 14.5241 44.9867 14.7614 45.5 14.7614C46.0232 14.7614 46.4773 14.5142 46.6945 14.1286C50.6038 7.10886 58.0374 2.74869 66.093 2.74869C78.3145 2.74869 88.2655 12.7346 88.2655 25.0043C88.2655 36.1866 81.819 47.4182 69.1039 58.3928C59.2319 66.9055 48.6887 72.5015 45.6876 74.0142L45.5099 74.1032L45.3322 74.0142C41.3439 72.0072 27.5034 64.6018 16.6047 53.4592C16.348 53.1922 16.0025 53.0538 15.6372 53.0439C15.6372 53.0439 15.6372 53.0439 15.6274 53.0439C15.272 53.0439 14.9264 53.1823 14.6698 53.4394C14.1268 53.9733 14.1169 54.8433 14.65 55.3772C27.5823 68.6159 44.2265 76.5453 44.9274 76.8716L44.9176 76.8617Z" fill="#42A2CE"/>
</g>
<defs>
<clipPath id="clip0_250_188">
<rect width="91" height="77" fill="white"/>
</clipPath>
</defs>
</svg>
