<svg width="112" height="128" viewBox="0 0 112 128" fill="none" xmlns="http://www.w3.org/2000/svg">
<g clip-path="url(#clip0_250_132)">
<path d="M1.78685 46.9693L6.68283 48.8236" stroke="#42A2CE" stroke-width="2" stroke-miterlimit="10" stroke-linecap="round"/>
<path d="M11.686 45.025L7.36184 39.5162" stroke="#42A2CE" stroke-width="2" stroke-miterlimit="10" stroke-linecap="round"/>
<path d="M9.38098 64.7021L12.4365 60.0754" stroke="#42A2CE" stroke-width="2" stroke-miterlimit="10" stroke-linecap="round"/>
<path d="M18.6905 60.2014L18.351 67.1685" stroke="#42A2CE" stroke-width="2" stroke-miterlimit="10" stroke-linecap="round"/>
<path d="M86.3944 93.5066C90.9509 96.9631 92.8985 101.194 92.8628 105.172V108.539C92.8628 113.058 89.8966 117.558 84.0179 121.015C72.171 127.946 52.9087 127.946 40.9904 121.015C34.9866 117.522 31.9847 112.95 32.0026 108.377V104.362C32.0026 99.8256 34.9509 95.2889 40.8653 91.8323C41.7945 91.2923 42.7951 90.8062 43.7958 90.3381" stroke="#42A2CE" stroke-width="2" stroke-linejoin="round"/>
<path d="M97.9911 52.0461L64.5769 93.8667C61.9681 97.0172 60.0562 102.472 63.3976 105.244C67.6146 108.737 72.2425 104.452 74.4225 101.734L107.837 59.8954C110.124 56.9789 111.428 52.2982 108.534 49.6698C104.209 45.7452 99.5099 49.9758 97.9732 52.0281L97.9911 52.0461Z" stroke="#42A2CE" stroke-width="2" stroke-linejoin="round"/>
<path d="M42.6165 50.912C39.7932 50.912 37.4703 49.2017 36.7198 46.5373C35.6477 42.7207 37.9885 38.346 41.9732 36.7798L72.582 24.7179C73.4933 24.3578 74.4403 24.1778 75.3516 24.1778C78.1749 24.1778 80.4799 25.888 81.2483 28.5525C82.3204 32.3691 79.9796 36.7437 75.9949 38.31L45.3861 50.3899C44.4748 50.7499 43.5278 50.93 42.6165 50.93V50.912Z" stroke="#42A2CE" stroke-width="2" stroke-linejoin="round"/>
<path d="M50.7645 23.5117C58.984 6.26498 70.7058 0.0360099 79.6937 2.21435C87.7703 4.17666 93.5775 11.4678 94.9713 21.2073C95.6146 25.726 97.1334 37.3558 98.3484 41.4065" stroke="#42A2CE" stroke-width="2" stroke-linejoin="round"/>
<path d="M93.2738 57.9511L71.1347 40.2183" stroke="#42A2CE" stroke-width="2" stroke-linejoin="round"/>
<path d="M108.551 49.7058L80.5871 26.9682" stroke="#42A2CE" stroke-width="2" stroke-linejoin="round"/>
<path d="M79.1934 46.6633L52.2119 80.3646C49.3172 83.9831 47.7269 88.1598 48.0664 91.2743C48.1915 92.5165 48.6203 93.4346 49.3529 94.0107L63.3976 105.244" stroke="#42A2CE" stroke-width="2" stroke-linejoin="round"/>
<path d="M74.619 31.3069L74.1902 31.4509" stroke="#42A2CE" stroke-width="2" stroke-linecap="round" stroke-linejoin="round"/>
<path d="M31.7167 38.328C30.7696 33.1972 34.6292 30.5688 36.7556 29.7226L66.6496 17.9128C70.8666 16.7066 73.7256 19.245 75.1729 20.7932L79.9081 26.0861" stroke="#42A2CE" stroke-width="2" stroke-linejoin="round"/>
<path d="M34.2004 37.9679L21.7639 43.3148C20.4237 43.7468 19.5839 45.2951 19.9056 47.4914C20.2808 50.1198 22.1391 52.5142 24.0332 52.8383C24.4978 52.9103 24.9087 52.8383 25.284 52.6942L37.1666 47.6355" stroke="#42A2CE" stroke-width="2" stroke-linecap="round" stroke-linejoin="round"/>
<path d="M22.4607 49.0037L13.5801 52.8203" stroke="#42A2CE" stroke-width="2" stroke-linecap="round" stroke-linejoin="round"/>
</g>
<defs>
<clipPath id="clip0_250_132">
<rect width="112" height="128" fill="white"/>
</clipPath>
</defs>
</svg>
