<svg width="152" height="105" viewBox="0 0 152 105" fill="none" xmlns="http://www.w3.org/2000/svg">
<path d="M37.4778 23.2164H9.71415C8.08468 23.2164 6.74768 24.5165 6.74768 26.1468V77.6356" stroke="#42A2CE" stroke-width="2" stroke-linejoin="round"/>
<path d="M110.866 77.6356V9.84375C110.866 9.01828 110.323 8.27536 109.529 8.02771C96.4728 3.94163 85.2336 2.04305 74.1616 2.04305C63.0896 2.04305 51.8713 3.94163 38.8147 8.02771C38.0209 8.27536 37.4777 8.99764 37.4777 9.84375V77.6356" stroke="#42A2CE" stroke-width="2" stroke-linejoin="round"/>
<path d="M141.597 77.6356V26.1468C141.597 24.5165 140.26 23.2164 138.63 23.2164H110.866" stroke="#42A2CE" stroke-width="2" stroke-linejoin="round"/>
<path d="M60.3112 18.8414C60.3112 13.8886 66.5157 9.86438 74.1825 9.86438C81.8494 9.86438 88.033 13.8886 88.033 18.8414C88.033 23.7942 81.8285 27.8184 74.1825 27.8184C66.5366 27.8184 60.3112 23.7942 60.3112 18.8414Z" stroke="#42A2CE" stroke-width="2" stroke-linejoin="round"/>
<path d="M31.8791 90.6916H18.906V67.7847H31.8791" stroke="#42A2CE" stroke-width="2" stroke-linejoin="round"/>
<path d="M116.465 43.6468H129.417V66.5537H116.465" stroke="#42A2CE" stroke-width="2" stroke-linejoin="round"/>
<path d="M2.17261 77.6356H146.151" stroke="#42A2CE" stroke-width="2" stroke-linejoin="round"/>
<path d="M74.1616 51.7777V77.6356" stroke="#42A2CE" stroke-width="2" stroke-linejoin="round"/>
<path d="M56.4673 77.6356V51.7777H91.8768V77.6356" stroke="#42A2CE" stroke-width="2" stroke-linejoin="round"/>
<path d="M55.9868 87.1492L51.37 102.936" stroke="#42A2CE" stroke-width="2" stroke-linecap="round" stroke-linejoin="round"/>
<path d="M76 87.1492V102.936" stroke="#42A2CE" stroke-width="2" stroke-linecap="round" stroke-linejoin="round"/>
<path d="M96.0132 87.1492L100.651 102.936" stroke="#42A2CE" stroke-width="2" stroke-linecap="round" stroke-linejoin="round"/>
<path d="M116.026 87.1492L125.281 102.936" stroke="#42A2CE" stroke-width="2" stroke-linecap="round" stroke-linejoin="round"/>
<path d="M136.019 87.1492L149.911 102.936" stroke="#42A2CE" stroke-width="2" stroke-linecap="round" stroke-linejoin="round"/>
<path d="M35.9945 87.1492L26.7191 102.936" stroke="#42A2CE" stroke-width="2" stroke-linecap="round" stroke-linejoin="round"/>
<path d="M15.9813 87.1492L2.08905 102.936" stroke="#42A2CE" stroke-width="2" stroke-linecap="round" stroke-linejoin="round"/>
</svg>
