<?xml version="1.0" encoding="UTF-8"?><svg id="Layer_2" xmlns="http://www.w3.org/2000/svg" viewBox="0 0 43.39 52.59"><defs><style>.cls-1{stroke-width:1.2px;}.cls-1,.cls-2{fill:none;stroke:#41a1ce;stroke-linecap:round;stroke-linejoin:round;}.cls-2{stroke-width:1.13px;}</style></defs><g id="Layer_1-2"><path class="cls-1" d="M29.58,24.43c-.61-1.7.33-3.24.53-4.86.78-6.28-.97-11.89-4.74-16.81-2.36-3.08-5.15-2.79-7.6.31-2.91,3.68-4.29,7.93-4.84,12.51-.23,1.93.32,3.82.55,5.72.4,3.27,1.5,6.39,2.41,9.55.79,2.72.98,2.78,3.8,2.78,1.73,0,3.47-.03,5.2.01.92.02,1.35-.25,1.8-1.19.97-2.02,1.38-4.18,1.99-6.29.17-.57.39-1.08.72-1.56"/><path class="cls-1" d="M21.43,8.81c-2.35.4-3.57,1.76-3.67,3.82-.08,1.74,1.42,3.64,3.32,3.99,2.13.38,4.27-1.37,4.51-3.64.22-2.09-1.51-3.97-3.82-4.17"/><path class="cls-1" d="M13.62,24.43c-2.47.78-3.8,2.59-3.82,5.21,0,.87-.04,1.74,0,2.6.07,1.33.58,1.61,1.73,1.05,1.42-.69,2.71-1.62,4.16-2.26"/><path class="cls-1" d="M29.76,24.43c2.83,1.11,3.68,2.27,3.63,5.21-.02,1.34.29,2.74-.34,4.1-2.06-.65-3.6-1.9-5.37-2.71"/><path class="cls-2" d="M9.72,44.09c-5.03-.94-9.61,3.55-9.12,7.93"/><path class="cls-2" d="M42.82,51.62c-.44-5.36-4.28-8.08-9.12-7.54"/><path class="cls-2" d="M26.96,36.19c-3.44.31-6.87.35-10.31-.01-.32-.03-.51.23-.79.21"/><path class="cls-2" d="M21.81,38.97c-.46,2.9-.07,5.82-.2,8.73"/><path class="cls-1" d="M21.6,18.88v6.6"/><path class="cls-2" d="M16.26,41.06c-5.1.05-7.4,3.66-5.55,8.73"/><path class="cls-2" d="M32.51,50.58c.07-.33-.04-.64.18-1,2.39-4.02-.58-8.41-4.94-8.52"/><path class="cls-2" d="M17.85,38.97v4.76"/><path class="cls-2" d="M25.58,39.17c.11,1.52-.24,3.06.2,4.56"/></g></svg>