<svg width="188" height="85" viewBox="0 0 188 85" fill="none" xmlns="http://www.w3.org/2000/svg">
<g clip-path="url(#clip0_250_163)">
<path d="M104.967 57.2937C107.11 59.6465 112.086 60.659 116.086 59.5422L130.228 55.6259C134.228 54.524 133.062 52.4542 130.895 50.1014" stroke="#42A2CE" stroke-width="2" stroke-linecap="round" stroke-linejoin="round"/>
<path d="M69.6823 36.2082C67.0396 33.1109 61.873 31.0709 56.016 31.0709C54.2304 31.0709 52.4923 31.2644 50.8257 31.6367C47.1591 30.0732 42.8021 29.2244 38.3498 29.2244C31.4928 29.2244 25.0882 31.2049 20.8979 34.5702C11.0886 34.5702 3.11261 39.5736 3.11261 45.7086C3.11261 51.8436 11.0886 56.847 20.9217 56.847H22.9931" stroke="#42A2CE" stroke-width="2" stroke-linecap="round" stroke-linejoin="round"/>
<path d="M143.895 16.3587C142.228 10.9682 134.657 6.88807 125.538 6.88807C123.038 6.88807 120.562 7.20077 118.276 7.8113C113.324 5.66701 106.848 5.05649 101.134 6.20308C96.9674 3.65674 91.3723 2.22722 85.4915 2.22722C78.8726 2.22722 72.9442 4.04391 68.8491 6.88807" stroke="#42A2CE" stroke-width="2" stroke-linecap="round" stroke-linejoin="round"/>
<path d="M40.1355 64.8583L42.7307 69.7872C42.9449 70.2041 43.6116 70.2488 43.9925 70.1594L52.278 68.1938C52.5876 68.1194 52.8256 67.9556 52.8733 67.7471L54.2542 63.7117" stroke="#42A2CE" stroke-width="2" stroke-linecap="round" stroke-linejoin="round"/>
<path d="M90.7771 58.3658L80.1583 82.5338C79.8964 83.1145 80.8011 83.4123 81.444 83.2634L100.11 78.5579C100.324 78.5132 100.491 78.409 100.61 78.2899L117.372 59.2146" stroke="#42A2CE" stroke-width="2" stroke-linecap="round" stroke-linejoin="round"/>
<path d="M94.0627 17.9371L58.9207 9.15148C58.9207 9.15148 58.6826 9.10681 58.5636 9.10681C58.4445 9.10681 58.3255 9.10681 58.2065 9.15148L39.6831 13.6783C39.3498 13.7677 39.1117 13.9463 39.0641 14.1697C39.0165 14.3931 39.1593 14.6164 39.4688 14.7356L86.92 35.6722C73.8013 39.6778 62.373 43.5494 50.0638 48.106L37.8498 41.0478C37.6594 40.9435 37.4213 40.884 37.1832 40.884C37.0641 40.884 36.9451 40.884 36.826 40.9286L28.5882 42.9687C28.0882 43.0878 27.8501 43.4452 28.0405 43.7579L34.7785 54.6729C32.1357 56.1918 31.2309 57.3384 31.7547 58.2765C32.3976 59.438 35.0642 59.7805 38.1117 59.6911C60.7778 58.9764 108.158 50.846 140.657 42.5666C181.846 32.0834 187.584 25.0698 184.799 21.1535C183.179 18.905 178.084 18.0116 171.37 18.0116C156.656 18.0116 134.252 22.2555 124.324 25.5017L114.276 22.9851" stroke="#42A2CE" stroke-width="2" stroke-linejoin="round"/>
<path d="M108.515 13.9166L94.3484 17.8329C90.3485 18.9348 88.8486 21.7492 90.9914 24.1019C93.1342 26.4547 98.1102 27.4673 102.134 26.3653L116.276 22.449C120.276 21.3471 119.086 19.2773 116.943 16.9245C114.8 14.5718 112.491 12.8146 108.515 13.9166Z" stroke="#42A2CE" stroke-width="2" stroke-linejoin="round"/>
</g>
<defs>
<clipPath id="clip0_250_163">
<rect width="187.067" height="84.059" fill="white" transform="translate(0.755554 0.723236)"/>
</clipPath>
</defs>
</svg>
