<?xml version="1.0" encoding="UTF-8" standalone="no"?><!DOCTYPE svg PUBLIC "-//W3C//DTD SVG 1.1//EN" "http://www.w3.org/Graphics/SVG/1.1/DTD/svg11.dtd"><svg width="100%" height="100%" viewBox="0 0 215 189" version="1.1" xmlns="http://www.w3.org/2000/svg" xmlns:xlink="http://www.w3.org/1999/xlink" xml:space="preserve" xmlns:serif="http://www.serif.com/" style="fill-rule:evenodd;clip-rule:evenodd;stroke-linejoin:round;stroke-miterlimit:2;"><path d="M70.991,1.876l0,48.879l0.101,0c-0.038,0.667 -0.101,1.326 -0.101,2.002c0,19.449 15.763,35.214 35.213,35.214c1.812,0 3.593,-0.137 5.332,-0.401c-2.813,2.818 -5.45,5.459 -7.8,7.816c-12.382,12.417 -26.267,8.732 -30.827,-8.207c-4.56,-16.939 -12.037,-44.716 -16.598,-61.655c-3.798,-14.111 2.621,-23.553 14.68,-23.648Zm41.442,66.124c-1.933,0.747 -4.033,1.157 -6.229,1.157c-9.544,0 -17.281,-7.737 -17.281,-17.279c0,-9.544 7.737,-17.28 17.281,-17.28c9.543,0 17.278,7.736 17.278,17.28c0,7.347 -4.585,13.623 -11.049,16.122Zm-24.403,-62.603c16.637,4.431 38.33,10.192 52.475,13.968c16.967,4.614 20.694,18.456 8.311,30.873c-2.349,2.356 -4.984,4.996 -7.796,7.813c0.26,-1.727 0.395,-3.495 0.395,-5.294c0,-19.445 -15.767,-35.211 -35.211,-35.211c-7.781,0 -12.347,0.83 -18.174,5.102l0,-17.251Z" style="fill:url(#_Linear1);fill-rule:nonzero;"/><g><path d="M17.457,163.616c5.279,0 8.527,-3.571 8.527,-9.99c0,-6.495 -3.329,-10.23 -8.363,-10.23c-1.95,0 -3.737,0.57 -5.117,1.625l0,17.378c1.38,0.81 3.086,1.217 4.953,1.217m-0.08,8.768c-4.548,0 -8.769,-0.893 -12.017,-2.76c-3.736,-2.112 -3.736,-4.792 -3.736,-7.55l0,-41.007c0,-2.924 1.786,-4.385 5.44,-4.385c3.656,0 5.44,1.461 5.44,4.385l0,15.59c2.031,-1.381 4.711,-2.029 7.797,-2.029c9.906,0 16.806,6.576 16.806,18.269c0,11.854 -7.063,19.487 -19.73,19.487" style="fill:#333;fill-rule:nonzero;"/><path d="M49.766,160.693c0,1.868 1.219,3.331 4.303,3.331c2.112,0 4.223,-0.732 6.091,-2.274l0,-6.578c-6.984,0.893 -10.394,2.355 -10.394,5.521m4.792,-17.295c-1.95,0 -4.305,0.487 -6.742,1.625c-1.38,0.649 -2.435,1.136 -3.409,1.136c-2.516,0 -4.141,-3.003 -4.141,-5.115c0,-1.544 0.893,-2.68 2.922,-3.817c3.411,-1.868 7.714,-2.761 12.342,-2.761c5.848,0 10.151,1.461 12.586,4.304c1.708,2.03 2.518,5.115 2.518,9.095l0,19.893c0,3.084 -1.461,4.466 -5.279,4.466c-3.247,0 -4.545,-0.975 -4.545,-3.33l0,-0.649c-2.356,2.678 -5.684,3.979 -10.07,3.979c-7.471,0 -12.016,-4.06 -12.016,-10.555c0,-7.307 5.844,-11.45 21.436,-12.83l0,-0.568c0,-3.086 -1.382,-4.873 -5.602,-4.873" style="fill:#333;fill-rule:nonzero;"/><path d="M94.15,143.396c-5.279,0 -8.527,3.573 -8.527,9.907c0,6.578 3.329,10.232 8.365,10.232c1.948,0 3.654,-0.57 5.115,-1.706l0,-17.052c-1.38,-0.893 -3.086,-1.381 -4.953,-1.381m-1.461,-8.768c2.596,0 4.872,0.406 6.414,1.38l0,-14.941c0,-2.924 1.784,-4.385 5.44,-4.385c3.654,0 5.439,1.461 5.439,4.385l0,46.77c0,3.005 -1.866,4.386 -5.358,4.386c-3.411,0 -4.791,-1.217 -4.791,-3.41l0,-0.487c-2.11,2.597 -5.277,3.977 -9.337,3.977c-8.933,0 -15.998,-6.739 -15.998,-18.432c0,-11.853 7.229,-19.243 18.191,-19.243" style="fill:#333;fill-rule:nonzero;"/><path d="M126.955,167.837c0,2.924 -1.788,4.386 -5.442,4.386c-3.654,0 -5.439,-1.462 -5.439,-4.386l0,-28.824c0,-2.926 1.704,-4.385 5.277,-4.385c3.737,0 5.115,1.867 5.034,4.385l0,1.623c1.706,-3.573 5.036,-6.089 9.339,-6.089c3.086,0 4.466,1.461 4.466,4.87c0,3.818 -1.706,4.873 -4.953,5.034c-4.467,0.162 -6.659,1.057 -8.282,3.575l0,19.811Z" style="fill:#333;fill-rule:nonzero;"/><path d="M151.362,160.693c0,1.868 1.217,3.331 4.302,3.331c2.112,0 4.222,-0.732 6.091,-2.274l0,-6.578c-6.984,0.893 -10.393,2.355 -10.393,5.521m4.791,-17.295c-1.95,0 -4.304,0.487 -6.739,1.625c-1.382,0.649 -2.437,1.136 -3.412,1.136c-2.516,0 -4.142,-3.003 -4.142,-5.115c0,-1.544 0.895,-2.68 2.926,-3.817c3.407,-1.868 7.712,-2.761 12.34,-2.761c5.848,0 10.151,1.461 12.588,4.304c1.703,2.03 2.516,5.115 2.516,9.095l0,19.893c0,3.084 -1.461,4.466 -5.277,4.466c-3.249,0 -4.549,-0.975 -4.549,-3.33l0,-0.649c-2.354,2.678 -5.683,3.979 -10.068,3.979c-7.471,0 -12.016,-4.06 -12.016,-10.555c0,-7.307 5.844,-11.45 21.435,-12.83l0,-0.568c0,-3.086 -1.38,-4.873 -5.602,-4.873" style="fill:#333;fill-rule:nonzero;"/><path d="M193.829,163.452c5.36,0 8.605,-3.49 8.605,-9.906c0,-6.577 -3.328,-10.23 -8.362,-10.23c-1.948,0 -3.654,0.568 -5.117,1.705l0,17.133c1.382,0.892 3.088,1.298 4.874,1.298m-4.874,19.732c0,2.922 -1.785,4.383 -5.439,4.383c-3.655,0 -5.442,-1.461 -5.442,-4.383l0,-44.171c0,-3.005 1.787,-4.385 5.362,-4.385c3.326,0 4.789,1.297 4.789,3.409l0,0.487c2.112,-2.599 5.279,-3.896 9.337,-3.896c8.932,0 15.997,6.657 15.997,18.351c0,11.934 -7.226,19.324 -18.19,19.324c-2.597,0 -4.87,-0.487 -6.414,-1.38l0,12.261Z" style="fill:#333;fill-rule:nonzero;"/></g><defs><linearGradient id="_Linear1" x1="0" y1="0" x2="1" y2="0" gradientUnits="userSpaceOnUse" gradientTransform="matrix(100.931,7.10543e-15,-7.10543e-15,100.931,55.2208,52.2903)"><stop offset="0" style="stop-color:#91268f;stop-opacity:1"/><stop offset="0.11" style="stop-color:#91268f;stop-opacity:1"/><stop offset="0.92" style="stop-color:#ee287c;stop-opacity:1"/><stop offset="1" style="stop-color:#ee287c;stop-opacity:1"/></linearGradient></defs></svg>