<?xml version="1.0" encoding="UTF-8" standalone="no"?><!DOCTYPE svg PUBLIC "-//W3C//DTD SVG 1.1//EN" "http://www.w3.org/Graphics/SVG/1.1/DTD/svg11.dtd"><svg width="100%" height="100%" viewBox="0 0 280 230" version="1.1" xmlns="http://www.w3.org/2000/svg" xmlns:xlink="http://www.w3.org/1999/xlink" xml:space="preserve" xmlns:serif="http://www.serif.com/" style="fill-rule:evenodd;clip-rule:evenodd;stroke-miterlimit:10;"><path d="M34.6,190.1c-0.1,0.2 -0.3,0.3 -0.5,0.3c-0.2,0 -0.4,-0.1 -0.6,-0.4c-0.2,-0.3 -0.5,-0.5 -0.9,-0.8c-0.4,-0.3 -0.9,-0.6 -1.5,-0.8c-0.6,-0.3 -1.4,-0.4 -2.3,-0.4c-1,0 -1.9,0.2 -2.7,0.5c-0.8,0.3 -1.5,0.8 -2,1.3c-0.6,0.6 -1,1.2 -1.3,2c-0.3,0.8 -0.4,1.6 -0.4,2.4c0,0.8 0.2,1.5 0.5,2c0.3,0.6 0.8,1 1.3,1.4c0.5,0.4 1.2,0.7 1.8,1c0.7,0.3 1.4,0.6 2.1,0.8c0.7,0.3 1.4,0.6 2.1,0.9c0.7,0.3 1.3,0.7 1.8,1.2c0.5,0.5 1,1 1.3,1.7c0.3,0.7 0.5,1.5 0.5,2.5c0,1.3 -0.2,2.5 -0.7,3.6c-0.4,1.2 -1.1,2.2 -1.9,3c-0.8,0.9 -1.8,1.5 -3,2c-1.2,0.5 -2.5,0.8 -3.9,0.8c-1.7,0 -3.1,-0.3 -4.3,-1c-1.2,-0.7 -2.2,-1.6 -3,-2.7l0.7,-0.9c0.2,-0.2 0.4,-0.3 0.6,-0.3c0.1,0 0.3,0.1 0.4,0.2c0.2,0.2 0.3,0.4 0.6,0.6c0.2,0.2 0.5,0.5 0.8,0.8c0.3,0.3 0.7,0.5 1.1,0.8c0.4,0.2 0.9,0.4 1.5,0.6c0.6,0.2 1.2,0.2 2,0.2c1.1,0 2.1,-0.2 3,-0.6c0.9,-0.4 1.7,-0.9 2.3,-1.6c0.6,-0.7 1.1,-1.4 1.5,-2.3c0.3,-0.9 0.5,-1.9 0.5,-2.9c0,-0.8 -0.2,-1.5 -0.5,-2.1c-0.3,-0.6 -0.8,-1 -1.3,-1.4c-0.5,-0.4 -1.2,-0.7 -1.8,-1c-0.7,-0.3 -1.4,-0.5 -2.1,-0.8c-0.7,-0.3 -1.4,-0.6 -2.1,-0.9c-0.7,-0.3 -1.3,-0.7 -1.8,-1.2c-0.5,-0.5 -1,-1.1 -1.3,-1.7c-0.3,-0.7 -0.5,-1.5 -0.5,-2.5c0,-1.1 0.2,-2.1 0.6,-3.1c0.4,-1 0.9,-1.9 1.7,-2.7c0.7,-0.8 1.6,-1.4 2.7,-1.8c1.1,-0.5 2.3,-0.7 3.6,-0.7c1.4,0 2.6,0.2 3.6,0.8c1,0.5 1.9,1.2 2.7,2.2l-0.9,1Z" style="fill-rule:nonzero;"/><path d="M55.1,188.3l-13.7,0l-1.4,11.6l11.4,0l-0.3,1.6l-11.3,0l-1.4,11.9l13.6,0l-0.2,1.6l-15.6,0l3.4,-28.3l15.7,0l-0.2,1.6Z" style="fill-rule:nonzero;"/><path d="M62,186.8c0.1,0 0.2,0.2 0.3,0.3l13.7,24.6l0,-1l3,-24l1.7,0l-3.5,28.3l-0.9,0c-0.3,0 -0.6,-0.1 -0.7,-0.4l-13.7,-24.6l-0.1,0.9l-3,24.2l-1.7,0l3.5,-28.3l1,0c0.1,-0.1 0.3,-0.1 0.4,0" style="fill-rule:nonzero;"/><path d="M99.8,190.1c-0.1,0.2 -0.3,0.3 -0.5,0.3c-0.2,0 -0.4,-0.1 -0.6,-0.4c-0.2,-0.3 -0.5,-0.5 -0.9,-0.8c-0.4,-0.3 -0.9,-0.6 -1.5,-0.8c-0.6,-0.3 -1.4,-0.4 -2.3,-0.4c-1,0 -1.9,0.2 -2.7,0.5c-0.8,0.3 -1.5,0.8 -2,1.3c-0.6,0.6 -1,1.2 -1.3,2c-0.3,0.8 -0.4,1.6 -0.4,2.4c0,0.8 0.2,1.5 0.5,2c0.3,0.6 0.8,1 1.3,1.4c0.5,0.4 1.2,0.7 1.8,1c0.7,0.3 1.4,0.6 2.1,0.8c0.7,0.3 1.4,0.6 2.1,0.9c0.7,0.3 1.3,0.7 1.8,1.2c0.5,0.5 1,1 1.3,1.7c0.3,0.7 0.5,1.5 0.5,2.5c0,1.3 -0.2,2.5 -0.7,3.6c-0.4,1.2 -1.1,2.2 -1.9,3c-0.8,0.9 -1.8,1.5 -3,2c-1.2,0.5 -2.5,0.8 -3.9,0.8c-1.7,0 -3.1,-0.3 -4.3,-1c-1.2,-0.7 -2.2,-1.6 -3,-2.7l0.7,-0.9c0.2,-0.2 0.4,-0.3 0.6,-0.3c0.1,0 0.3,0.1 0.4,0.2c0.2,0.2 0.3,0.4 0.6,0.6c0.2,0.2 0.5,0.5 0.8,0.8c0.3,0.3 0.7,0.5 1.1,0.8c0.4,0.2 0.9,0.4 1.5,0.6c0.6,0.2 1.2,0.2 2,0.2c1.1,0 2.1,-0.2 3,-0.6c0.9,-0.4 1.7,-0.9 2.3,-1.6c0.6,-0.7 1.1,-1.4 1.5,-2.3c0.3,-0.9 0.5,-1.9 0.5,-2.9c0,-0.8 -0.2,-1.5 -0.5,-2.1c-0.3,-0.6 -0.8,-1 -1.3,-1.4c-0.5,-0.4 -1.2,-0.7 -1.8,-1c-0.7,-0.3 -1.4,-0.5 -2.1,-0.8c-0.7,-0.3 -1.4,-0.6 -2.1,-0.9c-0.7,-0.3 -1.3,-0.7 -1.8,-1.2c-0.5,-0.5 -1,-1.1 -1.3,-1.7c-0.3,-0.7 -0.5,-1.5 -0.5,-2.5c0,-1.1 0.2,-2.1 0.6,-3.1c0.4,-1 0.9,-1.9 1.7,-2.7c0.7,-0.8 1.6,-1.4 2.7,-1.8c1.1,-0.5 2.3,-0.7 3.6,-0.7c1.4,0 2.6,0.2 3.6,0.8c1,0.5 1.9,1.2 2.7,2.2l-0.9,1Z" style="fill-rule:nonzero;"/><path d="M127.8,198.7c0,2.5 -0.4,4.8 -1.1,6.8c-0.7,2 -1.7,3.8 -3,5.2c-1.3,1.5 -2.8,2.6 -4.6,3.4c-1.8,0.8 -3.7,1.2 -5.7,1.2c-1.7,0 -3.1,-0.3 -4.5,-0.9c-1.3,-0.6 -2.5,-1.4 -3.4,-2.5c-0.9,-1.1 -1.7,-2.4 -2.2,-3.9c-0.5,-1.5 -0.8,-3.2 -0.8,-5c0,-2.5 0.4,-4.7 1.1,-6.8c0.7,-2 1.7,-3.8 3,-5.3c1.3,-1.5 2.8,-2.6 4.6,-3.4c1.8,-0.8 3.6,-1.2 5.7,-1.2c1.7,0 3.2,0.3 4.5,0.9c1.3,0.6 2.5,1.4 3.4,2.5c0.9,1.1 1.7,2.4 2.2,3.9c0.5,1.6 0.8,3.3 0.8,5.1m-2.1,0c0,-1.6 -0.2,-3.1 -0.6,-4.4c-0.4,-1.3 -1,-2.4 -1.8,-3.4c-0.8,-0.9 -1.7,-1.6 -2.9,-2.1c-1.1,-0.5 -2.4,-0.8 -3.7,-0.8c-1.7,0 -3.3,0.3 -4.8,1c-1.5,0.7 -2.8,1.7 -3.8,3c-1.1,1.3 -1.9,2.9 -2.6,4.7c-0.6,1.8 -0.9,3.9 -0.9,6.2c0,1.6 0.2,3.1 0.6,4.4c0.4,1.3 1,2.4 1.8,3.4c0.8,0.9 1.7,1.6 2.8,2.1c1.1,0.5 2.3,0.8 3.7,0.8c1.8,0 3.4,-0.3 4.9,-1c1.5,-0.7 2.8,-1.7 3.8,-3c1.1,-1.3 1.9,-2.9 2.5,-4.7c0.7,-1.8 1,-3.9 1,-6.2" style="fill-rule:nonzero;"/><path d="M134.3,202.2l-1.6,12.8l-2,0l3.5,-28.3l6.7,0c2.7,0 4.8,0.5 6.1,1.6c1.4,1.1 2,2.7 2,4.7c0,1.2 -0.2,2.4 -0.6,3.4c-0.4,1 -1,1.9 -1.7,2.7c-0.7,0.8 -1.6,1.4 -2.7,1.9c-1,0.5 -2.2,0.8 -3.4,1c0.3,0.2 0.5,0.5 0.7,0.8l7.4,12.3l-1.7,0c-0.4,0 -0.7,-0.2 -0.9,-0.5l-6.8,-11.5c-0.2,-0.3 -0.4,-0.5 -0.6,-0.6c-0.2,-0.1 -0.6,-0.2 -1.1,-0.2l-3.3,0l0,-0.1Zm1.8,-13.9l-1.5,12.4l4.5,0c1.3,0 2.4,-0.2 3.4,-0.5c1,-0.3 1.9,-0.8 2.6,-1.5c0.7,-0.6 1.2,-1.4 1.6,-2.3c0.4,-0.9 0.6,-1.9 0.6,-3c0,-1.7 -0.5,-3 -1.6,-3.8c-1.1,-0.8 -2.7,-1.3 -4.7,-1.3l-4.9,0Z" style="fill-rule:nonzero;"/><path d="M173.7,190.9l-10.8,0l-1,7.7l9,0l-0.6,5l-9,0l-1.4,11.4l-6.6,0l3.6,-29.1l17.4,0l-0.6,5Z" style="fill-rule:nonzero;"/><path d="M181,209.8l9.8,0l-0.7,5.2l-16.3,0l3.6,-29.1l6.5,0l-2.9,23.9Z" style="fill-rule:nonzero;"/><path d="M213.3,190.9l-10.8,0l-0.9,7l8.3,0l-0.7,4.9l-8.2,0l-0.9,7.2l10.9,0l-0.7,5l-17.4,0l3.6,-29.1l17.4,0l-0.6,5Z" style="fill-rule:nonzero;"/><path d="M233.2,190.9l-10.8,0l-0.9,7l8.3,0l-0.7,4.9l-8.2,0l-0.9,7.2l10.9,0l-0.6,5l-17.4,0l3.6,-29.1l17.3,0l-0.6,5Z" style="fill-rule:nonzero;"/><path d="M256.8,185.9l-0.7,5.1l-7.4,0l-2.9,24l-6.5,0l2.9,-24l-7.4,0l0.6,-5.1l21.4,0Z" style="fill-rule:nonzero;"/><path d="M65.3,166.2c-15.1,-17.3 -24.3,-39.9 -24.3,-64.6c0,-54.1 43.9,-98 98,-98c54.1,0 98,43.9 98,98c0,23.3 -8.1,44.6 -21.6,61.4" style="fill:none;fill-rule:nonzero;stroke:#fbb040;stroke-width:3px;"/><clipPath id="_clip1"><path d="M124.7,11.2c-14.2,2.3 -27.2,7.9 -38.4,15.9c-4,2.8 -4.5,8.5 -1.1,12l25,25c4.5,4.5 7.9,5.2 10.9,4l8.1,-3.3c2.9,-1.2 4.8,-4 4.8,-7.2l0,-38.6c0,-4.4 -3.6,-7.8 -7.9,-7.8c-0.5,-0.2 -0.9,-0.1 -1.4,0"/></clipPath><g clip-path="url(#_clip1)"><rect x="81.8" y="11" width="52.2" height="58.2" style="fill:url(#_Linear2);"/></g><clipPath id="_clip3"><path d="M56.9,107.4c-4.9,0 -8.5,4.4 -7.7,9.3c2.3,14.2 7.9,27.2 15.9,38.4c2.8,4 8.5,4.5 12,1.1l25,-25c4.5,-4.5 5.2,-7.9 4,-10.9l-3.3,-8.1c-1.2,-2.9 -4,-4.8 -7.2,-4.8l-38.7,0Z"/></clipPath><g clip-path="url(#_clip3)"><rect x="48.4" y="107.4" width="58.9" height="52.2" style="fill:url(#_Linear4);"/></g><clipPath id="_clip5"><path d="M65.2,48.2c-8.1,11.3 -13.7,24.5 -16,38.8c-0.8,4.7 3,8.9 7.8,8.9l38.6,0c3.1,0 6,-1.9 7.2,-4.8l3.3,-8.1c1.2,-3 0.5,-6.4 -1.7,-8.6c-6.4,-6.4 -19.5,-19.5 -27.2,-27.2c-1.5,-1.5 -3.5,-2.3 -5.5,-2.3c-2.5,0 -5,1.1 -6.5,3.3"/></clipPath><g clip-path="url(#_clip5)"><rect x="48.4" y="44.9" width="58.9" height="51" style="fill:url(#_Linear6);"/></g><clipPath id="_clip7"><path d="M145.4,18.9l0,38.6c0,3.1 1.9,6 4.8,7.2l8.1,3.3c3,1.2 6.4,0.5 8.6,-1.7c6.4,-6.4 19.5,-19.5 27.2,-27.2c3.4,-3.5 2.9,-9.1 -1.1,-12c-11.2,-8 -24.3,-13.6 -38.4,-15.9c-0.5,-0.1 -0.9,-0.1 -1.3,-0.1c-4.2,-0.1 -7.9,3.3 -7.9,7.8"/></clipPath><g clip-path="url(#_clip7)"><path d="M167,-14.7l59.3,49.8l-50.2,59.8l-59.3,-49.7l50.2,-59.9Z" style="fill:url(#_Linear8);fill-rule:nonzero;"/></g><clipPath id="_clip9"><path d="M183.9,104.9c-3.1,0 -6,1.9 -7.2,4.8l-3.3,8.1c-1.2,3 -0.5,6.4 1.7,8.6l27.2,27.2c3.5,3.4 9.1,2.9 12,-1.1c8,-11.2 13.6,-24.3 15.9,-38.4c0.8,-4.8 -2.8,-9.3 -7.7,-9.3l-38.6,0l0,0.1Z"/></clipPath><g clip-path="url(#_clip9)"><path d="M186.9,182.5l-37.3,-64.6l66.7,-38.5l37.3,64.6l-66.7,38.5Z" style="fill:url(#_Linear10);fill-rule:nonzero;"/></g><clipPath id="_clip11"><path d="M202.3,47.2l-25,25c-4.5,4.5 -5.2,7.9 -4,10.9l3.3,8.1c1.2,2.9 4,4.8 7.2,4.8l38.6,0c4.7,0 8.5,-4.2 7.8,-8.9c-2.3,-14.3 -7.9,-27.5 -16,-38.8c-1.6,-2.2 -4,-3.3 -6.5,-3.3c-1.9,-0.1 -3.9,0.6 -5.4,2.2"/></clipPath><g clip-path="url(#_clip11)"><rect x="172.1" y="44.9" width="58.9" height="51" style="fill:url(#_Linear12);"/></g><path d="M273.2,223.2c-20.5,-6.3 -41.7,-9 -63,-9.6c-21.9,-0.7 -44.2,0.7 -65.7,5.8c1.1,-0.3 6,2.8 7.3,3.3c2,0.7 5.5,2.9 7.6,2.3c20.7,-4.9 42,-6.3 63.1,-5.8c20.4,0.5 41.2,2.6 60.9,8.6c2.5,0.8 2.6,0.4 0.2,-0.7c-3.3,-1.5 -6.9,-2.8 -10.4,-3.9" style="fill:#fbb040;fill-rule:nonzero;"/><path d="M273.2,223.2c-20.5,-6.3 -41.7,-9 -63,-9.6c-21.9,-0.7 -44.2,0.7 -65.7,5.8c1.1,-0.3 6,2.8 7.3,3.3c2,0.7 5.5,2.9 7.6,2.3c20.7,-4.9 42,-6.3 63.1,-5.8c20.4,0.5 41.2,2.6 60.9,8.6c2.5,0.8 2.6,0.4 0.2,-0.7c-3.3,-1.5 -6.9,-2.8 -10.4,-3.9Z" style="fill:none;fill-rule:nonzero;stroke:#fff;stroke-width:2.15px;"/><defs><linearGradient id="_Linear2" x1="0" y1="0" x2="1" y2="0" gradientUnits="userSpaceOnUse" gradientTransform="matrix(51.0127,0,0,51.0127,82.9492,40.1444)"><stop offset="0" style="stop-color:#fff33b;stop-opacity:1"/><stop offset="0.06" style="stop-color:#ffe029;stop-opacity:1"/><stop offset="0.13" style="stop-color:#ffd218;stop-opacity:1"/><stop offset="0.2" style="stop-color:#fec90f;stop-opacity:1"/><stop offset="0.28" style="stop-color:#fdc70c;stop-opacity:1"/><stop offset="0.67" style="stop-color:#f3903f;stop-opacity:1"/><stop offset="0.89" style="stop-color:#ed683c;stop-opacity:1"/><stop offset="1" style="stop-color:#e93e3a;stop-opacity:1"/></linearGradient><linearGradient id="_Linear4" x1="0" y1="0" x2="1" y2="0" gradientUnits="userSpaceOnUse" gradientTransform="matrix(57.5025,0,0,57.5025,49.1102,133.455)"><stop offset="0" style="stop-color:#fff33b;stop-opacity:1"/><stop offset="0.06" style="stop-color:#ffe029;stop-opacity:1"/><stop offset="0.13" style="stop-color:#ffd218;stop-opacity:1"/><stop offset="0.2" style="stop-color:#fec90f;stop-opacity:1"/><stop offset="0.28" style="stop-color:#fdc70c;stop-opacity:1"/><stop offset="0.67" style="stop-color:#f3903f;stop-opacity:1"/><stop offset="0.89" style="stop-color:#ed683c;stop-opacity:1"/><stop offset="1" style="stop-color:#e93e3a;stop-opacity:1"/></linearGradient><linearGradient id="_Linear6" x1="0" y1="0" x2="1" y2="0" gradientUnits="userSpaceOnUse" gradientTransform="matrix(57.6168,0,0,57.6168,49.0628,70.4068)"><stop offset="0" style="stop-color:#fff33b;stop-opacity:1"/><stop offset="0.06" style="stop-color:#ffe029;stop-opacity:1"/><stop offset="0.13" style="stop-color:#ffd218;stop-opacity:1"/><stop offset="0.2" style="stop-color:#fec90f;stop-opacity:1"/><stop offset="0.28" style="stop-color:#fdc70c;stop-opacity:1"/><stop offset="0.67" style="stop-color:#f3903f;stop-opacity:1"/><stop offset="0.89" style="stop-color:#ed683c;stop-opacity:1"/><stop offset="1" style="stop-color:#e93e3a;stop-opacity:1"/></linearGradient><linearGradient id="_Linear8" x1="0" y1="0" x2="1" y2="0" gradientUnits="userSpaceOnUse" gradientTransform="matrix(39.9674,33.5366,-33.5366,39.9674,144.331,17.3171)"><stop offset="0" style="stop-color:#fff33b;stop-opacity:1"/><stop offset="0.06" style="stop-color:#ffe029;stop-opacity:1"/><stop offset="0.13" style="stop-color:#ffd218;stop-opacity:1"/><stop offset="0.2" style="stop-color:#fec90f;stop-opacity:1"/><stop offset="0.28" style="stop-color:#fdc70c;stop-opacity:1"/><stop offset="0.67" style="stop-color:#f3903f;stop-opacity:1"/><stop offset="0.89" style="stop-color:#ed683c;stop-opacity:1"/><stop offset="1" style="stop-color:#e93e3a;stop-opacity:1"/></linearGradient><linearGradient id="_Linear10" x1="0" y1="0" x2="1" y2="0" gradientUnits="userSpaceOnUse" gradientTransform="matrix(-29.1257,-50.4471,50.4471,-29.1257,214.499,153.279)"><stop offset="0" style="stop-color:#fff33b;stop-opacity:1"/><stop offset="0.06" style="stop-color:#ffe029;stop-opacity:1"/><stop offset="0.13" style="stop-color:#ffd218;stop-opacity:1"/><stop offset="0.2" style="stop-color:#fec90f;stop-opacity:1"/><stop offset="0.28" style="stop-color:#fdc70c;stop-opacity:1"/><stop offset="0.67" style="stop-color:#f3903f;stop-opacity:1"/><stop offset="0.89" style="stop-color:#ed683c;stop-opacity:1"/><stop offset="1" style="stop-color:#e93e3a;stop-opacity:1"/></linearGradient><linearGradient id="_Linear12" x1="0" y1="0" x2="1" y2="0" gradientUnits="userSpaceOnUse" gradientTransform="matrix(-57.5599,7.04905e-15,-7.04905e-15,-57.5599,230.343,70.4107)"><stop offset="0" style="stop-color:#fff33b;stop-opacity:1"/><stop offset="0.06" style="stop-color:#ffe029;stop-opacity:1"/><stop offset="0.13" style="stop-color:#ffd218;stop-opacity:1"/><stop offset="0.2" style="stop-color:#fec90f;stop-opacity:1"/><stop offset="0.28" style="stop-color:#fdc70c;stop-opacity:1"/><stop offset="0.67" style="stop-color:#f3903f;stop-opacity:1"/><stop offset="0.89" style="stop-color:#ed683c;stop-opacity:1"/><stop offset="1" style="stop-color:#e93e3a;stop-opacity:1"/></linearGradient></defs></svg>