<?xml version="1.0" encoding="UTF-8"?><svg id="Layer_2" xmlns="http://www.w3.org/2000/svg" xmlns:xlink="http://www.w3.org/1999/xlink" viewBox="0 0 62.09 51.92"><defs><style>.cls-1,.cls-2{fill:none;}.cls-3{fill:#e52428;}.cls-2{stroke:#cdcccc;stroke-miterlimit:10;stroke-width:1.27px;}.cls-4{fill:#b41b1f;}.cls-5{opacity:0;}.cls-6{clip-path:url(#clippath);}.cls-7{fill:#95191c;}</style><clipPath id="clippath"><rect class="cls-1" width="62.09" height="51.92"/></clipPath></defs><g id="Layer_1-2"><g class="cls-6"><rect class="cls-5" y="0" width="62.46" height="68.37"/><rect class="cls-2" x=".63" y="28.88" width="60.83" height="22.12" rx="9.33" ry="9.33"/><circle class="cls-3" cx="30.55" cy="36.26" r="2.77"/><path class="cls-3" d="M41.95,18.98l-4.04,3.7c-4.46-3.36-10.6-3.4-15.11-.09l-3.66-4.02c6.74-5.28,16.27-5.11,22.81.41Z"/><path class="cls-4" d="M47.65,14.39l-4.02,3.67c-7.41-6.44-18.35-6.66-26.02-.54l-3.66-4.02c9.89-8.12,24.25-7.74,33.7.89Z"/><path class="cls-7" d="M12.42,11.82l-3.65-3.97c13.03-10.97,32.22-10.38,44.56,1.35l-4.01,3.66C39.02,3.31,23.24,2.87,12.42,11.82Z"/></g></g></svg>