<svg xmlns="http://www.w3.org/2000/svg" viewBox="0 0 73.57 80.44"><defs><style>.cls-1{fill:#fff;}.cls-2{fill:#ec1c24;}.cls-3{fill:#b4191e;}.cls-4{fill:#95171a;}.cls-5,.cls-6{fill:none;stroke:#ccc;stroke-miterlimit:10;stroke-width:1.5px;}.cls-6{stroke-dasharray:4.98;}</style></defs><title>Asset 14</title><g id="Layer_2" data-name="Layer 2"><g id="Layer_2-2" data-name="Layer 2"><path class="cls-1" d="M40.19,80.44h-.71a.27.27,0,0,1-.2-.07.37.37,0,0,1-.13-.17l-1.5-3.7H31.39L29.9,80.2a.52.52,0,0,1-.13.17.38.38,0,0,1-.21.07h-.71L34.07,67.7H35Zm-8.52-4.63h5.71l-2.6-6.43a2.34,2.34,0,0,1-.13-.35l-.13-.41c0,.15-.08.28-.12.41s-.09.25-.13.36Z" transform="translate(-8.42)"/><path class="cls-1" d="M43.4,75.31v5.13h-.92V67.7h3.29a5,5,0,0,1,3.37,1,3.5,3.5,0,0,1,1.14,2.8A3.72,3.72,0,0,1,50,73a3.31,3.31,0,0,1-.89,1.21,4.27,4.27,0,0,1-1.42.8,6.15,6.15,0,0,1-1.89.28Zm0-.74h2.37a4.74,4.74,0,0,0,1.51-.23,3.56,3.56,0,0,0,1.13-.65,2.87,2.87,0,0,0,.71-1,3.07,3.07,0,0,0,.25-1.23,2.87,2.87,0,0,0-.91-2.26,4,4,0,0,0-2.69-.79H43.4Z" transform="translate(-8.42)"/><path class="cls-1" d="M54.08,75.31v5.13h-.92V67.7h3.29a5.09,5.09,0,0,1,3.38,1A3.5,3.5,0,0,1,61,71.48,3.88,3.88,0,0,1,60.66,73a3.46,3.46,0,0,1-.9,1.21,4.17,4.17,0,0,1-1.42.8,6.15,6.15,0,0,1-1.89.28Zm0-.74h2.37A4.7,4.7,0,0,0,58,74.34a3.56,3.56,0,0,0,1.13-.65,2.74,2.74,0,0,0,.71-1,2.91,2.91,0,0,0,.25-1.23,2.84,2.84,0,0,0-.91-2.26,4,4,0,0,0-2.69-.79H54.08Z" transform="translate(-8.42)"/><circle class="cls-2" cx="36.07" cy="40.29" r="3.28"/><path class="cls-2" d="M58.12,22.49l-4.79,4.38a15,15,0,0,0-17.9-.11L31.09,22A21.42,21.42,0,0,1,58.12,22.49Z" transform="translate(-8.42)"/><path class="cls-3" d="M64.87,17.05,60.11,21.4a24.09,24.09,0,0,0-30.83-.64L24.94,16A30.52,30.52,0,0,1,64.87,17.05Z" transform="translate(-8.42)"/><path class="cls-4" d="M23.14,14,18.81,9.3A39.6,39.6,0,0,1,71.6,10.9l-4.75,4.34A33.18,33.18,0,0,0,23.14,14Z" transform="translate(-8.42)"/><path class="cls-5" d="M58.5,34.22h9.64a13.15,13.15,0,0,1,13.1,13.11h0a13.14,13.14,0,0,1-13.1,13.1H22.27a13.14,13.14,0,0,1-13.1-13.1h0a13.14,13.14,0,0,1,13.1-13.11h8.89" transform="translate(-8.42)"/><circle class="cls-6" cx="36.07" cy="40.29" r="11.85"/></g></g></svg>