<?xml version="1.0" encoding="UTF-8"?><svg id="Layer_2" xmlns="http://www.w3.org/2000/svg" viewBox="0 0 466.56 363.9"><defs><style>.cls-1{fill:#fff;}.cls-2{fill:#ed1c24;}.cls-3{fill:#b5191e;}.cls-4{fill:#8a1618;}.cls-5{fill:#528095;}.cls-6{fill:none;stroke:#fff;stroke-miterlimit:10;}</style></defs><g id="outlines"><path class="cls-5" d="m201.23,181.55c-35.4-9.96-56.1-46.86-46.14-82.26,9.63-34.24,44.46-54.72,78.77-47.02l-5.43,19.3c-23.67-4.74-47.44,9.51-54.09,33.13-6.97,24.78,7.52,50.62,32.3,57.59,24.79,6.97,50.62-7.52,57.59-32.3l19.25,5.42c-9.96,35.4-46.86,56.1-82.26,46.14Z"/><g><path class="cls-2" d="m285.25,127.07l-19.47-5.48c1.87-20.38-9.93-39.95-29.19-47.62l5.43-19.31c29.85,10.8,47.84,41.31,43.24,72.4Z"/><path class="cls-3" d="m312.71,134.79l-19.36-5.45c5.79-35.54-14.79-70.65-49.07-82.74l5.43-19.3c44.88,15.13,71.66,61.28,63,107.48Z"/><path class="cls-4" d="m251.97,19.27l5.42-19.27c59.92,19.42,95.49,81.2,82.69,142.49l-19.3-5.43c9.88-50.65-19.49-101.39-68.8-117.79Z"/></g><g><path class="cls-1" d="m17.82,214.91c0-2.37-.08-4.7-.24-6.97-.16-2.27-.51-4.37-1.05-6.32-.54-1.94-1.38-3.62-2.51-5.02-1.13-1.4-2.67-2.37-4.62-2.92-1.19-.32-2.43-.59-3.73-.81-1.29-.21-2.54-.38-3.73-.49-.65,0-1.13-.27-1.46-.81-.32-.54-.49-1.13-.49-1.78s.16-1.24.49-1.78c.32-.54.81-.81,1.46-.81,3.67,0,6.97.11,9.88.32,2.92.22,6.32.32,10.21.32,1.62,0,3.43-.03,5.43-.08,2-.05,4.05-.13,6.16-.24,2.11-.11,4.16-.19,6.16-.24,2-.05,3.81-.08,5.43-.08,4.21,0,8.64.35,13.28,1.05,4.64.7,8.94,2.02,12.88,3.97,3.94,1.94,7.18,4.62,9.72,8.02,2.54,3.4,3.81,7.8,3.81,13.2,0,3.35-.51,6.26-1.54,8.75-1.03,2.49-2.4,4.64-4.13,6.48-1.73,1.84-3.78,3.43-6.16,4.78-2.38,1.35-4.86,2.51-7.45,3.48-.87.32-1.24.76-1.13,1.3.11.54.49.92,1.13,1.13,4.21,1.3,7.96,2.78,11.26,4.46,3.29,1.68,6.08,3.65,8.34,5.91,2.27,2.27,3.99,4.94,5.18,8.02,1.19,3.08,1.78,6.72,1.78,10.94,0,5.62-1,10.26-3,13.93-2,3.67-4.67,6.56-8.02,8.67-3.35,2.11-7.16,3.59-11.42,4.46-4.27.86-8.67,1.3-13.2,1.3-2.05,0-4.35-.06-6.88-.16-2.54-.11-5.16-.19-7.86-.24-2.7-.06-5.43-.13-8.18-.24-2.75-.11-5.32-.16-7.7-.16s-4.32.03-6.16.08c-1.84.06-3.59.14-5.26.24-1.68.11-3.4.24-5.18.4-1.78.16-3.81.35-6.08.57-.76.11-1.35-.11-1.78-.65-.43-.54-.68-1.13-.73-1.78-.06-.65.11-1.3.49-1.94.38-.65,1-1.03,1.86-1.13,2.59-.32,4.83-.75,6.72-1.3,1.89-.54,3.43-1.38,4.62-2.51,1.19-1.13,2.05-2.56,2.59-4.29.54-1.73.81-3.99.81-6.8v-62.21Zm17.66,17.17c0,1.08.3,2.05.89,2.92.59.87,1.59,1.3,3,1.3h3.08c3.56,0,6.83-.3,9.8-.89,2.97-.59,5.53-1.7,7.69-3.32,2.16-1.62,3.86-3.81,5.1-6.56,1.24-2.75,1.86-6.34,1.86-10.77,0-7.45-1.86-12.77-5.59-15.96-3.73-3.18-9.1-4.78-16.12-4.78h-5.51c-2.05,0-3.27.57-3.65,1.7-.38,1.13-.57,3.05-.57,5.75v30.62Zm0,32.56c0,5.83.19,10.45.57,13.85.38,3.4,1.22,5.94,2.51,7.61,1.3,1.68,3.16,2.73,5.59,3.16,2.43.43,5.7.65,9.8.65,6.48,0,11.15-1.78,14.01-5.35,2.86-3.56,4.29-8.96,4.29-16.2,0-5.18-.76-9.42-2.27-12.72-1.51-3.29-3.54-5.86-6.07-7.7-2.54-1.83-5.54-3.1-8.99-3.81-3.46-.7-7.13-1.05-11.02-1.05h-3.08c-2.16,0-3.59.7-4.29,2.11-.7,1.4-1.05,3.13-1.05,5.18v14.26Z"/><path class="cls-1" d="m116.48,255.25c-.54,0-.84.19-.89.57-.06.38-.08.84-.08,1.38,0,5.62.62,10.37,1.86,14.26,1.24,3.89,2.97,7.05,5.18,9.48,2.21,2.43,4.86,4.19,7.94,5.26,3.08,1.08,6.4,1.62,9.96,1.62s7.23-.3,10.69-.89c3.46-.59,6.42-1.92,8.91-3.97.54-.43,1.11-.59,1.7-.49.59.11,1.08.38,1.46.81.38.43.62.92.73,1.46.11.54,0,1.03-.32,1.46-3.46,4.54-7.35,7.67-11.66,9.4-4.32,1.73-9.67,2.59-16.04,2.59s-12.07-.97-16.77-2.92c-4.7-1.94-8.59-4.67-11.66-8.18-3.08-3.51-5.35-7.61-6.8-12.31-1.46-4.7-2.19-9.8-2.19-15.31s.89-10.31,2.67-15.07c1.78-4.75,4.29-8.85,7.53-12.31,3.24-3.46,7.07-6.21,11.5-8.26,4.43-2.05,9.34-3.08,14.74-3.08,4.54,0,8.67.78,12.39,2.35,3.73,1.57,6.88,3.73,9.48,6.48,2.59,2.75,4.62,6.05,6.07,9.88,1.46,3.83,2.19,7.97,2.19,12.39,0,2.27-.81,3.4-2.43,3.4h-46.17Zm29.65-5.67c1.51,0,2.37-.54,2.59-1.62.22-1.08.32-2.37.32-3.89,0-2.27-.35-4.46-1.05-6.56-.7-2.11-1.7-3.97-3-5.59-1.3-1.62-2.86-2.92-4.7-3.89-1.84-.97-3.94-1.46-6.32-1.46-2.92,0-5.43.51-7.53,1.54-2.11,1.03-3.89,2.38-5.35,4.05-1.46,1.68-2.57,3.65-3.32,5.91-.76,2.27-1.29,4.65-1.62,7.13-.22,1.3-.3,2.35-.24,3.16.05.81.3,1.21.73,1.21h29.48Z"/><path class="cls-1" d="m228.74,279.06c0,3.78.35,6.43,1.05,7.94.7,1.51,2.08,2.27,4.13,2.27,1.19,0,2.16-.13,2.92-.4.75-.27,1.84-.84,3.24-1.7.32-.22.67-.22,1.05,0,.38.22.7.51.97.89.27.38.46.81.57,1.3.11.49,0,.89-.32,1.21-4.21,5.08-9.18,7.61-14.9,7.61-3.13,0-5.81-.84-8.02-2.51-2.21-1.67-3.86-3.65-4.94-5.91-.22-.54-.54-.59-.97-.16-2.81,2.49-6.07,4.54-9.8,6.16s-8.4,2.43-14.01,2.43c-6.16,0-10.91-1.65-14.26-4.94-3.35-3.29-5.02-7.96-5.02-14.01,0-7.78,3.62-13.74,10.85-17.9,7.23-4.16,17.76-6.24,31.59-6.24.22,0,.38-.27.49-.81.11-.54.16-1.78.16-3.73v-4.37c0-2.7-.22-5.24-.65-7.61-.43-2.37-1.16-4.46-2.19-6.24-1.03-1.78-2.46-3.18-4.29-4.21-1.84-1.03-4.11-1.54-6.8-1.54-4,0-7.24.78-9.72,2.35-2.48,1.57-3.73,3.59-3.73,6.07,0,1.19.38,2.35,1.13,3.48.75,1.13,1.13,2.3,1.13,3.48,0,1.51-.76,2.97-2.27,4.37-1.51,1.41-3.35,2.11-5.51,2.11-2.92,0-5-.78-6.24-2.35-1.24-1.56-1.86-3.48-1.86-5.75,0-2.7.75-5.27,2.27-7.7,1.51-2.43,3.56-4.51,6.16-6.24,2.59-1.73,5.61-3.1,9.07-4.13,3.46-1.03,7.07-1.54,10.85-1.54,8.64,0,15.44,2,20.41,5.99,4.97,4,7.45,10.64,7.45,19.93v32.4Zm-15.23-16.04c0-1.19-.05-1.92-.16-2.19-.11-.27-.38-.4-.81-.4-8.86.76-15.42,2.62-19.68,5.59-4.27,2.97-6.4,6.78-6.4,11.42,0,3.24.81,5.97,2.43,8.18,1.62,2.21,4.32,3.32,8.1,3.32,2.48,0,5.1-.49,7.86-1.46,2.75-.97,5.21-2.37,7.37-4.21.86-.86,1.3-1.73,1.3-2.59v-17.66Z"/><path class="cls-1" d="m257.26,256.87c0,4.11.49,8.02,1.46,11.75.97,3.73,2.46,7.02,4.45,9.88,2,2.86,4.56,5.13,7.7,6.8,3.13,1.68,6.91,2.51,11.34,2.51,3.78,0,7.48-.3,11.1-.89,3.62-.59,6.67-1.97,9.15-4.13.43-.43.92-.57,1.46-.4.54.16,1.03.43,1.46.81.43.38.73.84.89,1.38.16.54.08,1.03-.24,1.46-3.56,4.75-7.72,7.97-12.47,9.64-4.75,1.67-10.37,2.51-16.85,2.51-4.32,0-8.64-.65-12.96-1.94-4.32-1.3-8.24-3.46-11.75-6.48-3.51-3.02-6.35-7.05-8.5-12.07-2.16-5.02-3.24-11.26-3.24-18.71,0-5.29.89-10.29,2.67-14.98,1.78-4.7,4.38-8.75,7.78-12.15,3.4-3.4,7.59-6.1,12.55-8.1,4.97-2,10.69-3,17.17-3,3.13,0,6.18.38,9.15,1.13,2.97.76,5.62,1.86,7.94,3.32,2.32,1.46,4.18,3.27,5.59,5.43,1.4,2.16,2.11,4.59,2.11,7.29,0,1.94-.65,3.78-1.94,5.51-1.3,1.73-3.35,2.59-6.16,2.59-2.27,0-4.13-.59-5.59-1.78-1.46-1.19-2.19-2.92-2.19-5.18,0-1.51.4-2.75,1.21-3.73.81-.97,1.21-1.89,1.21-2.75,0-1.94-1.3-3.43-3.89-4.45-2.59-1.03-5.45-1.54-8.59-1.54-4.11,0-7.53.87-10.29,2.59-2.75,1.73-5.02,4.02-6.8,6.89-1.78,2.86-3.05,6.1-3.81,9.72-.76,3.62-1.13,7.32-1.13,11.1Z"/><path class="cls-1" d="m382.32,257.35c0,6.59-.92,12.42-2.75,17.5-1.84,5.08-4.46,9.34-7.86,12.8-3.4,3.46-7.48,6.08-12.23,7.86-4.75,1.78-10.04,2.67-15.88,2.67-5.08,0-9.78-.84-14.09-2.51-4.32-1.67-8.05-4.16-11.18-7.45-3.13-3.29-5.62-7.45-7.45-12.47-1.84-5.02-2.75-10.94-2.75-17.74,0-5.51.92-10.56,2.75-15.15,1.83-4.59,4.4-8.5,7.7-11.75,3.29-3.24,7.26-5.78,11.91-7.61,4.64-1.83,9.72-2.75,15.23-2.75s10.18.81,14.66,2.43c4.48,1.62,8.34,3.97,11.58,7.05,3.24,3.08,5.78,6.88,7.61,11.42,1.84,4.54,2.75,9.78,2.75,15.71Zm-17.01,1.78c0-4.1-.27-8.1-.81-11.99-.54-3.89-1.51-7.34-2.92-10.37-1.41-3.02-3.35-5.45-5.83-7.29-2.49-1.84-5.67-2.75-9.56-2.75-4.32,0-7.83.92-10.53,2.75-2.7,1.84-4.83,4.29-6.4,7.37-1.57,3.08-2.65,6.56-3.24,10.45-.59,3.89-.89,7.94-.89,12.15,0,3.67.27,7.45.81,11.34.54,3.89,1.56,7.4,3.08,10.53,1.51,3.13,3.59,5.73,6.24,7.78,2.65,2.05,6.02,3.08,10.12,3.08s7.61-.97,10.21-2.92,4.62-4.48,6.08-7.61c1.46-3.13,2.43-6.67,2.92-10.61.49-3.94.73-7.91.73-11.91Z"/><path class="cls-1" d="m406.29,276.96c0,2.7.05,4.97.16,6.8.11,1.84.4,3.35.89,4.54.49,1.19,1.3,2.11,2.43,2.75,1.13.65,2.73,1.13,4.78,1.46.65.11,1.13.4,1.46.89.32.49.49,1.05.49,1.7,0,.54-.16,1.05-.49,1.54s-.81.73-1.46.73c-1.08,0-3.11-.19-6.08-.57-2.97-.38-6.08-.57-9.31-.57-3.46,0-6.8.19-10.04.57-3.24.38-6.27.57-9.07.57-.54,0-.97-.24-1.3-.73s-.49-1-.49-1.54c0-.65.16-1.21.49-1.7.32-.49.81-.78,1.46-.89,2.7-.32,4.78-.75,6.24-1.3,1.46-.54,2.54-1.35,3.24-2.43.7-1.08,1.11-2.48,1.21-4.21.11-1.73.16-3.94.16-6.64v-20.41c0-5.29-.06-9.69-.16-13.2-.11-3.51-.49-6.29-1.13-8.34-.65-2.05-1.68-3.48-3.08-4.29-1.4-.81-3.4-1.22-5.99-1.22-.65,0-1.16-.21-1.54-.65-.38-.43-.57-.92-.57-1.46,0-.65.19-1.19.57-1.62.38-.43.89-.65,1.54-.65,2.05,0,5.05-.32,8.99-.97,3.94-.65,7.96-1.56,12.07-2.75,1.51-.43,2.64-.13,3.4.89.75,1.03,1.13,2.19,1.13,3.48v6.48c0,.22.08.35.24.4.16.06.3-.03.4-.24.75-1.19,1.81-2.51,3.16-3.97,1.35-1.46,2.97-2.83,4.86-4.13,1.89-1.3,4.02-2.37,6.4-3.24,2.38-.86,5.02-1.3,7.94-1.3,8.1,0,14.44,2.24,19.04,6.72,4.59,4.48,6.88,11.74,6.88,21.79v27.7c0,2.92.08,5.29.24,7.13.16,1.84.54,3.32,1.13,4.46.59,1.13,1.51,2,2.75,2.59,1.24.59,3,1.05,5.26,1.38.65.11,1.13.4,1.46.89.32.49.49,1.05.49,1.7,0,.54-.16,1.05-.49,1.54-.32.49-.81.73-1.46.73-1.4,0-3.7-.19-6.88-.57-3.19-.38-6.4-.57-9.64-.57-3.46,0-6.75.19-9.88.57-3.13.38-5.73.57-7.78.57-.54,0-.97-.24-1.3-.73s-.49-1-.49-1.54c0-.65.16-1.21.49-1.7.32-.49.81-.78,1.46-.89,2.37-.32,4.18-.81,5.43-1.46,1.24-.65,2.16-1.54,2.75-2.67.59-1.13.94-2.54,1.05-4.21.11-1.67.16-3.75.16-6.24v-24.62c0-2.7-.11-5.4-.32-8.1-.22-2.7-.81-5.13-1.78-7.29-.97-2.16-2.38-3.94-4.21-5.35-1.84-1.4-4.37-2.11-7.61-2.11s-6.08.51-8.5,1.54c-2.43,1.03-4.48,2.4-6.16,4.13-1.68,1.73-2.94,3.75-3.81,6.07-.87,2.32-1.3,4.78-1.3,7.37v27.38Z"/></g><g><path class="cls-1" d="m130.32,331.14c0-.59-.02-1.16-.06-1.72-.04-.56-.13-1.08-.26-1.56s-.34-.89-.62-1.24c-.28-.35-.66-.59-1.14-.72-.29-.08-.6-.15-.92-.2-.32-.05-.63-.09-.92-.12-.16,0-.28-.07-.36-.2-.08-.13-.12-.28-.12-.44s.04-.31.12-.44c.08-.13.2-.2.36-.2.91,0,1.72.03,2.44.08.72.05,1.56.08,2.52.08.4,0,.85,0,1.34-.02.49-.01,1-.03,1.52-.06.52-.03,1.03-.05,1.52-.06.49-.01.94-.02,1.34-.02,1.04,0,2.13.09,3.28.26,1.15.17,2.21.5,3.18.98.97.48,1.77,1.14,2.4,1.98.63.84.94,1.93.94,3.26,0,.83-.13,1.55-.38,2.16-.25.61-.59,1.15-1.02,1.6-.43.45-.93.85-1.52,1.18-.59.33-1.2.62-1.84.86-.21.08-.31.19-.28.32.03.13.12.23.28.28,1.04.32,1.96.69,2.78,1.1.81.41,1.5.9,2.06,1.46.56.56.99,1.22,1.28,1.98.29.76.44,1.66.44,2.7,0,1.39-.25,2.53-.74,3.44-.49.91-1.15,1.62-1.98,2.14-.83.52-1.77.89-2.82,1.1-1.05.21-2.14.32-3.26.32-.51,0-1.07-.01-1.7-.04-.63-.03-1.27-.05-1.94-.06-.67-.01-1.34-.03-2.02-.06-.68-.03-1.31-.04-1.9-.04s-1.07,0-1.52.02c-.45.01-.89.03-1.3.06s-.84.06-1.28.1c-.44.04-.94.09-1.5.14-.19.03-.33-.03-.44-.16-.11-.13-.17-.28-.18-.44-.01-.16.03-.32.12-.48.09-.16.25-.25.46-.28.64-.08,1.19-.19,1.66-.32.47-.13.85-.34,1.14-.62.29-.28.51-.63.64-1.06.13-.43.2-.99.2-1.68v-15.36Zm4.36,4.24c0,.27.07.51.22.72.15.21.39.32.74.32h.76c.88,0,1.69-.07,2.42-.22.73-.15,1.37-.42,1.9-.82.53-.4.95-.94,1.26-1.62s.46-1.57.46-2.66c0-1.84-.46-3.15-1.38-3.94-.92-.79-2.25-1.18-3.98-1.18h-1.36c-.51,0-.81.14-.9.42-.09.28-.14.75-.14,1.42v7.56Zm0,8.04c0,1.44.05,2.58.14,3.42s.3,1.47.62,1.88c.32.41.78.67,1.38.78s1.41.16,2.42.16c1.6,0,2.75-.44,3.46-1.32s1.06-2.21,1.06-4c0-1.28-.19-2.33-.56-3.14-.37-.81-.87-1.45-1.5-1.9-.63-.45-1.37-.77-2.22-.94-.85-.17-1.76-.26-2.72-.26h-.76c-.53,0-.89.17-1.06.52-.17.35-.26.77-.26,1.28v3.52Z"/><path class="cls-1" d="m160.96,346.14c.08.16.18.23.3.2.12-.03.21-.09.26-.2.83-1.63,1.55-3.19,2.18-4.7.62-1.51,1.18-2.95,1.66-4.34.19-.45.28-.85.28-1.2,0-.29-.07-.53-.22-.72-.15-.19-.33-.33-.56-.44-.23-.11-.47-.19-.72-.24-.25-.05-.47-.09-.66-.12-.16-.03-.27-.1-.34-.22-.07-.12-.1-.25-.1-.38s.04-.25.12-.36c.08-.11.19-.16.32-.16.51,0,1.03.03,1.56.1.53.07,1.07.1,1.6.1.61,0,1.24-.03,1.88-.1.64-.07,1.15-.1,1.52-.1.13,0,.23.05.3.16.07.11.1.24.1.4,0,.13-.03.26-.1.38s-.17.18-.3.18c-.4.05-.73.15-1,.28s-.49.33-.68.58c-.19.25-.37.57-.56.96-.19.39-.4.85-.64,1.38-.77,1.68-1.57,3.47-2.4,5.38-.83,1.91-1.71,3.86-2.64,5.86-.85,1.87-1.73,3.7-2.62,5.5-.89,1.8-1.75,3.49-2.58,5.06-.21.4-.48.86-.8,1.38-.32.52-.7,1.01-1.14,1.48-.44.47-.94.86-1.5,1.18-.56.32-1.17.48-1.84.48-.61,0-1.2-.17-1.76-.5-.56-.33-.84-.87-.84-1.62,0-.56.17-1.04.52-1.44s.8-.6,1.36-.6c.24,0,.43.05.56.14.13.09.26.19.38.3.12.11.25.21.4.3.15.09.33.14.54.14.29,0,.63-.19,1-.56.37-.37.77-.85,1.18-1.42.41-.57.83-1.21,1.24-1.92.41-.71.79-1.39,1.14-2.06s.65-1.27.9-1.8c.25-.53.43-.92.54-1.16.13-.32.2-.6.2-.84,0-.27-.05-.51-.16-.72-.85-1.76-1.8-3.72-2.84-5.88-1.04-2.16-2.03-4.32-2.96-6.48-.27-.64-.51-1.16-.72-1.56s-.43-.72-.66-.96c-.23-.24-.49-.43-.78-.56-.29-.13-.67-.24-1.12-.32-.13-.03-.23-.1-.3-.22-.07-.12-.1-.25-.1-.38s.04-.25.12-.36c.08-.11.19-.16.32-.16.83,0,1.62.03,2.38.1.76.07,1.53.1,2.3.1s1.53-.03,2.28-.1c.75-.07,1.51-.1,2.28-.1.13,0,.23.05.3.16.07.11.1.23.1.36s-.03.26-.1.38c-.07.12-.17.19-.3.22-.85.11-1.45.27-1.8.48-.35.21-.52.51-.52.88,0,.53.12,1.09.36,1.68.56,1.49,1.17,2.99,1.84,4.48.67,1.49,1.35,2.91,2.04,4.24Z"/><path class="cls-1" d="m186.16,329.7c0,.8.17,1.47.5,2.02.33.55.76,1.01,1.28,1.38.52.37,1.09.7,1.72.98.62.28,1.23.55,1.82.82,1.01.48,2.02.99,3.02,1.52,1,.53,1.9,1.15,2.7,1.86.8.71,1.45,1.55,1.94,2.52.49.97.74,2.15.74,3.54s-.29,2.55-.86,3.5c-.57.95-1.32,1.72-2.24,2.32s-1.95,1.03-3.1,1.3c-1.15.27-2.29.4-3.44.4-.75,0-1.59-.11-2.52-.34-.93-.23-1.79-.57-2.56-1.02-.13-.05-.26-.11-.38-.16-.12-.05-.27-.08-.46-.08s-.39.08-.6.24c-.21.16-.4.44-.56.84-.08.16-.19.27-.32.32-.13.05-.27.07-.42.06-.15-.01-.27-.06-.36-.14-.09-.08-.14-.17-.14-.28.08-.59.15-1.22.22-1.9.07-.68.1-1.37.1-2.06s-.02-1.39-.06-2.08c-.04-.69-.11-1.41-.22-2.16-.03-.16.03-.29.16-.4.13-.11.28-.17.44-.18.16-.01.31.01.46.08.15.07.23.18.26.34.16,1.09.45,2.09.88,2.98.43.89.96,1.65,1.6,2.28.64.63,1.37,1.11,2.18,1.46.81.35,1.7.52,2.66.52.72,0,1.41-.1,2.06-.3.65-.2,1.23-.49,1.74-.88.51-.39.91-.86,1.2-1.42.29-.56.44-1.21.44-1.96,0-.96-.21-1.8-.62-2.52-.41-.72-.93-1.34-1.54-1.86s-1.29-.97-2.04-1.36c-.75-.39-1.45-.74-2.12-1.06-.88-.4-1.76-.81-2.64-1.24-.88-.43-1.67-.94-2.36-1.54-.69-.6-1.25-1.32-1.68-2.16-.43-.84-.64-1.89-.64-3.14s.26-2.35.78-3.22,1.21-1.57,2.06-2.1c.85-.53,1.83-.92,2.92-1.16,1.09-.24,2.23-.36,3.4-.36.75,0,1.38.05,1.9.14.52.09,1.1.25,1.74.46.35.11.63.19.86.26.23.07.45.1.66.1.32,0,.55-.13.68-.4.05-.11.15-.18.3-.22s.29-.05.42-.04c.13.01.25.05.36.1.11.05.15.13.12.24-.13.48-.22.96-.26,1.44-.04.48-.06.99-.06,1.52,0,.69.04,1.32.12,1.88s.15,1.23.2,2c0,.08-.05.15-.16.22-.11.07-.23.11-.38.12-.15.01-.29,0-.42-.06-.13-.05-.21-.15-.24-.28-.27-1.17-.56-2.14-.88-2.9-.32-.76-.72-1.35-1.2-1.78-.48-.43-1.06-.72-1.74-.88-.68-.16-1.5-.24-2.46-.24-.67,0-1.3.09-1.9.26-.6.17-1.13.43-1.58.78-.45.35-.81.78-1.08,1.3s-.4,1.11-.4,1.78Z"/><path class="cls-1" d="m206.88,341.1c-.13,0-.21.05-.22.14-.01.09-.02.21-.02.34,0,1.39.15,2.56.46,3.52.31.96.73,1.74,1.28,2.34s1.2,1.03,1.96,1.3c.76.27,1.58.4,2.46.4s1.79-.07,2.64-.22c.85-.15,1.59-.47,2.2-.98.13-.11.27-.15.42-.12.15.03.27.09.36.2.09.11.15.23.18.36.03.13,0,.25-.08.36-.85,1.12-1.81,1.89-2.88,2.32-1.07.43-2.39.64-3.96.64s-2.98-.24-4.14-.72-2.12-1.15-2.88-2.02c-.76-.87-1.32-1.88-1.68-3.04-.36-1.16-.54-2.42-.54-3.78s.22-2.55.66-3.72c.44-1.17,1.06-2.19,1.86-3.04.8-.85,1.75-1.53,2.84-2.04,1.09-.51,2.31-.76,3.64-.76,1.12,0,2.14.19,3.06.58.92.39,1.7.92,2.34,1.6s1.14,1.49,1.5,2.44c.36.95.54,1.97.54,3.06,0,.56-.2.84-.6.84h-11.4Zm7.32-1.4c.37,0,.59-.13.64-.4.05-.27.08-.59.08-.96,0-.56-.09-1.1-.26-1.62-.17-.52-.42-.98-.74-1.38s-.71-.72-1.16-.96c-.45-.24-.97-.36-1.56-.36-.72,0-1.34.13-1.86.38s-.96.59-1.32,1c-.36.41-.63.9-.82,1.46-.19.56-.32,1.15-.4,1.76-.05.32-.07.58-.06.78.01.2.07.3.18.3h7.28Z"/><path class="cls-1" d="m228,346.46c0,.67.01,1.23.04,1.68.03.45.1.83.22,1.12.12.29.32.52.6.68.28.16.67.28,1.18.36.16.03.28.1.36.22.08.12.12.26.12.42,0,.13-.04.26-.12.38s-.2.18-.36.18c-.27,0-.77-.05-1.5-.14-.73-.09-1.5-.14-2.3-.14-.85,0-1.68.05-2.48.14s-1.55.14-2.24.14c-.13,0-.24-.06-.32-.18s-.12-.25-.12-.38c0-.16.04-.3.12-.42.08-.12.2-.19.36-.22.67-.08,1.18-.19,1.54-.32.36-.13.62-.33.8-.6.17-.27.27-.61.3-1.04.03-.43.04-.97.04-1.64v-5.04c0-1.31-.01-2.39-.04-3.26-.03-.87-.12-1.55-.28-2.06-.16-.51-.41-.86-.76-1.06-.35-.2-.84-.3-1.48-.3-.16,0-.29-.05-.38-.16-.09-.11-.14-.23-.14-.36,0-.16.05-.29.14-.4.09-.11.22-.16.38-.16.51,0,1.25-.08,2.22-.24.97-.16,1.97-.39,2.98-.68.37-.11.65-.03.84.22.19.25.28.54.28.86v1.6c0,.05.02.09.06.1.04.01.07,0,.1-.06.19-.29.45-.62.78-.98.33-.36.73-.7,1.2-1.02.47-.32.99-.59,1.58-.8.59-.21,1.24-.32,1.96-.32,2,0,3.57.55,4.7,1.66,1.13,1.11,1.7,2.9,1.7,5.38v6.84c0,.72.02,1.31.06,1.76.04.45.13.82.28,1.1.15.28.37.49.68.64.31.15.74.26,1.3.34.16.03.28.1.36.22.08.12.12.26.12.42,0,.13-.04.26-.12.38s-.2.18-.36.18c-.35,0-.91-.05-1.7-.14-.79-.09-1.58-.14-2.38-.14-.85,0-1.67.05-2.44.14s-1.41.14-1.92.14c-.13,0-.24-.06-.32-.18s-.12-.25-.12-.38c0-.16.04-.3.12-.42.08-.12.2-.19.36-.22.59-.08,1.03-.2,1.34-.36.31-.16.53-.38.68-.66.15-.28.23-.63.26-1.04.03-.41.04-.93.04-1.54v-6.08c0-.67-.03-1.33-.08-2-.05-.67-.2-1.27-.44-1.8-.24-.53-.59-.97-1.04-1.32-.45-.35-1.08-.52-1.88-.52s-1.5.13-2.1.38c-.6.25-1.11.59-1.52,1.02-.41.43-.73.93-.94,1.5-.21.57-.32,1.18-.32,1.82v6.76Z"/><path class="cls-1" d="m257.76,333.18c-.08.29-.15.65-.22,1.08-.07.43-.1.88-.1,1.36,0,.51.01,1.03.04,1.58.03.55.04.97.04,1.26,0,.08-.05.15-.16.2-.11.05-.23.09-.36.1-.13.01-.25,0-.36-.04s-.17-.1-.2-.18c-.29-1.41-.77-2.5-1.44-3.26-.67-.76-1.73-1.14-3.2-1.14-.99,0-1.8.25-2.44.74-.64.49-.96,1.15-.96,1.98,0,.69.27,1.23.8,1.6.53.37,1.24.72,2.12,1.04.37.13.82.3,1.34.5.52.2.94.37,1.26.5.69.32,1.34.65,1.94,1,.6.35,1.12.75,1.56,1.22.44.47.79.99,1.04,1.58.25.59.38,1.27.38,2.04,0,1.01-.21,1.86-.64,2.54-.43.68-.97,1.23-1.64,1.64s-1.43.71-2.28.9c-.85.19-1.69.28-2.52.28-.69,0-1.47-.08-2.32-.24-.85-.16-1.6-.39-2.24-.68-.16-.05-.33-.03-.5.08-.17.11-.29.31-.34.6,0,.08-.06.13-.18.16-.12.03-.25.04-.38.04-.11,0-.21-.02-.32-.06s-.16-.1-.16-.18c0-.21.03-.51.08-.88.05-.37.08-.72.08-1.04s-.02-.67-.06-1.06c-.04-.39-.08-.77-.12-1.14-.04-.37-.07-.71-.1-1-.03-.29-.04-.51-.04-.64,0-.11.05-.19.16-.24.11-.05.23-.09.36-.1.13-.01.26,0,.38.04.12.04.19.11.22.22.19.77.43,1.45.72,2.04.29.59.66,1.08,1.1,1.48.44.4.97.7,1.6.9.63.2,1.38.3,2.26.3.96,0,1.74-.27,2.34-.8.6-.53.9-1.28.9-2.24,0-.85-.3-1.53-.9-2.02-.6-.49-1.3-.93-2.1-1.3-.37-.16-.75-.32-1.14-.48-.39-.16-.78-.32-1.18-.48-.59-.24-1.17-.49-1.74-.74-.57-.25-1.08-.57-1.52-.94-.44-.37-.79-.84-1.06-1.4s-.4-1.25-.4-2.08c0-.96.21-1.77.62-2.44.41-.67.95-1.21,1.6-1.62.65-.41,1.38-.71,2.18-.9.8-.19,1.59-.28,2.36-.28s1.41.09,1.98.26c.57.17,1.21.49,1.9.94.11.05.25.05.42-.02.17-.07.31-.29.42-.66.03-.11.11-.17.24-.2.13-.03.27-.03.4-.02.13.01.25.05.36.1.11.05.15.12.12.2Z"/><path class="cls-1" d="m279.6,341.62c0,1.63-.23,3.07-.68,4.32-.45,1.25-1.1,2.31-1.94,3.16-.84.85-1.85,1.5-3.02,1.94-1.17.44-2.48.66-3.92.66-1.25,0-2.41-.21-3.48-.62-1.07-.41-1.99-1.03-2.76-1.84-.77-.81-1.39-1.84-1.84-3.08-.45-1.24-.68-2.7-.68-4.38,0-1.36.23-2.61.68-3.74.45-1.13,1.09-2.1,1.9-2.9.81-.8,1.79-1.43,2.94-1.88,1.15-.45,2.4-.68,3.76-.68s2.51.2,3.62.6,2.06.98,2.86,1.74c.8.76,1.43,1.7,1.88,2.82.45,1.12.68,2.41.68,3.88Zm-4.2.44c0-1.01-.07-2-.2-2.96-.13-.96-.37-1.81-.72-2.56s-.83-1.35-1.44-1.8c-.61-.45-1.4-.68-2.36-.68-1.07,0-1.93.23-2.6.68-.67.45-1.19,1.06-1.58,1.82-.39.76-.65,1.62-.8,2.58-.15.96-.22,1.96-.22,3,0,.91.07,1.84.2,2.8s.39,1.83.76,2.6c.37.77.89,1.41,1.54,1.92.65.51,1.49.76,2.5.76s1.88-.24,2.52-.72,1.14-1.11,1.5-1.88c.36-.77.6-1.65.72-2.62.12-.97.18-1.95.18-2.94Z"/><path class="cls-1" d="m288.88,346.46c0,.67.02,1.23.06,1.68.04.45.18.83.42,1.12.24.29.61.52,1.12.68.51.16,1.24.28,2.2.36.16.03.28.1.36.22.08.12.12.26.12.42,0,.13-.04.26-.12.38s-.2.18-.36.18c-1.15,0-2.16-.05-3.04-.14s-1.72-.14-2.52-.14c-.85,0-1.7.05-2.54.14s-1.69.14-2.54.14c-.13,0-.24-.06-.32-.18s-.12-.25-.12-.38c0-.16.04-.3.12-.42.08-.12.2-.19.36-.22.75-.08,1.33-.2,1.74-.36.41-.16.71-.38.9-.66.19-.28.3-.63.34-1.04.04-.41.06-.93.06-1.54v-5.84c0-1.31-.03-2.34-.08-3.1-.05-.76-.18-1.35-.38-1.76-.2-.41-.51-.69-.94-.82-.43-.13-1.01-.23-1.76-.28-.13,0-.23-.07-.3-.2-.07-.13-.1-.27-.1-.4s.03-.27.1-.4c.07-.13.18-.2.34-.2.53-.05,1.27-.11,2.22-.18.95-.07,1.91-.23,2.9-.5.37-.11.68-.12.92-.04.24.08.35.31.32.68l-.08,2.56c0,.05.01.09.04.1.03.01.07,0,.12-.06.56-1.12,1.25-2.01,2.06-2.68.81-.67,1.9-1,3.26-1,1.12,0,1.95.29,2.48.86.53.57.8,1.27.8,2.1,0,.45-.17.87-.52,1.24-.35.37-.84.56-1.48.56s-1.04-.15-1.28-.44c-.24-.29-.36-.61-.36-.96,0-.37-.07-.67-.22-.88-.15-.21-.46-.32-.94-.32-.51,0-.97.17-1.38.5-.41.33-.77.73-1.06,1.18-.29.45-.52.92-.68,1.4s-.24.85-.24,1.12v7.52Z"/><path class="cls-1" d="m317.88,324.42c.21,0,.42.03.62.08.2.05.27.27.22.64-.08.77-.11,1.67-.08,2.68.03,1.01.07,1.95.12,2.8,0,.11-.06.19-.18.26-.12.07-.26.11-.42.12-.16.01-.31-.01-.46-.08-.15-.07-.23-.17-.26-.3-.19-1.04-.38-1.85-.56-2.44-.19-.59-.45-1.03-.78-1.34-.33-.31-.79-.5-1.36-.58s-1.33-.13-2.26-.16h-2.4c-.69,0-1.25.01-1.66.04-.41.03-.74.13-.98.3-.24.17-.4.45-.48.82-.08.37-.12.89-.12,1.56v7c0,.37.07.61.2.7.13.09.27.14.4.14,1.23,0,2.19-.05,2.9-.16.71-.11,1.24-.3,1.6-.58.36-.28.6-.65.72-1.1.12-.45.22-1.04.3-1.76.03-.16.11-.28.24-.36.13-.08.28-.12.44-.12s.31.04.44.12c.13.08.2.2.2.36,0,.43-.01.81-.04,1.14-.03.33-.05.67-.08,1-.03.33-.05.68-.08,1.04-.03.36-.04.78-.04,1.26,0,.8.04,1.53.12,2.18.08.65.12,1.45.12,2.38,0,.13-.07.23-.2.3-.13.07-.28.09-.44.08-.16-.01-.31-.05-.44-.12-.13-.07-.21-.18-.24-.34-.08-.77-.18-1.4-.3-1.88-.12-.48-.36-.85-.72-1.1s-.89-.43-1.6-.52c-.71-.09-1.67-.14-2.9-.14-.13,0-.27.05-.4.14-.13.09-.2.29-.2.58v6.72c0,.91.07,1.63.22,2.18.15.55.4.97.76,1.28.36.31.83.52,1.42.64s1.32.22,2.2.3c.19,0,.32.07.4.22.08.15.12.31.12.5,0,.16-.05.31-.14.44s-.23.2-.42.2c-1.44,0-2.67-.05-3.7-.16-1.03-.11-2.02-.16-2.98-.16-1.01,0-2.01.05-3,.16-.99.11-1.95.16-2.88.16-.16,0-.28-.07-.36-.2s-.13-.28-.14-.44c-.01-.16.02-.31.1-.46.08-.15.21-.23.4-.26.75-.08,1.36-.19,1.84-.32.48-.13.85-.35,1.12-.64.27-.29.45-.68.54-1.16.09-.48.14-1.12.14-1.92v-15.04c0-.59-.02-1.16-.06-1.72-.04-.56-.13-1.08-.26-1.56s-.34-.89-.62-1.24c-.28-.35-.66-.59-1.14-.72-.29-.08-.6-.15-.92-.2-.32-.05-.63-.09-.92-.12-.16,0-.28-.07-.36-.2-.08-.13-.12-.28-.12-.44s.04-.31.12-.44c.08-.13.2-.2.36-.2.91,0,1.72.03,2.44.08.72.05,1.56.08,2.52.08h14.36Z"/><path class="cls-1" d="m337.84,344.34c0,1.09.02,1.98.06,2.66.04.68.16,1.21.36,1.6.2.39.5.65.9.8.4.15.96.22,1.68.22.11,0,.19.06.26.18s.1.26.1.42c0,.13-.03.27-.08.4-.05.13-.15.2-.28.2-.21,0-.39,0-.54.02-.15.01-.29.03-.44.04-.15.01-.31.03-.48.06-.17.03-.39.05-.66.08-.21.03-.51.08-.9.16-.39.08-.78.16-1.18.24-.4.08-.77.15-1.12.2-.35.05-.57.08-.68.08-.48,0-.72-.75-.72-2.24,0-.05-.03-.09-.08-.1-.05-.01-.11,0-.16.06-.99.85-1.98,1.45-2.98,1.78s-1.97.5-2.9.5c-1.23,0-2.24-.15-3.04-.46s-1.43-.75-1.88-1.34c-.45-.59-.77-1.31-.96-2.18-.19-.87-.28-1.85-.28-2.94v-4.52c0-1.15-.03-2.04-.08-2.68-.05-.64-.17-1.12-.36-1.44-.19-.32-.47-.53-.84-.64-.37-.11-.88-.2-1.52-.28-.13,0-.23-.07-.3-.2-.07-.13-.11-.27-.12-.4-.01-.13.01-.27.08-.4.07-.13.18-.2.34-.2.27-.03.62-.07,1.06-.12.44-.05.91-.13,1.42-.24.51-.11,1.03-.22,1.58-.34s1.06-.25,1.54-.38c.37-.11.63-.05.76.18.13.23.2.42.2.58v9.52c0,1.07.05,1.97.14,2.72.09.75.26,1.36.5,1.84s.57.83,1,1.04c.43.21.96.32,1.6.32.91,0,1.85-.16,2.84-.48.99-.32,1.73-.71,2.24-1.16.08-.08.13-.23.14-.44.01-.21.02-.37.02-.48v-6.32c0-1.15-.01-2.04-.04-2.68-.03-.64-.12-1.12-.28-1.44-.16-.32-.41-.53-.74-.64-.33-.11-.82-.2-1.46-.28-.13-.03-.23-.1-.3-.22-.07-.12-.11-.25-.12-.4-.01-.15.01-.28.08-.4s.18-.18.34-.18c.96-.05,1.84-.17,2.64-.36.8-.19,1.69-.43,2.68-.72.37-.11.63-.05.76.18.13.23.2.42.2.58v10.64Z"/></g><g><line class="cls-6" x1="461.58" y1="340.38" x2="352.26" y2="340.38"/><line class="cls-6" x1="117.58" y1="340.38" x2="8.26" y2="340.38"/></g></g></svg>