<?xml version="1.0" encoding="UTF-8" standalone="no"?>
<!DOCTYPE svg PUBLIC "-//W3C//DTD SVG 1.1//EN" "http://www.w3.org/Graphics/SVG/1.1/DTD/svg11.dtd">
<svg width="100%" height="100%" viewBox="0 0 3004 870" version="1.1" xmlns="http://www.w3.org/2000/svg" xmlns:xlink="http://www.w3.org/1999/xlink" xml:space="preserve" xmlns:serif="http://www.serif.com/" style="fill-rule:evenodd;clip-rule:evenodd;stroke-linejoin:round;stroke-miterlimit:1.41421;">
    <g id="Artboard1" transform="matrix(1.07585,0,0,0.543622,145.344,10.0071)">
        <rect x="-135.096" y="-18.408" width="2791.87" height="1598.63" style="fill:none;"/>
        <g id="Layer-1" serif:id="Layer 1" transform="matrix(3.8729,0,0,7.66463,-8.68482,-570.927)">
            <g transform="matrix(1,0,0,1,159.887,-98.694)">
                <g transform="matrix(1,0,0,1,76.6167,250.106)">
                    <path d="M0,82.062C0,82.736 0.394,83.751 1.183,85.101C1.969,86.455 3.068,87.751 4.478,88.988C5.885,90.23 7.575,91.33 9.547,92.283C11.517,93.244 13.687,93.72 16.052,93.72C20.107,93.72 23.487,92.791 26.191,90.933C28.894,89.074 31.033,86.539 32.612,83.33C34.188,80.117 35.286,76.427 35.907,72.261C36.525,68.095 36.836,63.701 36.836,59.08C36.836,55.138 36.608,51.451 36.16,48.013C35.708,44.578 34.893,41.564 33.71,38.974C32.527,36.384 30.864,34.328 28.725,32.804C26.584,31.285 23.768,30.525 20.277,30.525C17.346,30.525 14.642,31.089 12.167,32.214C9.687,33.339 7.546,34.693 5.745,36.269C3.942,37.849 2.535,39.593 1.521,41.509C0.507,43.423 0,45.113 0,46.578L0,82.062ZM-15.884,13.289C-15.884,8.447 -15.941,4.56 -16.053,1.63C-16.166,-1.299 -16.588,-3.524 -17.32,-5.043C-18.053,-6.565 -19.208,-7.606 -20.783,-8.17C-22.362,-8.733 -24.614,-9.184 -27.542,-9.522C-28.107,-9.522 -28.53,-9.803 -28.81,-10.368C-29.092,-10.93 -29.261,-11.493 -29.317,-12.057C-29.375,-12.62 -29.261,-13.182 -28.979,-13.747C-28.699,-14.309 -28.218,-14.592 -27.542,-14.592C-24.277,-14.817 -20.588,-15.155 -16.475,-15.606C-12.364,-16.053 -8.224,-16.899 -4.056,-18.141C-2.479,-18.588 -1.437,-18.504 -0.929,-17.885C-0.422,-17.266 -0.113,-16.62 0,-15.944L0,32.552C0,32.779 0.055,32.89 0.169,32.89C0.394,32.89 0.563,32.779 0.676,32.552C2.814,29.285 5.885,26.357 9.885,23.765C13.882,21.175 18.812,19.878 24.67,19.878C29.512,19.878 33.794,20.921 37.513,23.003C41.229,25.089 44.355,27.847 46.89,31.285C49.424,34.722 51.339,38.693 52.635,43.199C53.928,47.703 54.579,52.378 54.579,57.22C54.579,64.656 53.422,71.107 51.114,76.57C48.804,82.035 45.678,86.539 41.737,90.087C37.792,93.636 33.229,96.283 28.049,98.029C22.867,99.775 17.405,100.65 11.659,100.65C7.715,100.65 3.491,100.394 -1.014,99.886C-5.521,99.382 -10.476,98.169 -15.884,96.255L-15.884,13.289Z" style="fill:rgb(64,63,65);fill-rule:nonzero;"/>
                </g>
                <g transform="matrix(1,0,0,1,186.956,320.677)">
                    <path d="M0,-20.615C1.576,-20.615 2.476,-21.179 2.703,-22.304C2.927,-23.429 3.041,-24.783 3.041,-26.361C3.041,-28.726 2.674,-31.008 1.943,-33.205C1.208,-35.4 0.168,-37.344 -1.183,-39.033C-2.535,-40.724 -4.169,-42.076 -6.083,-43.09C-8,-44.103 -10.197,-44.611 -12.673,-44.611C-15.715,-44.611 -18.334,-44.072 -20.531,-43.004C-22.728,-41.933 -24.586,-40.525 -26.107,-38.779C-27.627,-37.033 -28.784,-34.978 -29.57,-32.613C-30.36,-30.248 -30.922,-27.767 -31.26,-25.179C-31.488,-23.826 -31.572,-22.726 -31.514,-21.883C-31.458,-21.037 -31.205,-20.615 -30.753,-20.615L0,-20.615ZM-30.922,-14.701C-31.488,-14.701 -31.796,-14.502 -31.852,-14.111C-31.91,-13.713 -31.937,-13.236 -31.937,-12.674C-31.937,-6.816 -31.29,-1.859 -29.993,2.198C-28.699,6.25 -26.896,9.545 -24.586,12.08C-22.278,14.615 -19.517,16.448 -16.307,17.573C-13.095,18.699 -9.632,19.262 -5.914,19.262C-2.086,19.262 1.631,18.951 5.237,18.332C8.841,17.715 11.939,16.334 14.531,14.194C15.094,13.744 15.685,13.576 16.306,13.684C16.923,13.801 17.43,14.08 17.826,14.53C18.22,14.983 18.473,15.49 18.587,16.051C18.698,16.615 18.587,17.125 18.249,17.573C14.643,22.303 10.587,25.573 6.082,27.373C1.576,29.174 -4,30.078 -10.646,30.078C-17.405,30.078 -23.234,29.063 -28.134,27.035C-33.035,25.008 -37.09,22.164 -40.301,18.502C-43.51,14.844 -45.876,10.561 -47.397,5.658C-48.918,0.76 -49.679,-4.562 -49.679,-10.308C-49.679,-15.826 -48.749,-21.064 -46.89,-26.023C-45.032,-30.978 -42.413,-35.258 -39.033,-38.865C-35.654,-42.469 -31.656,-45.34 -27.036,-47.482C-22.419,-49.621 -17.293,-50.693 -11.66,-50.693C-6.928,-50.693 -2.62,-49.875 1.268,-48.242C5.153,-46.607 8.449,-44.357 11.151,-41.484C13.855,-38.611 15.967,-35.174 17.488,-31.176C19.01,-27.176 19.77,-22.869 19.77,-18.25C19.77,-15.886 18.924,-14.701 17.235,-14.701L-30.922,-14.701Z" style="fill:rgb(64,63,65);fill-rule:nonzero;"/>
                </g>
                <g transform="matrix(1,0,0,1,257.249,306.654)">
                    <path d="M0,7.432C0,6.194 -0.059,5.436 -0.169,5.151C-0.283,4.869 -0.565,4.729 -1.014,4.729C-10.252,5.518 -17.095,7.461 -21.544,10.559C-25.995,13.659 -28.219,17.629 -28.219,22.471C-28.219,25.85 -27.374,28.698 -25.685,31.006C-23.995,33.315 -21.181,34.467 -17.236,34.467C-14.646,34.467 -11.913,33.963 -9.041,32.948C-6.167,31.932 -3.606,30.471 -1.352,28.553C-0.451,27.655 0,26.754 0,25.85L0,7.432ZM15.883,24.161C15.883,28.104 16.248,30.864 16.981,32.44C17.713,34.018 19.149,34.807 21.291,34.807C22.528,34.807 23.542,34.664 24.332,34.385C25.119,34.104 26.246,33.514 27.711,32.61C28.049,32.385 28.414,32.385 28.809,32.61C29.204,32.838 29.542,33.145 29.823,33.539C30.104,33.936 30.301,34.385 30.416,34.889C30.526,35.397 30.416,35.821 30.077,36.157C25.684,41.453 20.501,44.102 14.532,44.102C11.263,44.102 8.475,43.227 6.167,41.481C3.857,39.735 2.138,37.678 1.014,35.313C0.786,34.75 0.449,34.696 0,35.145C-2.931,37.739 -6.336,39.877 -10.223,41.567C-14.11,43.256 -18.983,44.102 -24.839,44.102C-31.26,44.102 -36.219,42.385 -39.708,38.946C-43.202,35.51 -44.947,30.639 -44.947,24.328C-44.947,16.221 -41.174,9.996 -33.625,5.661C-26.08,1.323 -15.097,-0.847 -0.676,-0.847C-0.451,-0.847 -0.283,-1.127 -0.169,-1.691C-0.059,-2.254 0,-3.552 0,-5.578L0,-10.14C0,-12.955 -0.227,-15.605 -0.676,-18.082C-1.128,-20.558 -1.888,-22.728 -2.957,-24.588C-4.029,-26.445 -5.521,-27.91 -7.435,-28.98C-9.353,-30.048 -11.717,-30.588 -14.532,-30.588C-18.701,-30.588 -22.081,-29.767 -24.67,-28.134C-27.263,-26.502 -28.557,-24.388 -28.557,-21.798C-28.557,-20.558 -28.164,-19.349 -27.374,-18.168C-26.587,-16.984 -26.191,-15.773 -26.191,-14.535C-26.191,-12.955 -26.98,-11.435 -28.557,-9.97C-30.136,-8.506 -32.05,-7.777 -34.302,-7.777C-37.343,-7.777 -39.513,-8.591 -40.807,-10.224C-42.104,-11.857 -42.751,-13.857 -42.751,-16.224C-42.751,-19.039 -41.964,-21.716 -40.385,-24.252C-38.809,-26.785 -36.667,-28.953 -33.963,-30.756C-31.26,-32.556 -28.107,-33.992 -24.501,-35.064C-20.897,-36.134 -17.124,-36.67 -13.18,-36.67C-4.169,-36.67 2.928,-34.584 8.11,-30.418C13.291,-26.248 15.883,-19.32 15.883,-9.634L15.883,24.161Z" style="fill:rgb(64,63,65);fill-rule:nonzero;"/>
                </g>
                <g transform="matrix(1,0,0,1,302.871,313.074)">
                    <path d="M0,-5.408C0,-1.127 0.507,2.955 1.521,6.844C2.535,10.727 4.082,14.166 6.168,17.149C8.251,20.137 10.926,22.5 14.194,24.244C17.46,25.994 21.402,26.865 26.022,26.865C29.963,26.865 33.821,26.555 37.597,25.936C41.37,25.319 44.55,23.883 47.144,21.629C47.593,21.18 48.1,21.035 48.663,21.205C49.227,21.373 49.732,21.656 50.186,22.051C50.634,22.447 50.945,22.924 51.114,23.487C51.282,24.051 51.198,24.559 50.86,25.008C47.144,29.965 42.806,33.315 37.852,35.061C32.892,36.807 27.036,37.682 20.277,37.682C15.771,37.682 11.264,37.004 6.759,35.651C2.252,34.301 -1.833,32.047 -5.491,28.893C-9.153,25.74 -12.11,21.543 -14.363,16.305C-16.617,11.069 -17.742,4.561 -17.742,-3.213C-17.742,-8.73 -16.813,-13.941 -14.954,-18.844C-13.096,-23.742 -10.392,-27.967 -6.843,-31.515C-3.295,-35.062 1.069,-37.879 6.253,-39.965C11.433,-42.047 17.404,-43.09 24.163,-43.09C27.429,-43.09 30.609,-42.693 33.71,-41.906C36.808,-41.117 39.566,-39.965 41.99,-38.443C44.411,-36.922 46.354,-35.033 47.818,-32.783C49.282,-30.527 50.015,-27.994 50.015,-25.179C50.015,-23.15 49.341,-21.234 47.988,-19.433C46.636,-17.631 44.496,-16.73 41.566,-16.73C39.203,-16.73 37.259,-17.347 35.738,-18.588C34.217,-19.826 33.456,-21.631 33.456,-23.994C33.456,-25.572 33.879,-26.869 34.725,-27.883C35.569,-28.896 35.99,-29.853 35.99,-30.754C35.99,-32.783 34.64,-34.33 31.938,-35.4C29.232,-36.469 26.247,-37.008 22.979,-37.008C18.697,-37.008 15.124,-36.103 12.251,-34.303C9.378,-32.498 7.013,-30.105 5.154,-27.121C3.296,-24.137 1.97,-20.758 1.184,-16.982C0.394,-13.209 0,-9.351 0,-5.408" style="fill:rgb(64,63,65);fill-rule:nonzero;"/>
                </g>
                <g transform="matrix(1,0,0,1,415.574,310.709)">
                    <path d="M0,-0.678C0,-4.957 -0.281,-9.127 -0.845,-13.18C-1.408,-17.237 -2.423,-20.84 -3.886,-23.996C-5.351,-27.149 -7.379,-29.682 -9.969,-31.6C-12.561,-33.514 -15.883,-34.473 -19.938,-34.473C-24.444,-34.473 -28.106,-33.514 -30.921,-31.6C-33.738,-29.682 -35.964,-27.121 -37.596,-23.912C-39.229,-20.703 -40.357,-17.069 -40.975,-13.014C-41.597,-8.957 -41.904,-4.733 -41.904,-0.34C-41.904,3.492 -41.624,7.433 -41.06,11.488C-40.497,15.545 -39.428,19.205 -37.849,22.47C-36.272,25.738 -34.105,28.443 -31.344,30.582C-28.584,32.722 -25.064,33.791 -20.783,33.791C-16.389,33.791 -12.841,32.779 -10.139,30.752C-7.434,28.722 -5.321,26.078 -3.802,22.808C-2.28,19.545 -1.268,15.855 -0.758,11.742C-0.252,7.631 0,3.492 0,-0.678M17.742,-2.537C17.742,4.338 16.785,10.418 14.871,15.713C12.953,21.01 10.224,25.459 6.676,29.062C3.127,32.668 -1.126,35.398 -6.082,37.256C-11.04,39.115 -16.559,40.047 -22.642,40.047C-27.938,40.047 -32.838,39.172 -37.342,37.426C-41.849,35.679 -45.734,33.09 -49.001,29.652C-52.269,26.218 -54.859,21.881 -56.774,16.642C-58.691,11.402 -59.646,5.236 -59.646,-1.862C-59.646,-7.608 -58.691,-12.871 -56.774,-17.66C-54.859,-22.448 -52.186,-26.532 -48.748,-29.91C-45.312,-33.289 -41.174,-35.936 -36.328,-37.852C-31.486,-39.766 -26.189,-40.725 -20.444,-40.725C-14.927,-40.725 -9.827,-39.879 -5.152,-38.19C-0.479,-36.5 3.55,-34.051 6.93,-30.84C10.31,-27.629 12.953,-23.66 14.871,-18.928C16.785,-14.196 17.742,-8.731 17.742,-2.537" style="fill:rgb(64,63,65);fill-rule:nonzero;"/>
                </g>
                <g transform="matrix(1,0,0,1,458.325,291.275)">
                    <path d="M0,37.344C0,40.16 0.057,42.526 0.169,44.44C0.28,46.358 0.592,47.932 1.1,49.172C1.604,50.412 2.449,51.367 3.635,52.043C4.816,52.721 6.476,53.225 8.617,53.565C9.294,53.678 9.799,53.989 10.139,54.492C10.476,55 10.644,55.592 10.644,56.268C10.644,56.832 10.476,57.367 10.139,57.871C9.799,58.381 9.294,58.635 8.617,58.635C7.488,58.635 5.376,58.438 2.281,58.043C-0.817,57.649 -4.055,57.449 -7.436,57.449C-11.042,57.449 -14.531,57.649 -17.911,58.043C-21.29,58.438 -24.445,58.635 -27.376,58.635C-27.939,58.635 -28.389,58.381 -28.726,57.871C-29.065,57.367 -29.233,56.832 -29.233,56.268C-29.233,55.592 -29.065,55 -28.726,54.492C-28.389,53.989 -27.88,53.678 -27.204,53.567C-24.392,53.225 -22.221,52.776 -20.699,52.213C-19.178,51.651 -18.056,50.807 -17.319,49.678C-16.591,48.553 -16.168,47.086 -16.052,45.285C-15.943,43.483 -15.884,41.172 -15.884,38.358L-15.884,17.067C-15.884,11.547 -15.943,6.955 -16.052,3.297C-16.168,-0.363 -16.561,-3.265 -17.237,-5.408C-17.911,-7.545 -18.982,-9.041 -20.445,-9.885C-21.911,-10.73 -23.996,-11.152 -26.698,-11.152C-27.376,-11.152 -27.91,-11.377 -28.303,-11.83C-28.698,-12.279 -28.895,-12.783 -28.895,-13.349C-28.895,-14.023 -28.698,-14.588 -28.303,-15.039C-27.91,-15.488 -27.376,-15.713 -26.698,-15.713C-24.56,-15.713 -21.435,-16.054 -17.319,-16.728C-13.211,-17.404 -9.013,-18.361 -4.732,-19.601C-3.154,-20.051 -1.973,-19.74 -1.185,-18.67C-0.396,-17.599 0,-16.39 0,-15.039L0,-8.279C0,-8.054 0.083,-7.912 0.255,-7.857C0.423,-7.799 0.562,-7.885 0.678,-8.109C1.462,-9.349 2.562,-10.73 3.972,-12.252C5.376,-13.771 7.065,-15.209 9.039,-16.558C11.011,-17.912 13.234,-19.037 15.713,-19.937C18.191,-20.838 20.954,-21.291 23.993,-21.291C32.442,-21.291 39.059,-18.951 43.848,-14.279C48.636,-9.601 51.029,-2.027 51.029,8.448L51.029,37.344C51.029,40.385 51.114,42.862 51.282,44.778C51.451,46.694 51.844,48.242 52.464,49.424C53.085,50.608 54.042,51.51 55.339,52.129C56.633,52.748 58.464,53.225 60.831,53.565C61.508,53.678 62.013,53.989 62.353,54.492C62.688,55 62.857,55.592 62.857,56.268C62.857,56.832 62.688,57.367 62.353,57.871C62.013,58.381 61.508,58.635 60.831,58.635C59.365,58.635 56.97,58.438 53.649,58.043C50.325,57.647 46.973,57.449 43.593,57.449C39.989,57.449 36.554,57.647 33.287,58.043C30.02,58.438 27.316,58.635 25.179,58.635C24.61,58.635 24.161,58.381 23.824,57.871C23.489,57.367 23.316,56.832 23.316,56.268C23.316,55.592 23.489,55 23.824,54.492C24.161,53.989 24.669,53.678 25.347,53.565C27.822,53.225 29.71,52.721 31.006,52.043C32.3,51.367 33.257,50.438 33.877,49.256C34.497,48.074 34.864,46.61 34.977,44.862C35.089,43.117 35.145,40.948 35.145,38.358L35.145,12.672C35.145,9.858 35.032,7.043 34.808,4.223C34.581,1.41 33.963,-1.125 32.95,-3.381C31.938,-5.631 30.473,-7.49 28.558,-8.955C26.641,-10.418 23.993,-11.152 20.614,-11.152C17.234,-11.152 14.277,-10.617 11.743,-9.547C9.208,-8.474 7.065,-7.039 5.324,-5.238C3.574,-3.435 2.251,-1.322 1.35,1.098C0.449,3.522 0,6.082 0,8.787L0,37.344Z" style="fill:rgb(64,63,65);fill-rule:nonzero;"/>
                </g>
            </g>
            <g transform="matrix(1.0199,0,0,1.0199,-193.82,31.7422)">
                <g transform="matrix(1,0,0,1,309.769,98.3419)">
                    <path d="M0,127.025C35.4,117.066 56.101,80.166 46.142,44.765C36.511,10.526 1.677,-9.957 -32.628,-2.255L-27.198,17.048C-3.528,12.306 20.245,26.563 26.889,50.181C33.86,74.965 19.369,100.801 -5.415,107.771C-30.2,114.744 -56.036,100.252 -63.007,75.467L-82.26,80.882C-72.303,116.283 -35.401,136.982 0,127.025" style="fill:rgb(128,130,133);fill-rule:nonzero;"/>
                </g>
                <g transform="matrix(1,0,0,1,225.746,98.4849)">
                    <path d="M0,72.402L19.473,66.924C17.605,46.545 29.402,26.977 48.667,19.309L43.236,0C13.386,10.801 -4.604,41.313 0,72.402" style="fill:rgb(209,211,212);fill-rule:nonzero;"/>
                </g>
                <g transform="matrix(1,0,0,1,198.289,71.1256)">
                    <path d="M0,107.485L19.359,102.039C13.574,66.494 34.153,31.39 68.427,19.303L62.998,0C18.115,15.135 -8.664,61.278 0,107.485" style="fill:rgb(209,211,212);fill-rule:nonzero;"/>
                </g>
                <g transform="matrix(1,0,0,1,259.025,167.044)">
                    <path d="M0,-103.959L-5.419,-123.224C-65.335,-103.801 -100.909,-42.025 -88.106,19.265L-68.802,13.835C-78.68,-36.815 -49.309,-87.558 0,-103.959" style="fill:rgb(209,211,212);fill-rule:nonzero;"/>
                </g>
            </g>
        </g>
    </g>
</svg>
