<svg xmlns="http://www.w3.org/2000/svg" viewBox="0 0 1296 249.95"><defs><style>.cls-1{fill:none;stroke:#ccc;stroke-miterlimit:10;stroke-width:0.5px;}.cls-2{fill:#fff;}.cls-3{fill:#528093;}.cls-4{fill:#ec1c24;}.cls-5{fill:#b4191e;}.cls-6{fill:#95171a;}</style></defs><title>Asset 13</title><g id="Layer_2" data-name="Layer 2"><g id="Layer_1-2" data-name="Layer 1"><line class="cls-1" y1="91.44" x2="545" y2="91.44"/><line class="cls-1" x1="780" y1="91.44" x2="1296" y2="91.44"/><path class="cls-2" d="M465.82,178.81c0-3.94,0-7.11-.13-9.49a14.34,14.34,0,0,0-1-5.44,4.85,4.85,0,0,0-2.82-2.55,27.08,27.08,0,0,0-5.51-1.1,1.1,1.1,0,0,1-1-.69,3.72,3.72,0,0,1-.41-1.37,2.45,2.45,0,0,1,.27-1.38,1.22,1.22,0,0,1,1.17-.69q4-.27,9-.82a56.85,56.85,0,0,0,10.12-2.07c1.28-.36,2.13-.29,2.54.21a3.31,3.31,0,0,1,.76,1.58v39.5c0,.18,0,.27.14.27a.44.44,0,0,0,.41-.27,25,25,0,0,1,7.5-7.16,21.67,21.67,0,0,1,12-3.16,21.12,21.12,0,0,1,10.46,2.54,24.06,24.06,0,0,1,7.63,6.74,30.1,30.1,0,0,1,4.68,9.71,40.84,40.84,0,0,1,1.59,11.41,40.3,40.3,0,0,1-2.83,15.76,30.53,30.53,0,0,1-7.63,11,31.48,31.48,0,0,1-11.15,6.47A41.58,41.58,0,0,1,488.25,250a93.31,93.31,0,0,1-10.32-.62,55,55,0,0,1-12.11-3Zm12.94,56a5.74,5.74,0,0,0,1,2.48,12.73,12.73,0,0,0,2.69,3.16,17.9,17.9,0,0,0,4.12,2.69,12,12,0,0,0,5.3,1.17,14.28,14.28,0,0,0,8.26-2.27,15.91,15.91,0,0,0,5.23-6.19,30.86,30.86,0,0,0,2.68-9,73.54,73.54,0,0,0,.76-10.73,70.67,70.67,0,0,0-.55-9,25.92,25.92,0,0,0-2-7.36,12.29,12.29,0,0,0-4.06-5,11.62,11.62,0,0,0-6.88-1.85,15.85,15.85,0,0,0-6.6,1.37,21.22,21.22,0,0,0-5.23,3.3,15,15,0,0,0-3.44,4.27,9,9,0,0,0-1.24,4.13Z"/><path class="cls-2" d="M543.43,213.49q-.69,0-.75.48a7.81,7.81,0,0,0-.07,1.17,40.07,40.07,0,0,0,1.58,12.11,21.46,21.46,0,0,0,4.4,8.05,16.36,16.36,0,0,0,6.74,4.47,25.37,25.37,0,0,0,8.47,1.37,54,54,0,0,0,9.08-.75,16,16,0,0,0,7.57-3.37,1.74,1.74,0,0,1,1.44-.42,2.11,2.11,0,0,1,1.24.69,2.65,2.65,0,0,1,.62,1.24,1.52,1.52,0,0,1-.27,1.24,23.71,23.71,0,0,1-9.91,8A36.79,36.79,0,0,1,560,250a37.18,37.18,0,0,1-14.25-2.48,26.15,26.15,0,0,1-9.9-6.95A28.26,28.26,0,0,1,530,230.07a43.66,43.66,0,0,1-1.86-13,36.18,36.18,0,0,1,2.27-12.79,30.67,30.67,0,0,1,16.17-17.48,29.44,29.44,0,0,1,12.52-2.61,27,27,0,0,1,10.53,2,23.52,23.52,0,0,1,8.05,5.5,25.16,25.16,0,0,1,5.16,8.4,29.33,29.33,0,0,1,1.85,10.53c0,1.92-.68,2.89-2.06,2.89Zm25.18-4.82c1.29,0,2-.46,2.21-1.38a17.29,17.29,0,0,0,.27-3.3,17.65,17.65,0,0,0-.89-5.57,15.38,15.38,0,0,0-2.55-4.75,12.47,12.47,0,0,0-4-3.3,11.26,11.26,0,0,0-5.37-1.24,14.45,14.45,0,0,0-6.39,1.31,14.22,14.22,0,0,0-4.55,3.44,14.6,14.6,0,0,0-2.82,5,32.27,32.27,0,0,0-1.37,6,11.58,11.58,0,0,0-.21,2.69c0,.69.25,1,.62,1Z"/><path class="cls-2" d="M638.79,233.71q0,4.81.9,6.74a3.47,3.47,0,0,0,3.51,1.93,7.46,7.46,0,0,0,2.47-.34,16.09,16.09,0,0,0,2.75-1.45.82.82,0,0,1,.9,0,2.69,2.69,0,0,1,.82.76,3.14,3.14,0,0,1,.49,1.1,1,1,0,0,1-.28,1Q645,249.95,637.69,250a11,11,0,0,1-6.81-2.13,13.65,13.65,0,0,1-4.2-5c-.18-.45-.46-.5-.82-.13a31.4,31.4,0,0,1-8.33,5.23,30,30,0,0,1-11.9,2.06q-7.85,0-12.11-4.2t-4.26-11.9q0-9.9,9.21-15.2t26.84-5.3c.18,0,.32-.23.41-.69a21.67,21.67,0,0,0,.14-3.16v-3.72a36.88,36.88,0,0,0-.55-6.47,16.68,16.68,0,0,0-1.86-5.3,9.42,9.42,0,0,0-3.65-3.57,11.71,11.71,0,0,0-5.78-1.31,15.27,15.27,0,0,0-8.25,2,5.94,5.94,0,0,0-3.17,5.16,5.19,5.19,0,0,0,1,3,5.31,5.31,0,0,1,1,3,5.1,5.1,0,0,1-1.93,3.72,6.62,6.62,0,0,1-4.68,1.78c-2.47,0-4.24-.66-5.29-2a7.59,7.59,0,0,1-1.59-4.88,12.12,12.12,0,0,1,1.93-6.54,17.48,17.48,0,0,1,5.23-5.3,28.78,28.78,0,0,1,7.71-3.51,32.18,32.18,0,0,1,9.21-1.3q11,0,17.34,5.09t6.33,16.92Zm-12.93-13.62a7.1,7.1,0,0,0-.14-1.86c-.09-.23-.32-.34-.69-.34q-11.28,1-16.72,4.75t-5.43,9.7a11.49,11.49,0,0,0,2.06,6.95q2.07,2.82,6.88,2.82a20.94,20.94,0,0,0,12.94-4.82,3.18,3.18,0,0,0,1.1-2.2Z"/><path class="cls-2" d="M663,214.86a39.21,39.21,0,0,0,1.24,10,25.8,25.8,0,0,0,3.78,8.39,18.5,18.5,0,0,0,6.54,5.78,20.2,20.2,0,0,0,9.63,2.13,58.73,58.73,0,0,0,9.43-.75,15.45,15.45,0,0,0,7.77-3.51,1.19,1.19,0,0,1,1.24-.35,3.38,3.38,0,0,1,1.24.69,2.49,2.49,0,0,1,.75,1.17,1.33,1.33,0,0,1-.2,1.24,22.69,22.69,0,0,1-10.6,8.19A43.17,43.17,0,0,1,679.52,250a38.18,38.18,0,0,1-11-1.65,27,27,0,0,1-10-5.51,27.66,27.66,0,0,1-7.23-10.25q-2.74-6.39-2.75-15.89a35.69,35.69,0,0,1,2.27-12.73,28.85,28.85,0,0,1,6.61-10.32,31.48,31.48,0,0,1,10.66-6.88,39,39,0,0,1,14.59-2.54,31.44,31.44,0,0,1,7.77,1A23.36,23.36,0,0,1,697.2,188a15.18,15.18,0,0,1,4.75,4.61,11.15,11.15,0,0,1,1.79,6.19,7.68,7.68,0,0,1-1.65,4.68c-1.1,1.47-2.85,2.2-5.23,2.2a7.27,7.27,0,0,1-4.75-1.51,5.35,5.35,0,0,1-1.86-4.4,4.78,4.78,0,0,1,1-3.17,3.81,3.81,0,0,0,1-2.34q0-2.47-3.3-3.78a19.75,19.75,0,0,0-7.3-1.31,16.2,16.2,0,0,0-8.73,2.2,18.05,18.05,0,0,0-5.78,5.85,25,25,0,0,0-3.24,8.26A46,46,0,0,0,663,214.86Z"/><path class="cls-2" d="M769.24,215.27a43.62,43.62,0,0,1-2.34,14.87A29.65,29.65,0,0,1,760.22,241a28.36,28.36,0,0,1-10.38,6.67A38.29,38.29,0,0,1,736.35,250a32.89,32.89,0,0,1-12-2.13,25.75,25.75,0,0,1-9.5-6.33,30.19,30.19,0,0,1-6.33-10.6,43.86,43.86,0,0,1-2.33-15.07A34.3,34.3,0,0,1,708.55,203a28.76,28.76,0,0,1,6.54-10,30,30,0,0,1,10.11-6.46,34.91,34.91,0,0,1,12.94-2.34,36.26,36.26,0,0,1,12.45,2.06,27.76,27.76,0,0,1,9.84,6,27.22,27.22,0,0,1,6.47,9.7A35.34,35.34,0,0,1,769.24,215.27Zm-14.45,1.52a73.63,73.63,0,0,0-.69-10.18,30.71,30.71,0,0,0-2.48-8.81,15.77,15.77,0,0,0-5-6.19,13.31,13.31,0,0,0-8.12-2.34,15.58,15.58,0,0,0-8.94,2.34,16.33,16.33,0,0,0-5.44,6.26,29,29,0,0,0-2.75,8.87,67.72,67.72,0,0,0-.76,10.32,70,70,0,0,0,.69,9.64,29.78,29.78,0,0,0,2.62,8.94,18.15,18.15,0,0,0,5.29,6.6,13.6,13.6,0,0,0,8.6,2.62,14.09,14.09,0,0,0,8.67-2.48,16.72,16.72,0,0,0,5.16-6.47,29.67,29.67,0,0,0,2.48-9A83.15,83.15,0,0,0,754.79,216.79Z"/><path class="cls-2" d="M789.6,231.92c0,2.3,0,4.22.14,5.78a12,12,0,0,0,.76,3.86,4.63,4.63,0,0,0,2.06,2.33,11.83,11.83,0,0,0,4.06,1.24,1.81,1.81,0,0,1,1.24.76,2.57,2.57,0,0,1,.41,1.45,2.35,2.35,0,0,1-.41,1.3,1.38,1.38,0,0,1-1.24.62,49.67,49.67,0,0,1-5.16-.48,62.83,62.83,0,0,0-7.91-.48,73.74,73.74,0,0,0-8.53.48,67.07,67.07,0,0,1-7.71.48,1.24,1.24,0,0,1-1.1-.62,2.27,2.27,0,0,1-.41-1.3,2.5,2.5,0,0,1,.41-1.45,1.75,1.75,0,0,1,1.24-.75,24.58,24.58,0,0,0,5.3-1.11A5.31,5.31,0,0,0,775.5,242a7.39,7.39,0,0,0,1-3.58c.09-1.47.14-3.35.14-5.64V215.41q0-6.74-.14-11.21a27.13,27.13,0,0,0-1-7.09,6.12,6.12,0,0,0-2.62-3.65,10.38,10.38,0,0,0-5.09-1,1.64,1.64,0,0,1-1.31-.55,1.84,1.84,0,0,1-.48-1.24,2,2,0,0,1,.48-1.37,1.64,1.64,0,0,1,1.31-.55,51.48,51.48,0,0,0,7.64-.83,88.82,88.82,0,0,0,10.25-2.34,2.44,2.44,0,0,1,2.89.76,4.88,4.88,0,0,1,1,3v5.5a.33.33,0,0,0,.21.35c.14,0,.25,0,.34-.21a24.58,24.58,0,0,1,12.25-9.63,19.49,19.49,0,0,1,6.74-1.1q10.32,0,16.17,5.71t5.85,18.5v23.53q0,3.72.2,6.06a10,10,0,0,0,1,3.78,4.87,4.87,0,0,0,2.34,2.2,15.47,15.47,0,0,0,4.47,1.17,1.81,1.81,0,0,1,1.24.76,2.57,2.57,0,0,1,.41,1.45,2.35,2.35,0,0,1-.41,1.3,1.38,1.38,0,0,1-1.24.62,56.76,56.76,0,0,1-5.85-.48,71.82,71.82,0,0,0-16.58,0,57.22,57.22,0,0,1-6.6.48,1.26,1.26,0,0,1-1.11-.62,2.35,2.35,0,0,1-.41-1.3,2.57,2.57,0,0,1,.41-1.45,1.81,1.81,0,0,1,1.24-.76,14.12,14.12,0,0,0,4.61-1.24,5.33,5.33,0,0,0,2.34-2.26,9.18,9.18,0,0,0,.9-3.58c.09-1.42.13-3.19.13-5.3V211.83q0-3.44-.27-6.88a18.94,18.94,0,0,0-1.51-6.19,11.67,11.67,0,0,0-3.58-4.54,10.45,10.45,0,0,0-6.47-1.79,18.46,18.46,0,0,0-7.22,1.31,15.52,15.52,0,0,0-5.23,3.51,14.71,14.71,0,0,0-3.24,5.16,17.89,17.89,0,0,0-1.1,6.26Z"/><path class="cls-3" d="M624.81,147.84A54.31,54.31,0,0,1,651.38,42.56L647,58.28a38,38,0,1,0,29.16,47.58l15.68,4.41A54.38,54.38,0,0,1,624.81,147.84Z"/><path class="cls-4" d="M693.23,103.48,677.37,99A38.1,38.1,0,0,0,653.6,60.24L658,44.52A54.38,54.38,0,0,1,693.23,103.48Z"/><path class="cls-5" d="M715.59,109.77l-15.77-4.44a61.17,61.17,0,0,0-40-67.37l4.42-15.72A77.5,77.5,0,0,1,715.59,109.77Z"/><path class="cls-6" d="M666.13,15.69,670.54,0a100.61,100.61,0,0,1,67.34,116l-15.72-4.43A84.32,84.32,0,0,0,666.13,15.69Z"/></g></g></svg>