<svg xmlns="http://www.w3.org/2000/svg" viewBox="0 0 1499 445.19"><defs><style>.cls-1{fill:none;stroke:#ccc;stroke-miterlimit:10;stroke-width:0.5px;}.cls-2{font-size:70px;fill:#ed1c24;font-family:Lato-LightItalic, Lato;}.cls-3,.cls-5,.cls-6{font-style:italic;}.cls-4{font-family:Lato-Light, Lato;}.cls-5,.cls-6{font-family:Lato-BlackItalic, Lato;}.cls-6{letter-spacing:-0.08em;}.cls-7{fill:#fff;}.cls-8{fill:#528093;}.cls-9{fill:#ec1c24;}.cls-10{fill:#b4191e;}.cls-11{fill:#95171a;}.cls-12{fill:#f1f1f2;}</style></defs><title>Asset 7</title><g id="Layer_2" data-name="Layer 2"><g id="Layer_1-2" data-name="Layer 1"><line class="cls-1" x1="101.5" y1="444.94" x2="1397.5" y2="444.94"/><line class="cls-1" x1="101.67" y1="91.44" x2="646.67" y2="91.44"/><line class="cls-1" x1="881.67" y1="91.44" x2="1397.67" y2="91.44"/><text class="cls-2" transform="translate(250.62 387.4)"><tspan class="cls-3">THE</tspan><tspan class="cls-4" x="124.46" y="0"> </tspan><tspan class="cls-5" x="137.97" y="0">NEXT GENER</tspan><tspan class="cls-6" x="531.36" y="0">A</tspan><tspan class="cls-5" x="572.17" y="0">TION</tspan><tspan class="cls-4" x="731.49" y="0"> </tspan><tspan class="cls-3" x="745" y="0">IS HERE!</tspan></text><path class="cls-7" d="M567.49,178.81c0-3.94,0-7.11-.13-9.49a14.32,14.32,0,0,0-1-5.44,4.79,4.79,0,0,0-2.82-2.55,27,27,0,0,0-5.5-1.1,1.09,1.09,0,0,1-1-.69,3.94,3.94,0,0,1-.42-1.37,2.55,2.55,0,0,1,.28-1.38,1.22,1.22,0,0,1,1.17-.69q4-.27,9-.82a56.85,56.85,0,0,0,10.12-2.07c1.28-.36,2.13-.29,2.54.21a3.4,3.4,0,0,1,.76,1.58v39.5c0,.18,0,.27.14.27a.44.44,0,0,0,.41-.27,25,25,0,0,1,7.5-7.16,21.67,21.67,0,0,1,12-3.16A21.12,21.12,0,0,1,611,186.72a24.06,24.06,0,0,1,7.63,6.74,30.1,30.1,0,0,1,4.68,9.71,41.21,41.21,0,0,1,1.58,11.41,40.3,40.3,0,0,1-2.82,15.76,30.53,30.53,0,0,1-7.63,11,31.57,31.57,0,0,1-11.15,6.47A41.58,41.58,0,0,1,589.92,250a93.31,93.31,0,0,1-10.32-.62,55,55,0,0,1-12.11-3Zm12.94,56a5.74,5.74,0,0,0,1,2.48,12.89,12.89,0,0,0,2.68,3.16,18.19,18.19,0,0,0,4.13,2.69,12,12,0,0,0,5.3,1.17,14.3,14.3,0,0,0,8.26-2.27,15.91,15.91,0,0,0,5.23-6.19,30.86,30.86,0,0,0,2.68-9,73.54,73.54,0,0,0,.76-10.73,68.82,68.82,0,0,0-.56-9,25.6,25.6,0,0,0-2-7.36,12.29,12.29,0,0,0-4.06-5,11.62,11.62,0,0,0-6.88-1.85,15.82,15.82,0,0,0-6.6,1.37,21.22,21.22,0,0,0-5.23,3.3,15,15,0,0,0-3.44,4.27,9,9,0,0,0-1.24,4.13Z"/><path class="cls-7" d="M645.1,213.49c-.46,0-.71.16-.76.48a9.64,9.64,0,0,0-.06,1.17,40.07,40.07,0,0,0,1.58,12.11,21.46,21.46,0,0,0,4.4,8.05,16.36,16.36,0,0,0,6.74,4.47,25.37,25.37,0,0,0,8.47,1.37,54.1,54.1,0,0,0,9.08-.75,16,16,0,0,0,7.57-3.37,1.73,1.73,0,0,1,1.44-.42,2.14,2.14,0,0,1,1.24.69,2.65,2.65,0,0,1,.62,1.24,1.49,1.49,0,0,1-.28,1.24,23.69,23.69,0,0,1-9.9,8,42.7,42.7,0,0,1-27.87-.28,26.27,26.27,0,0,1-9.91-6.95,28.4,28.4,0,0,1-5.78-10.45,44,44,0,0,1-1.85-13,36,36,0,0,1,2.27-12.79,30.86,30.86,0,0,1,6.4-10.46,31.19,31.19,0,0,1,9.77-7,29.44,29.44,0,0,1,12.52-2.61,26.87,26.87,0,0,1,10.52,2,23.33,23.33,0,0,1,8.05,5.5,24.84,24.84,0,0,1,5.16,8.4,29.33,29.33,0,0,1,1.86,10.53c0,1.92-.69,2.89-2.06,2.89Zm25.18-4.82c1.29,0,2-.46,2.2-1.38a16.44,16.44,0,0,0,.28-3.3,17.38,17.38,0,0,0-.9-5.57,15.16,15.16,0,0,0-2.54-4.75,12.47,12.47,0,0,0-4-3.3,11.26,11.26,0,0,0-5.37-1.24,14.53,14.53,0,0,0-6.4,1.31,14.18,14.18,0,0,0-4.54,3.44,14.44,14.44,0,0,0-2.82,5,32.27,32.27,0,0,0-1.37,6,11.58,11.58,0,0,0-.21,2.69c0,.69.25,1,.62,1Z"/><path class="cls-7" d="M740.46,233.71q0,4.81.89,6.74a3.49,3.49,0,0,0,3.51,1.93,7.49,7.49,0,0,0,2.48-.34,16.09,16.09,0,0,0,2.75-1.45.82.82,0,0,1,.9,0,2.69,2.69,0,0,1,.82.76,3,3,0,0,1,.48,1.1,1.06,1.06,0,0,1-.27,1q-5.37,6.47-12.66,6.47a11,11,0,0,1-6.81-2.13,13.65,13.65,0,0,1-4.2-5c-.18-.45-.46-.5-.82-.13a31.4,31.4,0,0,1-8.33,5.23A30,30,0,0,1,707.3,250q-7.84,0-12.11-4.2t-4.27-11.9q0-9.9,9.22-15.2t26.84-5.3c.18,0,.32-.23.41-.69a21.67,21.67,0,0,0,.14-3.16v-3.72a36.88,36.88,0,0,0-.55-6.47,16.68,16.68,0,0,0-1.86-5.3,9.49,9.49,0,0,0-3.65-3.57,11.73,11.73,0,0,0-5.78-1.31,15.25,15.25,0,0,0-8.25,2,5.92,5.92,0,0,0-3.17,5.16,5.25,5.25,0,0,0,1,3,5.32,5.32,0,0,1,1,3,5.14,5.14,0,0,1-1.93,3.72,6.63,6.63,0,0,1-4.68,1.78q-3.71,0-5.3-2a7.64,7.64,0,0,1-1.58-4.88,12.12,12.12,0,0,1,1.93-6.54,17.48,17.48,0,0,1,5.23-5.3,28.86,28.86,0,0,1,7.7-3.51,32.3,32.3,0,0,1,9.22-1.3q11,0,17.34,5.09t6.33,16.92Zm-12.93-13.62a7.1,7.1,0,0,0-.14-1.86c-.09-.23-.33-.34-.69-.34q-11.28,1-16.72,4.75t-5.43,9.7a11.43,11.43,0,0,0,2.06,6.95q2.07,2.82,6.88,2.82a19.93,19.93,0,0,0,6.67-1.24,19.71,19.71,0,0,0,6.26-3.58,3.16,3.16,0,0,0,1.11-2.2Z"/><path class="cls-7" d="M764.68,214.86a39.21,39.21,0,0,0,1.24,10,25.8,25.8,0,0,0,3.78,8.39,18.41,18.41,0,0,0,6.54,5.78,20.2,20.2,0,0,0,9.63,2.13,58.51,58.51,0,0,0,9.42-.75,15.44,15.44,0,0,0,7.78-3.51,1.18,1.18,0,0,1,1.24-.35,3.46,3.46,0,0,1,1.24.69,2.57,2.57,0,0,1,.75,1.17,1.33,1.33,0,0,1-.2,1.24,22.69,22.69,0,0,1-10.6,8.19A43.21,43.21,0,0,1,781.19,250a38.18,38.18,0,0,1-11-1.65,26.92,26.92,0,0,1-10-5.51A27.55,27.55,0,0,1,753,232.54q-2.75-6.39-2.75-15.89a35.69,35.69,0,0,1,2.27-12.73,28.82,28.82,0,0,1,6.6-10.32,31.52,31.52,0,0,1,10.67-6.88,39,39,0,0,1,14.58-2.54,31.58,31.58,0,0,1,7.78,1,23.36,23.36,0,0,1,6.74,2.82,15.39,15.39,0,0,1,4.75,4.61,11.15,11.15,0,0,1,1.79,6.19,7.68,7.68,0,0,1-1.65,4.68q-1.66,2.2-5.23,2.2a7.27,7.27,0,0,1-4.75-1.51,5.35,5.35,0,0,1-1.86-4.4,4.83,4.83,0,0,1,1-3.17,3.77,3.77,0,0,0,1-2.34q0-2.47-3.3-3.78a19.75,19.75,0,0,0-7.3-1.31,16.22,16.22,0,0,0-8.74,2.2,18.15,18.15,0,0,0-5.78,5.85,25.23,25.23,0,0,0-3.23,8.26A46,46,0,0,0,764.68,214.86Z"/><path class="cls-7" d="M870.9,215.27a43.63,43.63,0,0,1-2.33,14.87A29.78,29.78,0,0,1,861.89,241a28.31,28.31,0,0,1-10.39,6.67A38.2,38.2,0,0,1,838,250a32.89,32.89,0,0,1-12-2.13,25.75,25.75,0,0,1-9.5-6.33,30.19,30.19,0,0,1-6.33-10.6,43.85,43.85,0,0,1-2.34-15.07A34.3,34.3,0,0,1,810.22,203a28.76,28.76,0,0,1,6.54-10,30,30,0,0,1,10.11-6.46,34.91,34.91,0,0,1,12.94-2.34,36.3,36.3,0,0,1,12.45,2.06,27.76,27.76,0,0,1,9.84,6,27.35,27.35,0,0,1,6.47,9.7A35.34,35.34,0,0,1,870.9,215.27Zm-14.44,1.52a73.63,73.63,0,0,0-.69-10.18,31,31,0,0,0-2.48-8.81,15.77,15.77,0,0,0-4.95-6.19,13.31,13.31,0,0,0-8.12-2.34,15.58,15.58,0,0,0-8.94,2.34,16.33,16.33,0,0,0-5.44,6.26,29,29,0,0,0-2.75,8.87,67.72,67.72,0,0,0-.76,10.32,70,70,0,0,0,.69,9.64,30.07,30.07,0,0,0,2.61,8.94,18.28,18.28,0,0,0,5.3,6.6,13.6,13.6,0,0,0,8.6,2.62,14.09,14.09,0,0,0,8.67-2.48,16.72,16.72,0,0,0,5.16-6.47,30,30,0,0,0,2.48-9A83.15,83.15,0,0,0,856.46,216.79Z"/><path class="cls-7" d="M891.27,231.92c0,2.3.05,4.22.14,5.78a12,12,0,0,0,.76,3.86,4.63,4.63,0,0,0,2.06,2.33,11.75,11.75,0,0,0,4.06,1.24,1.81,1.81,0,0,1,1.24.76,2.57,2.57,0,0,1,.41,1.45,2.35,2.35,0,0,1-.41,1.3,1.38,1.38,0,0,1-1.24.62,49.67,49.67,0,0,1-5.16-.48,63,63,0,0,0-7.91-.48,74,74,0,0,0-8.54.48,66.91,66.91,0,0,1-7.7.48,1.24,1.24,0,0,1-1.1-.62,2.28,2.28,0,0,1-.42-1.3,2.5,2.5,0,0,1,.42-1.45,1.75,1.75,0,0,1,1.24-.75,24.33,24.33,0,0,0,5.29-1.11,5.34,5.34,0,0,0,2.76-2.06,7.5,7.5,0,0,0,1-3.58c.09-1.47.14-3.35.14-5.64V215.41q0-6.74-.14-11.21a27.51,27.51,0,0,0-1-7.09,6.11,6.11,0,0,0-2.61-3.65,10.38,10.38,0,0,0-5.09-1,1.64,1.64,0,0,1-1.31-.55,1.84,1.84,0,0,1-.48-1.24,2,2,0,0,1,.48-1.37,1.64,1.64,0,0,1,1.31-.55,51.48,51.48,0,0,0,7.64-.83,88.82,88.82,0,0,0,10.25-2.34,2.45,2.45,0,0,1,2.89.76,4.88,4.88,0,0,1,1,3v5.5a.33.33,0,0,0,.21.35c.13,0,.25,0,.34-.21a24.77,24.77,0,0,1,2.68-3.37,24.42,24.42,0,0,1,9.57-6.26,19.41,19.41,0,0,1,6.74-1.1q10.32,0,16.17,5.71t5.85,18.5v23.53q0,3.72.2,6.06a10.21,10.21,0,0,0,1,3.78,4.94,4.94,0,0,0,2.35,2.2,15.47,15.47,0,0,0,4.47,1.17,1.81,1.81,0,0,1,1.24.76,2.57,2.57,0,0,1,.41,1.45,2.35,2.35,0,0,1-.41,1.3,1.38,1.38,0,0,1-1.24.62,56.34,56.34,0,0,1-5.85-.48,71.82,71.82,0,0,0-16.58,0,57.22,57.22,0,0,1-6.61.48,1.25,1.25,0,0,1-1.1-.62,2.35,2.35,0,0,1-.41-1.3,2.57,2.57,0,0,1,.41-1.45,1.81,1.81,0,0,1,1.24-.76,14.2,14.2,0,0,0,4.61-1.24,5.39,5.39,0,0,0,2.34-2.26,9,9,0,0,0,.89-3.58c.09-1.42.14-3.19.14-5.3V211.83q0-3.44-.27-6.88a18.7,18.7,0,0,0-1.52-6.19,11.56,11.56,0,0,0-3.57-4.54,10.45,10.45,0,0,0-6.47-1.79,18.55,18.55,0,0,0-7.23,1.31,15.48,15.48,0,0,0-5.22,3.51,14.57,14.57,0,0,0-3.24,5.16,17.89,17.89,0,0,0-1.1,6.26Z"/><path class="cls-8" d="M726.48,147.84A54.31,54.31,0,0,1,753.05,42.56l-4.43,15.72a38,38,0,1,0,29.16,47.58l15.68,4.41A54.37,54.37,0,0,1,726.48,147.84Z"/><path class="cls-9" d="M794.9,103.48,779,99a38.1,38.1,0,0,0-23.77-38.78l4.42-15.72A54.38,54.38,0,0,1,794.9,103.48Z"/><path class="cls-10" d="M817.26,109.77l-15.77-4.44a61.18,61.18,0,0,0-40-67.37L766,22.24A77.51,77.51,0,0,1,817.26,109.77Z"/><path class="cls-11" d="M767.8,15.69,772.21,0a100.62,100.62,0,0,1,67.34,116l-15.72-4.43A84.32,84.32,0,0,0,767.8,15.69Z"/><path class="cls-12" d="M589.29,279h-5.78l-1.31,3.58h-1.13l4.82-12.74h1l4.82,12.74h-1.12Zm-5.45-.91H589l-2.55-6.93Z"/><path class="cls-12" d="M594.69,281.67H601v.91H593.6V269.84h1.09Z"/><path class="cls-12" d="M604.14,279.14l.4,2,.48-1.89,2.76-9.39h1l2.73,9.39.48,1.91.42-2,2.3-9.3h1.1l-3.26,12.74h-1l-2.88-10-.33-1.26-.31,1.26-3,10h-1l-3.25-12.74h1.1Z"/><path class="cls-12" d="M624.35,279h-5.78l-1.31,3.58h-1.13L621,269.84h1l4.82,12.74h-1.12Zm-5.45-.91H624l-2.55-6.93Z"/><path class="cls-12" d="M631.58,276.79l3.89-7h1.24l-4.6,8v4.79H631v-4.79l-4.6-8h1.28Z"/><path class="cls-12" d="M645.64,279.45a2.06,2.06,0,0,0-.75-1.68,7.8,7.8,0,0,0-2.72-1.17,9.51,9.51,0,0,1-2.89-1.21,2.95,2.95,0,0,1-.09-4.81,4.94,4.94,0,0,1,3.08-.91,5.08,5.08,0,0,1,2.27.49,3.74,3.74,0,0,1,1.55,1.36,3.59,3.59,0,0,1,.55,2h-1.08a2.67,2.67,0,0,0-.9-2.1,3.45,3.45,0,0,0-2.39-.79,3.81,3.81,0,0,0-2.33.65,2,2,0,0,0-.87,1.71,1.93,1.93,0,0,0,.78,1.58,7.14,7.14,0,0,0,2.5,1.08,11.6,11.6,0,0,1,2.59,1,3.56,3.56,0,0,1,1.33,1.2,3,3,0,0,1,.45,1.65,2.89,2.89,0,0,1-1.2,2.42,5.16,5.16,0,0,1-3.17.91,6,6,0,0,1-2.47-.49,3.76,3.76,0,0,1-1.71-1.34,3.47,3.47,0,0,1-.58-2h1.07a2.55,2.55,0,0,0,1,2.13,4.25,4.25,0,0,0,2.68.78,3.93,3.93,0,0,0,2.38-.66A2.07,2.07,0,0,0,645.64,279.45Z"/><path class="cls-12" d="M656.26,276.26,654.47,278v4.56h-1.08V269.84h1.08v6.87l6.53-6.87h1.35L657,275.51l5.74,7.07h-1.31Z"/><path class="cls-12" d="M674.18,282.58H673.1l-7.32-10.9v10.9H664.7V269.84h1.08l7.33,10.91V269.84h1.07Z"/><path class="cls-12" d="M686.83,276.9a7.25,7.25,0,0,1-.61,3.09,4.56,4.56,0,0,1-1.74,2.05,4.73,4.73,0,0,1-2.6.72,4.55,4.55,0,0,1-3.61-1.6,6.4,6.4,0,0,1-1.37-4.31v-1.31a7.3,7.3,0,0,1,.62-3.08,4.56,4.56,0,0,1,4.34-2.79,4.77,4.77,0,0,1,2.59.71,4.67,4.67,0,0,1,1.74,2,7.2,7.2,0,0,1,.64,3Zm-1.08-1.38a5.59,5.59,0,0,0-1-3.6,3.73,3.73,0,0,0-5.68,0,5.69,5.69,0,0,0-1,3.65v1.33a5.62,5.62,0,0,0,1,3.59,3.74,3.74,0,0,0,5.7,0,5.77,5.77,0,0,0,1-3.64Z"/><path class="cls-12" d="M691.89,279.14l.4,2,.48-1.89,2.76-9.39h1l2.73,9.39.48,1.91.42-2,2.3-9.3h1.1l-3.26,12.74h-1l-2.88-10-.33-1.26-.31,1.26-3,10h-1l-3.25-12.74h1.1Z"/><path class="cls-12" d="M711.27,282.58h-1.08V269.84h1.08Z"/><path class="cls-12" d="M721.74,276.62H715.8v6h-1.07V269.84h7.89v.91H715.8v5h5.94Z"/><path class="cls-12" d="M732.9,276.79l3.89-7H738l-4.6,8v4.79h-1.08v-4.79l-4.59-8H729Z"/><path class="cls-12" d="M749,276.9a7.41,7.41,0,0,1-.6,3.09,4.58,4.58,0,0,1-4.35,2.77,4.53,4.53,0,0,1-3.6-1.6,6.35,6.35,0,0,1-1.37-4.31v-1.31a7.3,7.3,0,0,1,.61-3.08,4.65,4.65,0,0,1,1.75-2.07,4.73,4.73,0,0,1,2.6-.72,4.79,4.79,0,0,1,2.59.71,4.67,4.67,0,0,1,1.74,2,7.2,7.2,0,0,1,.63,3ZM748,275.52a5.65,5.65,0,0,0-1-3.6,3.73,3.73,0,0,0-5.68,0,5.63,5.63,0,0,0-1.06,3.65v1.33a5.62,5.62,0,0,0,1,3.59,3.74,3.74,0,0,0,5.7,0,5.71,5.71,0,0,0,1-3.64Z"/><path class="cls-12" d="M760.53,269.84v8.7a4.49,4.49,0,0,1-.57,2.24,3.66,3.66,0,0,1-1.58,1.46,5,5,0,0,1-2.34.52,4.62,4.62,0,0,1-3.22-1.1,4,4,0,0,1-1.26-3v-8.78h1.07v8.62a3.33,3.33,0,0,0,.92,2.5,3.43,3.43,0,0,0,2.49.89,3.4,3.4,0,0,0,2.49-.9,3.3,3.3,0,0,0,.92-2.48v-8.63Z"/><path class="cls-12" d="M768.29,277.27h-3.7v5.31H763.5V269.84h4.14a4.74,4.74,0,0,1,3.19,1,3.77,3.77,0,0,1,.42,4.92,3.61,3.61,0,0,1-1.92,1.29l3.18,5.43v.11h-1.14Zm-3.7-.91h3.3a3.09,3.09,0,0,0,2.18-.77,2.91,2.91,0,0,0,0-4.09,3.53,3.53,0,0,0-2.41-.75h-3Z"/><path class="cls-12" d="M788.74,282.58h-1.07l-7.33-10.9v10.9h-1.08V269.84h1.08l7.33,10.91V269.84h1.07Z"/><path class="cls-12" d="M799,276.48h-6v5.19h6.85v.91H792V269.84h7.88v.91h-6.81v4.82h6Z"/><path class="cls-12" d="M811,270.75h-4.37v11.83h-1.07V270.75h-4.36v-.91H811Z"/><path class="cls-12" d="M815.53,279.14l.39,2,.48-1.89,2.77-9.39h1l2.73,9.39.47,1.91.42-2,2.3-9.3h1.1l-3.26,12.74h-1l-2.89-10-.32-1.26-.32,1.26-3,10h-1l-3.25-12.74h1.1Z"/><path class="cls-12" d="M838.65,276.9A7.25,7.25,0,0,1,838,280,4.56,4.56,0,0,1,836.3,282a4.73,4.73,0,0,1-2.6.72,4.55,4.55,0,0,1-3.61-1.6,6.4,6.4,0,0,1-1.37-4.31v-1.31a7.3,7.3,0,0,1,.62-3.08,4.56,4.56,0,0,1,4.34-2.79,4.77,4.77,0,0,1,2.59.71,4.67,4.67,0,0,1,1.74,2,7.2,7.2,0,0,1,.64,3Zm-1.08-1.38a5.59,5.59,0,0,0-1-3.6,3.73,3.73,0,0,0-5.68,0,5.69,5.69,0,0,0-1.05,3.65v1.33a5.62,5.62,0,0,0,1.05,3.59,3.74,3.74,0,0,0,5.7,0,5.77,5.77,0,0,0,1-3.64Z"/><path class="cls-12" d="M846.12,277.27h-3.7v5.31h-1.09V269.84h4.14a4.74,4.74,0,0,1,3.19,1,3.77,3.77,0,0,1,.42,4.92,3.61,3.61,0,0,1-1.92,1.29l3.18,5.43v.11H849.2Zm-3.7-.91h3.3a3,3,0,0,0,2.17-.77,2.9,2.9,0,0,0,0-4.09,3.53,3.53,0,0,0-2.41-.75h-3Z"/><path class="cls-12" d="M855.6,276.26,853.81,278v4.56h-1.08V269.84h1.08v6.87l6.52-6.87h1.36l-5.34,5.67,5.75,7.07h-1.31Z"/><path class="cls-12" d="M869.48,281.67h6.29v.91h-7.38V269.84h1.09Z"/><path class="cls-12" d="M884.86,276.48h-6v5.19h6.85v.91h-7.93V269.84h7.88v.91h-6.8v4.82h6Z"/><path class="cls-12" d="M894.9,279h-5.79l-1.31,3.58h-1.13l4.82-12.74h1l4.82,12.74h-1.12Zm-5.45-.91h5.11L892,271.16Z"/><path class="cls-12" d="M902.08,276.26,900.29,278v4.56h-1.08V269.84h1.08v6.87l6.52-6.87h1.36l-5.34,5.67,5.75,7.07h-1.31Z"/><path class="cls-12" d="M917.72,279.45a2.08,2.08,0,0,0-.74-1.68,8,8,0,0,0-2.72-1.17,9.51,9.51,0,0,1-2.89-1.21,2.93,2.93,0,0,1-.09-4.81,4.91,4.91,0,0,1,3.07-.91,5,5,0,0,1,2.27.49,3.68,3.68,0,0,1,1.55,1.36,3.6,3.6,0,0,1,.56,2h-1.09a2.69,2.69,0,0,0-.89-2.1,3.49,3.49,0,0,0-2.4-.79,3.78,3.78,0,0,0-2.32.65,2,2,0,0,0-.87,1.71,1.93,1.93,0,0,0,.78,1.58,7.17,7.17,0,0,0,2.49,1.08,11.91,11.91,0,0,1,2.6,1,3.63,3.63,0,0,1,1.33,1.2,3,3,0,0,1,.44,1.65,2.89,2.89,0,0,1-1.2,2.42,5.16,5.16,0,0,1-3.17.91,6.05,6.05,0,0,1-2.47-.49,3.76,3.76,0,0,1-1.71-1.34,3.55,3.55,0,0,1-.58-2h1.08a2.55,2.55,0,0,0,1,2.13,4.27,4.27,0,0,0,2.68.78,4,4,0,0,0,2.39-.66A2.06,2.06,0,0,0,917.72,279.45Z"/></g></g></svg>