<svg id="campaign-logo" width="358" height="298" viewBox="0 0 358 298" fill="none" xmlns="http://www.w3.org/2000/svg">
<rect x="84.8528" y="66.4142" width="118" height="118" transform="rotate(45 84.8528 66.4142)" stroke="black" stroke-width="2"/>
<rect x="127.426" y="52" width="137.782" height="137.782" transform="rotate(45 127.426 52)" fill="#568BA2"/>
<rect x="208.713" y="1.41421" width="208.312" height="208.312" transform="rotate(45 208.713 1.41421)" fill="white" stroke="black" stroke-width="2"/>
<path d="M247.543 145.937C245.606 143.923 243.453 142.143 241.122 140.606L238.133 165.443C237.51 170.624 233.106 174.531 227.888 174.531H219.995C220.341 175.61 220.525 176.822 220.525 178.196C220.525 184.134 219.042 188.626 216.123 191.546C213.202 194.466 208.914 195.947 203.38 195.947C199.523 195.947 196.259 195.347 193.68 194.162C190.964 192.919 188.555 191.529 186.52 190.035L180.623 185.699C176.906 182.965 172.731 182.606 168.759 184.68C167.087 185.557 165.709 186.696 164.662 188.066L152 204.659L153.004 205.892C155.464 208.919 158.487 211.691 161.982 214.138C165.43 216.555 169.231 218.674 173.276 220.438C177.321 222.197 181.586 223.578 185.952 224.54C190.342 225.509 194.781 226 199.143 226C207.913 226 215.928 224.504 222.966 221.558C230.006 218.609 236.082 214.558 241.025 209.511C245.965 204.466 249.811 198.489 252.455 191.739C255.09 185.012 256.427 177.739 256.427 170.127C256.427 164.713 255.612 159.977 254.007 156.051C252.404 152.135 250.229 148.73 247.543 145.937" fill="#334752"/>
<path d="M189.114 119.435H203.463C203.287 118.704 203.174 117.933 203.174 117.08C203.174 114.843 203.522 112.772 204.206 110.925C204.874 109.124 205.887 107.536 207.22 106.204C208.555 104.87 210.265 103.804 212.306 103.033C214.386 102.25 216.877 101.852 219.712 101.852C222.797 101.852 225.494 102.311 227.728 103.216C230.099 104.178 232.214 105.243 234.014 106.382C235.923 107.586 237.644 108.689 239.184 109.693C242.982 112.171 247.236 111.969 250.184 110.115C251.593 109.23 252.917 107.902 254.226 106.057L265.004 91.3207L264.06 90.1183C262.004 87.4984 259.468 85.0495 256.522 82.8408C253.593 80.6419 250.31 78.7179 246.763 77.1214C243.223 75.5234 239.376 74.2585 235.327 73.3579C231.267 72.456 227.031 72 222.737 72C214.37 72 206.709 73.4453 199.966 76.2947C193.228 79.1412 187.411 83.0233 182.675 87.8286C177.94 92.6318 174.25 98.2297 171.705 104.468C169.163 110.7 167.876 117.281 167.876 124.039C167.876 129.913 168.686 134.962 170.283 139.044C171.828 142.993 173.887 146.389 176.384 149.165L178.868 128.523C179.492 123.342 183.896 119.435 189.114 119.435" fill="#334752"/>
<path d="M231.5 162.889H228.063C226.468 162.889 225.67 162.149 225.67 160.67V159.234C224.583 160.598 223.416 161.606 222.169 162.259C220.922 162.91 219.624 163.236 218.275 163.236C217.433 163.236 216.661 163.084 215.96 162.78C215.254 162.475 214.646 162.029 214.132 161.442C213.617 160.856 213.218 160.129 212.936 159.268C212.652 158.404 212.511 157.416 212.511 156.297C212.511 156.038 212.521 155.768 212.544 155.493C212.565 155.218 212.59 154.936 212.619 154.645L214.316 140.333H221.058L219.363 154.645C219.335 154.876 219.312 155.09 219.297 155.287C219.283 155.482 219.276 155.667 219.276 155.841C219.276 156.609 219.409 157.146 219.678 157.451C219.947 157.756 220.349 157.908 220.886 157.908C221.335 157.908 221.809 157.773 222.31 157.504C222.81 157.236 223.293 156.859 223.756 156.374C224.22 155.888 224.653 155.296 225.052 154.603C225.45 153.905 225.779 153.129 226.04 152.273L227.498 140.333H234.241L231.5 162.889ZM232.037 121.451H212.112L205.786 172.513H227.891C232.094 172.513 235.633 169.373 236.134 165.202L240.282 130.745C240.875 125.802 237.016 121.451 232.037 121.451" fill="#334752"/>
<path d="M201.451 145.008L200.711 150.468H190.966L189.444 162.889H182.308L186.224 131.196H205.105L204.408 136.657H192.684L191.641 145.008H201.451V145.008ZM189.128 121.451C184.925 121.451 181.386 124.59 180.883 128.762L176.738 163.218C176.142 168.161 180.002 172.513 184.982 172.513H203.76L210.086 121.451H189.128V121.451Z" fill="#334752"/>
</svg>
