<svg xmlns="http://www.w3.org/2000/svg" viewBox="0 0 73.57 80.58"><defs><style>.cls-1{fill:#fff;}.cls-2{fill:none;stroke:#ccc;stroke-miterlimit:10;stroke-width:1.5px;}.cls-3{fill:#ec1c24;}.cls-4{fill:#b4191e;}.cls-5{fill:#95171a;}</style></defs><title>Asset 12</title><g id="Layer_2" data-name="Layer 2"><g id="Layer_2-2" data-name="Layer 2"><path class="cls-1" d="M25.51,74.07a7.59,7.59,0,0,1-.44,2.65,5.69,5.69,0,0,1-1.24,2A5.51,5.51,0,0,1,21.91,80a6.74,6.74,0,0,1-2.47.44H14.79V67.7h4.65a6.74,6.74,0,0,1,2.47.44,5.51,5.51,0,0,1,1.92,1.27,5.78,5.78,0,0,1,1.24,2A7.63,7.63,0,0,1,25.51,74.07Zm-1,0a7.29,7.29,0,0,0-.37-2.38,5,5,0,0,0-1-1.76,4.44,4.44,0,0,0-1.62-1.1,5.63,5.63,0,0,0-2.09-.38H15.72V79.69h3.72a5.44,5.44,0,0,0,2.09-.38,4.42,4.42,0,0,0,1.62-1.09,5,5,0,0,0,1-1.77A7.25,7.25,0,0,0,24.56,74.07Z" transform="translate(-8.42)"/><path class="cls-1" d="M36.1,67.7v.77H29.4v5.15H35v.74H29.4v5.31h6.7v.77H28.47V67.7Z" transform="translate(-8.42)"/><path class="cls-1" d="M37.36,67.7h.72a.33.33,0,0,1,.21.07.4.4,0,0,1,.13.18l4.34,10.56a6,6,0,0,1,.27.88,5.34,5.34,0,0,1,.27-.88L47.62,68a.45.45,0,0,1,.13-.17A.33.33,0,0,1,48,67.7h.72L43.43,80.44h-.82Z" transform="translate(-8.42)"/><path class="cls-1" d="M52,80.44H51V67.7H52Z" transform="translate(-8.42)"/><path class="cls-1" d="M65.34,78.3a.23.23,0,0,1,.16.06l.36.39a6.32,6.32,0,0,1-.87.76,5.59,5.59,0,0,1-1,.57,6.12,6.12,0,0,1-1.21.37,7.34,7.34,0,0,1-1.46.13,6.14,6.14,0,0,1-2.42-.46A5.29,5.29,0,0,1,57,78.8a5.84,5.84,0,0,1-1.23-2,7.89,7.89,0,0,1-.44-2.68,7.48,7.48,0,0,1,.45-2.65,6.19,6.19,0,0,1,1.28-2.06A5.86,5.86,0,0,1,59,68a6.72,6.72,0,0,1,2.54-.47,7,7,0,0,1,1.26.1,5.68,5.68,0,0,1,1.08.3,5.2,5.2,0,0,1,.94.48,7.42,7.42,0,0,1,.86.67l-.27.4a.27.27,0,0,1-.23.11.43.43,0,0,1-.21-.09,3.78,3.78,0,0,0-.32-.24c-.12-.09-.28-.19-.46-.3a3.12,3.12,0,0,0-.66-.31,6,6,0,0,0-2-.33,5.7,5.7,0,0,0-2.14.4,4.87,4.87,0,0,0-1.67,1.14,5.21,5.21,0,0,0-1.09,1.81,6.55,6.55,0,0,0-.4,2.37,7,7,0,0,0,.39,2.41,5.3,5.3,0,0,0,1.07,1.79,4.69,4.69,0,0,0,1.62,1.13,5.16,5.16,0,0,0,2,.39,7.5,7.5,0,0,0,1.22-.09,4.85,4.85,0,0,0,1-.27A4.78,4.78,0,0,0,64.4,79a6,6,0,0,0,.76-.61.24.24,0,0,1,.09-.06A.15.15,0,0,1,65.34,78.3Z" transform="translate(-8.42)"/><path class="cls-1" d="M76.39,67.7v.77H69.68v5.15h5.58v.74H69.68v5.31h6.71v.77H68.76V67.7Z" transform="translate(-8.42)"/><rect class="cls-2" x="0.75" y="34.22" width="72.07" height="26.21" rx="11.06" ry="11.06"/><circle class="cls-3" cx="36.2" cy="42.96" r="3.28"/><path class="cls-3" d="M58.12,22.49l-4.79,4.38a15,15,0,0,0-17.9-.11L31.09,22A21.42,21.42,0,0,1,58.12,22.49Z" transform="translate(-8.42)"/><path class="cls-4" d="M64.87,17.05,60.11,21.4a24.09,24.09,0,0,0-30.83-.64L24.94,16A30.52,30.52,0,0,1,64.87,17.05Z" transform="translate(-8.42)"/><path class="cls-5" d="M23.14,14,18.81,9.3A39.6,39.6,0,0,1,71.6,10.9l-4.75,4.34A33.18,33.18,0,0,0,23.14,14Z" transform="translate(-8.42)"/></g></g></svg>