<?xml version="1.0" encoding="UTF-8" standalone="no"?>
<!DOCTYPE svg PUBLIC "-//W3C//DTD SVG 1.1//EN" "http://www.w3.org/Graphics/SVG/1.1/DTD/svg11.dtd">
<svg width="100%" height="100%" viewBox="0 0 691 586" version="1.1" xmlns="http://www.w3.org/2000/svg" xmlns:xlink="http://www.w3.org/1999/xlink" xml:space="preserve" xmlns:serif="http://www.serif.com/" style="fill-rule:evenodd;clip-rule:evenodd;stroke-linecap:round;stroke-linejoin:round;stroke-miterlimit:1.5;">
    <g transform="matrix(1,0,0,1,-10.1492,-674.338)">
        <g id="flow-new" transform="matrix(1.07945,0,0,0.861876,10.1492,674.338)">
            <rect x="0" y="0" width="640" height="679" style="fill:none;"/>
            <g transform="matrix(0.926394,0,0,1.16026,18.9102,-26.3768)">
                <g id="a7Ffg2HSa" transform="matrix(0.969011,0.247018,-0.247018,0.969011,-141.938,43.6777)">
                    <path d="M472.56,194.95L476.65,177.3L459.68,182.53L463.86,186.56L443.71,207.46L411.31,241.07L414.77,244.4L467.32,189.9L472.56,194.95Z" style="fill:rgb(64,63,65);fill-rule:nonzero;"/>
                </g>
                <g id="a7Ffg2HSa1" serif:id="a7Ffg2HSa" transform="matrix(0.969011,0.247018,-0.247018,0.969011,77.1531,-87.7892)">
                    <path d="M472.56,194.95L476.65,177.3L459.68,182.53L463.86,186.56L443.71,207.46L411.31,241.07L414.77,244.4L467.32,189.9L472.56,194.95Z" style="fill:rgb(64,63,65);fill-rule:nonzero;"/>
                </g>
                <g id="human" transform="matrix(1,0,0,1,25.463,-7.85802)">
                    <g transform="matrix(1,0,0,1,-6.7856,39.5498)">
                        <path d="M515.287,145.122C515.313,137.588 515.182,111.786 515.195,104C515.2,101.133 518.867,97.682 523.055,97.588C529.39,97.446 545.195,97.445 551.488,97.543C554.989,97.598 560.168,99.204 561.195,102.116C562.138,104.791 561.837,107.357 561.88,109.992C561.995,117.137 561.799,138.746 561.888,144.984C561.922,147.436 558.592,148.001 558.562,148C557.058,147.967 554.76,146.794 554.762,145C554.768,138.941 554.762,112.8 554.762,112.8L551.662,112.8L551.662,146L551.462,146C551.462,146 551.407,183.419 551.462,192C551.471,193.469 550.179,196.481 546,196.5C541.768,196.52 539.981,193.74 540,192C540.091,183.45 540,146 540,146L536.962,146C536.962,146 537.054,183.715 537,192C536.984,194.404 533.275,196.752 531.202,196.699C528.9,196.641 525.39,194.338 525.365,191.735C525.297,184.629 525.598,145.969 525.598,145.969L525.222,145.974L525.206,112.864L522.278,112.843C522.278,112.843 522.283,139.417 522.215,145.286C522.199,146.663 519.844,148.027 518.69,148C517.535,147.973 515.282,146.789 515.287,145.122Z" style="fill:rgb(64,63,65);"/>
                    </g>
                    <g transform="matrix(1.15789,0,0,1.16667,-94.0998,27.0561)">
                        <ellipse cx="540.5" cy="85" rx="9.5" ry="9" style="fill:rgb(64,63,65);"/>
                    </g>
                </g>
                <g id="H" transform="matrix(1,0,0,1,129.733,149.991)">
                    <g transform="matrix(0.952488,0,0,0.99618,67.5833,-2379.66)">
                        <ellipse cx="154.338" cy="2531.24" rx="44.344" ry="43.073" style="fill:rgb(64,63,65);stroke:rgb(64,63,65);stroke-width:17.1px;"/>
                    </g>
                    <g transform="matrix(1,0,0,1,192.137,173.432)">
                        <path d="M41.094,-63.242L41.094,0L24.648,0L24.648,-26.563L19.727,-26.563L19.727,0L3.281,0L3.281,-63.242L19.727,-63.242L19.727,-40.625L24.648,-40.625L24.648,-63.242L41.094,-63.242Z" style="fill:white;fill-rule:nonzero;stroke:rgb(51,51,51);stroke-width:1px;stroke-linecap:butt;stroke-miterlimit:1.41421;"/>
                    </g>
                </g>
                <g transform="matrix(1,0,0,1,202.834,416.799)">
                    <g id="ping">
                        <text id="Ping" x="0px" y="0px" style="font-family:'Arial-BoldMT', 'Arial', sans-serif;font-weight:700;font-size:33px;fill:rgb(64,63,65);">Ping!</text>
                    </g>
                </g>
                <g transform="matrix(1,0,0,1,420.616,285.269)">
                    <g id="Alert">
                        <text x="0px" y="0px" style="font-family:'Arial-BoldMT', 'Arial', sans-serif;font-weight:700;font-size:33px;fill:rgb(64,63,65);">Alert!</text>
                    </g>
                </g>
            </g>
            <g id="Beacon-logo" transform="matrix(-0.167338,0,0,0.209582,114.586,529.382)">
                <g transform="matrix(1,0,0,1,-1181.1,-885.827)">
                    <g id="Layer-1" serif:id="Layer 1" transform="matrix(4.16667,0,0,4.16667,0,0)">
                        <g transform="matrix(1,0,0,1,309.769,98.3419)">
                            <path d="M0,127.025C35.4,117.066 56.101,80.166 46.142,44.765C36.511,10.526 1.677,-9.957 -32.628,-2.255L-27.198,17.048C-3.528,12.306 20.245,26.563 26.889,50.181C33.86,74.965 19.369,100.801 -5.415,107.771C-30.2,114.744 -56.036,100.252 -63.007,75.467L-82.26,80.882C-72.303,116.283 -35.401,136.982 0,127.025" style="fill:rgb(82,128,148);fill-rule:nonzero;"/>
                        </g>
                        <g>
                            <g transform="matrix(1,0,0,1,225.746,98.4849)">
                                <path d="M0,72.402L19.473,66.924C17.605,46.545 29.402,26.977 48.667,19.309L43.236,0C13.386,10.801 -4.604,41.313 0,72.402" style="fill:rgb(237,28,36);fill-rule:nonzero;"/>
                            </g>
                            <g transform="matrix(1,0,0,1,198.289,71.1256)">
                                <path d="M0,107.485L19.359,102.039C13.574,66.494 34.153,31.39 68.427,19.303L62.998,0C18.115,15.135 -8.664,61.278 0,107.485" style="fill:rgb(180,24,30);fill-rule:nonzero;"/>
                            </g>
                            <g transform="matrix(1,0,0,1,259.025,167.044)">
                                <path d="M0,-103.959L-5.419,-123.224C-65.335,-103.801 -100.909,-42.025 -88.106,19.265L-68.802,13.835C-78.68,-36.815 -49.309,-87.558 0,-103.959" style="fill:rgb(150,22,25);fill-rule:nonzero;"/>
                            </g>
                        </g>
                    </g>
                </g>
            </g>
        </g>
    </g>
</svg>
