<?xml version="1.0" encoding="UTF-8" standalone="no"?><!DOCTYPE svg PUBLIC "-//W3C//DTD SVG 1.1//EN" "http://www.w3.org/Graphics/SVG/1.1/DTD/svg11.dtd"><svg width="100%" height="100%" viewBox="0 0 73 80" version="1.1" xmlns="http://www.w3.org/2000/svg" xmlns:xlink="http://www.w3.org/1999/xlink" xml:space="preserve" xmlns:serif="http://www.serif.com/" style="fill-rule:evenodd;clip-rule:evenodd;stroke-miterlimit:10;"><g id="Home"><path d="M72.757,29.947c0,-6.104 -4.956,-11.06 -11.06,-11.06l-49.95,0c-6.104,0 -11.06,4.956 -11.06,11.06l0,4.09c0,6.105 4.956,11.06 11.06,11.06l49.95,0c6.104,0 11.06,-4.955 11.06,-11.06l0,-4.09Z" style="fill:none;stroke:#ccc;stroke-width:1.5px;"/><path d="M20.628,52.301l0,12.735l-0.927,0l0,-6.102l-7.974,0l0,6.102l-0.927,0l0,-12.735l0.927,0l0,5.94l7.974,0l0,-5.94l0.927,0Z" style="fill:#fff;fill-rule:nonzero;"/><path d="M35.703,58.664c0,0.984 -0.147,1.877 -0.441,2.678c-0.294,0.801 -0.708,1.485 -1.242,2.052c-0.534,0.567 -1.175,1.005 -1.922,1.314c-0.747,0.309 -1.57,0.463 -2.47,0.463c-0.9,0 -1.722,-0.154 -2.466,-0.463c-0.744,-0.309 -1.383,-0.747 -1.917,-1.314c-0.534,-0.567 -0.948,-1.251 -1.242,-2.052c-0.294,-0.801 -0.441,-1.694 -0.441,-2.678c0,-0.978 0.147,-1.867 0.441,-2.668c0.294,-0.801 0.708,-1.485 1.242,-2.052c0.534,-0.567 1.173,-1.007 1.917,-1.319c0.744,-0.312 1.566,-0.468 2.466,-0.468c0.9,0 1.723,0.155 2.47,0.464c0.747,0.309 1.388,0.748 1.922,1.318c0.534,0.57 0.948,1.256 1.242,2.057c0.294,0.801 0.441,1.69 0.441,2.668Zm-0.954,0c0,-0.888 -0.123,-1.686 -0.369,-2.394c-0.246,-0.708 -0.594,-1.308 -1.044,-1.8c-0.45,-0.492 -0.99,-0.868 -1.62,-1.129c-0.63,-0.261 -1.326,-0.392 -2.088,-0.392c-0.756,0 -1.449,0.131 -2.079,0.392c-0.63,0.261 -1.172,0.637 -1.625,1.129c-0.453,0.492 -0.804,1.092 -1.053,1.8c-0.248,0.708 -0.373,1.506 -0.373,2.394c0,0.894 0.125,1.694 0.373,2.399c0.249,0.705 0.6,1.303 1.053,1.795c0.453,0.492 0.995,0.867 1.625,1.125c0.63,0.258 1.323,0.387 2.079,0.387c0.762,0 1.458,-0.129 2.088,-0.387c0.63,-0.258 1.17,-0.633 1.62,-1.125c0.45,-0.492 0.798,-1.09 1.044,-1.795c0.246,-0.705 0.369,-1.505 0.369,-2.399Z" style="fill:#fff;fill-rule:nonzero;"/><path d="M51.219,52.301l0,12.735l-0.801,0l0,-10.854c0,-0.156 0.009,-0.321 0.027,-0.495l-5.013,8.901c-0.084,0.156 -0.204,0.234 -0.36,0.234l-0.144,0c-0.156,0 -0.276,-0.078 -0.36,-0.234l-5.148,-8.919c0.018,0.18 0.027,0.351 0.027,0.513l0,10.854l-0.81,0l0,-12.735l0.639,0c0.084,0 0.15,0.009 0.198,0.027c0.048,0.018 0.096,0.066 0.144,0.144l5.139,8.856c0.09,0.168 0.168,0.348 0.234,0.54c0.036,-0.096 0.075,-0.19 0.117,-0.283c0.042,-0.093 0.087,-0.182 0.135,-0.266l4.995,-8.847c0.048,-0.078 0.098,-0.126 0.148,-0.144c0.051,-0.018 0.119,-0.027 0.203,-0.027l0.63,0Z" style="fill:#fff;fill-rule:nonzero;"/><path d="M62.631,64.271l-0.018,0.765l-7.632,0l0,-12.735l7.632,0l0,0.765l-6.705,0l0,5.148l5.58,0l0,0.747l-5.58,0l0,5.31l6.723,0Z" style="fill:#fff;fill-rule:nonzero;"/><circle cx="36.73" cy="26.009" r="3.28" style="fill:#ec1c24;"/></g></svg>