<svg xmlns="http://www.w3.org/2000/svg" viewBox="0 0 153.33 56.71"><defs><style>.cls-1{fill:red;}.cls-2{fill:none;stroke:#ccc;stroke-miterlimit:10;stroke-width:1.5px;}</style></defs><title>Asset 11</title><g id="Layer_2" data-name="Layer 2"><g id="Layer_2-2" data-name="Layer 2"><path class="cls-1" d="M62.79,16.64c-.08.41,0,.85-.17,1.35L62,19.77l-1.12,3.68a14.51,14.51,0,0,0-.81,3.19c.71-.12,1.59-.13,2.29-.32.14-.06.29,0,.43-.08s0-.22.14-.21.45,0,.43.37-.7.6-.91.67c-.54.24-1.16.28-1.67.51a5,5,0,0,0-.84.47c-.55.43-.76,1.75-.93,2.44l-.69,3.06c-.31,1.15-.36,2.19-.56,3.36-.47,2.39-1,4.8-1.4,7.21-.21,1.29-.4,2.79-2.13,2.09a1.78,1.78,0,0,1-1.18-1.7,37.54,37.54,0,0,1,.5-3.94c.24-1.58.57-3.11.93-4.64.51-2.14.74-4.38,1.29-6.53a14.88,14.88,0,0,1-1.81.75c-.74.2-1.47.44-2.2.67s-2,.54-2.38,1.11a7.28,7.28,0,0,0-.37,1.9l-.08,1c0,1.14-.3,2.29-.43,3.41-.19,1.28-.37,2.56-.48,3.83-.09.75.15,2.4-.67,2.72s-2.26-.75-2.5-1.51a5.5,5.5,0,0,1,0-2.32c.28-2.87.82-5.68,1.18-8.53-.53,0-1.68-.37-1.49-1.14.09-.34.64-.55.92-.67.61-.29.85-.15,1-.77.14-.46.24-.95.34-1.41.19-1,.42-2,.62-3,.72-3.28,1.37-6.55,2.4-9.73a6,6,0,0,0,.27-.78c0,.07.06-.46,0-.41.27-.56,1-.57,1.57-.45.76.12,1.68.59,1.54,1.46-.11.46-.47.92-.64,1.39s-.1,1.16-.28,1.78-.39,1.57-.63,2.34c-.43,1.32-.67,2.69-1,4-.22.81-.1,1.53-.29,2.33a13.86,13.86,0,0,1-.43,1.8,26.13,26.13,0,0,0,2.71-.91l1.62-.39a7.29,7.29,0,0,0,1.76-.41c.6-.4.8-2.6,1-3.4l.87-3.68,1.59-6.29c.15-.61,0-1.06.88-1.07a3.14,3.14,0,0,1,2.47,1.34C63.52,15.34,63,15.87,62.79,16.64Zm-12,5.63c-.45,1.65-1.2,3.29-1.53,5s-.56,3.33-.82,5c.25-1.33.53-2.66.85-4Zm0-.16,0-.19C50.83,22,50.8,22,50.81,22.11Zm5.52,18a5.48,5.48,0,0,0-.51,1.3,6.13,6.13,0,0,0,0,1.21,4.23,4.23,0,0,1,.18-.65A8.57,8.57,0,0,0,56.33,40.06Z"/><path class="cls-1" d="M75.15,29.81c-.07,0-.51.23-.48.19-.33.2-.27.16-.46.52s-.38,1-.56,1.45c-.12.17-1.08,2.28-1.34,2.22,0,0,.22-.41.18-.44l-.83,1.39c.09-.12.16-.17.16-.13-.11.64-1.16,1.55-1.63,2a4.61,4.61,0,0,1-1.87,1.27,4.26,4.26,0,0,1-2.24,0,4.74,4.74,0,0,1-3.25-5.68,24.81,24.81,0,0,1,1.27-3.89,7.74,7.74,0,0,1,1.43-1.93,4.35,4.35,0,0,1,.87-.71c.22-.18.75-.31.91-.48s.24-1.14.33-1.45a8.21,8.21,0,0,1,.36-.91,6.24,6.24,0,0,1,1.53-2.17c1.1-.89,2.43-.42,3.47.32,0,0,.68.28.68.5l-.17-.11.19.26,0,0c-.15-.27.37.19.37.19a3.06,3.06,0,0,1,.51.87,4.44,4.44,0,0,1,.27,1.53,22.75,22.75,0,0,1-.25,4.11c1-.36,2.07-.79,3.06-1.18.24-.12.46-.34.68-.12.05.06,0,0,0,0C79.65,28.67,75.53,29.67,75.15,29.81Zm-3.33.68c-1.61.06-3.65-.29-4.35-2a14.32,14.32,0,0,0-.9,2.43l.16-.36c0,.37-2.35,7.23.53,6.3h0C69.71,36,71.14,32.74,71.82,30.49Zm.33-8.31c-.91-1-2,.85-2.36,1.65,0,0,0,0,0,0l0,.08v0c0,.07,0,.12,0,.11a8,8,0,0,0-.46,1s.31-.75.37-.65-.34,1.45-.41,1.68a8,8,0,0,0-.16,1.83c0,.62.08,1.31.65,1.65a2.1,2.1,0,0,0,1.2.16,2.48,2.48,0,0,0,.9-.12c.34-.13.25,0,.37-.39a12.81,12.81,0,0,0,.45-3.38C72.64,24.85,72.84,23,72.15,22.18Zm-2.36,1.65,0,0S69.79,23.87,69.79,23.83Z"/><path class="cls-1" d="M96.92,27.52c-.67,1.44-1.33,2.91-2.12,4.3-.53,1-1.49,2.89-2.73,3.14-.24.08-1.82-.16-1.8-.46l0,0c-.08,0-.09-.09-.14-.16,0,.08-.57-.34-.67-.5a4.11,4.11,0,0,1-.61-1.22,14.06,14.06,0,0,1-.47-2,6.25,6.25,0,0,1,0-2.2c0-.15.31-2.25.53-2.25,0,0-.06.3,0,.32,0-.37.13-.75.2-1.17a.64.64,0,0,1-.11.24s.54-2.63.65-3.05c-1,1.31-1.32,3-2.3,4.29A18.36,18.36,0,0,0,86,30.28c-.35.94-.59,2.31-1.93,1.4a1.89,1.89,0,0,1-.76-1,4.62,4.62,0,0,1,0-1.39,4.18,4.18,0,0,0-.13-1,16.87,16.87,0,0,1,.78-4c0-.41.81-2.78.23-2.72-.08,0-.48.82-.57.94a16.88,16.88,0,0,0-.94,1.78c-.87,2-1.3,4-2,6-.27.81-.46,1.62-.69,2.39-.08.38-.28.75-.32,1.12a1.92,1.92,0,0,1,0,.48c-.24.7-1.79,0-2.22-.35-.9-.77-.76-1.63-1-2.63a10.36,10.36,0,0,1,.2-4,12.35,12.35,0,0,1,.39-1.94,7.75,7.75,0,0,0,.44-1.07c.08-.2-.09-.35.2-.55s.63,0,.87.15.59.63.8.81.61.34.56.86c0,.07-.05.16-.07.23-.16.4-.42.77-.61,1.17a1.86,1.86,0,0,0-.23.59c0,.26.06.36,0,.62,0,.52-.23,1-.25,1.51a5.51,5.51,0,0,0,0,1.07,4.75,4.75,0,0,1,.24,1c.39-.94.46-2.06.8-3.07.37-1.24.73-2.55,1.22-3.77.41-1,.94-2,1.36-3,.33-.82.93-2,1.84-2.29,1.25-.4,2.52,1,2.43,2.18-.1.94-.48,1.92-.65,2.83-.21,1.32-.35,2.67-.49,4a24.55,24.55,0,0,1,1.08-2.9l-.55,1.09a41.17,41.17,0,0,1,2.51-5c.8-1.09,2.66-2.44,3.54-.57.75,1.63.21,3.78-.13,5.41a27.84,27.84,0,0,0-.94,4.6,1.22,1.22,0,0,1,.11-.24s0,1.76.38,1.77c.7,0,1.76-2.13,2.08-2.63.77-1.23,1.5-2.53,2.24-3.8.14-.24,1.34-2.65,1.73-1.91,0,.06,0,0,0,0C98,25.42,97.27,26.77,96.92,27.52ZM84.48,24.35v0c.12-.57.47-2.36.17-2.82a9.86,9.86,0,0,1-.32,3.21c-.22.89-.51,1.78-.64,2.68A8.24,8.24,0,0,0,83.63,30a8.94,8.94,0,0,1,.3-2.47c.2-1,.23-2.09.51-3.06a.42.42,0,0,1,0-.12h0Z"/><path class="cls-1" d="M108.63,23.08l-.85,1.65-1.5,2.83c-.38.73-.89,1.44-1.27,2.17s-.75,1.63-1.24,2.41a9.33,9.33,0,0,1-1.93,2.24,2.31,2.31,0,0,1-1.78.49,4.91,4.91,0,0,1-2.62-1.12,1.43,1.43,0,0,1-.51-.61,4.45,4.45,0,0,1-.19-.7,4.89,4.89,0,0,1,0-1.21c0-.48.13-.94.13-1.42s0-1,0-1.47A8.62,8.62,0,0,1,96.72,27c0-.3.19-.62.24-1a3.91,3.91,0,0,0-.22.66c-.06.3-.08.6-.14.87s0,.56-.11.86a3,3,0,0,0-.15,1c0,.33.11.64.13,1a3.46,3.46,0,0,0,0,.91,2.35,2.35,0,0,0,.14.38c0,.15,0,.34,0,.51.06.33.18.63.28,1a4.37,4.37,0,0,1-.81-3c0-1.1,0-2.16,0-3.24a14.45,14.45,0,0,1,1.77-6.32c.85-1.65,2.12-3,4.11-3a3.29,3.29,0,0,1,2.14.73,2.54,2.54,0,0,1,.61,2.28,8.3,8.3,0,0,1-2.15,3.89,12,12,0,0,1-1.31,1.36,6.19,6.19,0,0,1-1,.7l-.57.32c-.24.11-.28.08-.35.31-.12.39,0,.73,0,1.1s0,.92-.05,1.4a7.29,7.29,0,0,0,.24,2.9c.71,1.75,3.22-1.59,3.67-2.18.3-.38.56-.79.82-1.17a7.69,7.69,0,0,0,.43-.69,1.25,1.25,0,0,0,0-.27,19.89,19.89,0,0,1,1.19-2.22c.52-.86,1-1.74,1.42-2.67.24-.51.76-2,1.5-1.1v0s0,0,0,0A.56.56,0,0,1,108.63,23.08Zm-9,2.44a10.36,10.36,0,0,0,2.58-2.91l.47-.89c.08-.19.24-.33.27-.56s-.09-.31-.09-.53v-.77c0-.37-.32-1.27-.84-1.07a1.69,1.69,0,0,0-.54.68l-.5,1a23.94,23.94,0,0,0-1.08,3.74.27.27,0,0,1,0,.12C99.77,24.68,99.73,25.09,99.62,25.52Z"/><rect class="cls-2" x="0.75" y="0.75" width="151.83" height="55.21" rx="20" ry="20"/></g></g></svg>