<?xml version="1.0" encoding="UTF-8" standalone="no"?>
<!DOCTYPE svg PUBLIC "-//W3C//DTD SVG 1.1//EN" "http://www.w3.org/Graphics/SVG/1.1/DTD/svg11.dtd">
<svg width="100%" height="100%" viewBox="0 0 701 613" version="1.1" xmlns="http://www.w3.org/2000/svg" xmlns:xlink="http://www.w3.org/1999/xlink" xml:space="preserve" xmlns:serif="http://www.serif.com/" style="fill-rule:evenodd;clip-rule:evenodd;">
    <g transform="matrix(1,0,0,1,-6,-2046.52)">
        <g id="Layes" transform="matrix(1.09531,0,0,0.902504,6,2046.52)">
            <rect x="0" y="0" width="640" height="679" style="fill:none;"/>
            <clipPath id="_clip1">
                <rect x="0" y="0" width="640" height="679"/>
            </clipPath>
            <g clip-path="url(#_clip1)">
                <g id="Beacon-logo" transform="matrix(-0.164915,0,0,0.200147,87.4912,596.492)">
                    <g transform="matrix(1,0,0,1,-1181.1,-885.827)">
                        <g id="Layer-1" serif:id="Layer 1" transform="matrix(4.16667,0,0,4.16667,0,0)">
                            <g transform="matrix(1,0,0,1,309.769,98.3419)">
                                <path d="M0,127.025C35.4,117.066 56.101,80.166 46.142,44.765C36.511,10.526 1.677,-9.957 -32.628,-2.255L-27.198,17.048C-3.528,12.306 20.245,26.563 26.889,50.181C33.86,74.965 19.369,100.801 -5.415,107.771C-30.2,114.744 -56.036,100.252 -63.007,75.467L-82.26,80.882C-72.303,116.283 -35.401,136.982 0,127.025" style="fill:rgb(82,128,148);fill-rule:nonzero;"/>
                            </g>
                            <g>
                                <g transform="matrix(1,0,0,1,225.746,98.4849)">
                                    <path d="M0,72.402L19.473,66.924C17.605,46.545 29.402,26.977 48.667,19.309L43.236,0C13.386,10.801 -4.604,41.313 0,72.402" style="fill:rgb(237,28,36);fill-rule:nonzero;"/>
                                </g>
                                <g transform="matrix(1,0,0,1,198.289,71.1256)">
                                    <path d="M0,107.485L19.359,102.039C13.574,66.494 34.153,31.39 68.427,19.303L62.998,0C18.115,15.135 -8.664,61.278 0,107.485" style="fill:rgb(180,24,30);fill-rule:nonzero;"/>
                                </g>
                                <g transform="matrix(1,0,0,1,259.025,167.044)">
                                    <path d="M0,-103.959L-5.419,-123.224C-65.335,-103.801 -100.909,-42.025 -88.106,19.265L-68.802,13.835C-78.68,-36.815 -49.309,-87.558 0,-103.959" style="fill:rgb(150,22,25);fill-rule:nonzero;"/>
                                </g>
                            </g>
                        </g>
                    </g>
                </g>
                <g transform="matrix(1,0,0,1,-46.5621,3.31301)">
                    <g id="Big" transform="matrix(0.912981,0,0,1.10803,27.8459,-8.55398)">
                        <path d="M603.64,35.73C609.17,35.73 613.64,40.21 613.64,45.73C613.64,155.09 613.64,473.16 613.64,582.51C613.64,588.03 609.17,592.51 603.64,592.51C488.19,592.51 151.81,592.51 36.36,592.51C30.83,592.51 26.36,588.03 26.36,582.51C26.36,473.16 26.36,155.09 26.36,45.73C26.36,40.21 30.83,35.73 36.36,35.73C151.81,35.73 488.19,35.73 603.64,35.73Z" style="fill-opacity:0;fill-rule:nonzero;stroke:rgb(64,63,65);stroke-width:7.08px;"/>
                    </g>
                    <g transform="matrix(1,0,0,1,53.5926,6.51465)">
                        <g transform="matrix(1,0,0,0.887634,8.88178e-16,49.3793)">
                            <g transform="matrix(1.09558,0,0,1.15632,-116.679,-755.072)">
                                <path d="M619,1131.75C619,1118.64 610.785,1108 600.667,1108L392.333,1108C382.215,1108 374,1118.64 374,1131.75L374,1179.25C374,1192.36 382.215,1203 392.333,1203L600.667,1203C610.785,1203 619,1192.36 619,1179.25L619,1131.75Z" style="fill:white;stroke:rgb(64,63,65);stroke-width:3.78px;stroke-dasharray:3.78,3.78;"/>
                            </g>
                            <g transform="matrix(0.912981,0,0,1.10803,0.787527,-728.994)">
                                <text x="358.121px" y="1190.77px" style="font-family:'HelveticaNeue', 'Helvetica Neue';font-size:33.333px;fill:rgb(45,57,65);">Physical Layer</text>
                            </g>
                        </g>
                        <g transform="matrix(1,0,0,0.887634,0.353758,43.9668)">
                            <g transform="matrix(1.09558,0,0,1.15632,-116.679,-875.847)">
                                <path d="M619,1131.75C619,1118.64 610.785,1108 600.667,1108L392.333,1108C382.215,1108 374,1118.64 374,1131.75L374,1179.25C374,1192.36 382.215,1203 392.333,1203L600.667,1203C610.785,1203 619,1192.36 619,1179.25L619,1131.75Z" style="fill:white;stroke:rgb(64,63,65);stroke-width:3.78px;stroke-dasharray:3.78,3.78;"/>
                            </g>
                            <g transform="matrix(0.912981,0,0,1.10803,30.2388,-710.144)">
                                <text x="393.862px" y="1068.21px" style="font-family:'HelveticaNeue', 'Helvetica Neue';font-size:33.333px;fill:rgb(45,57,65);">VLAN</text>
                            </g>
                        </g>
                        <g transform="matrix(1.09558,0,0,1.02638,-116.679,-846.059)">
                            <path d="M619,1131.75C619,1118.64 610.785,1108 600.667,1108L392.333,1108C382.215,1108 374,1118.64 374,1131.75L374,1179.25C374,1192.36 382.215,1203 392.333,1203L600.667,1203C610.785,1203 619,1192.36 619,1179.25L619,1131.75Z" style="fill:white;"/>
                            <clipPath id="_clip2">
                                <path d="M619,1131.75C619,1118.64 610.785,1108 600.667,1108L392.333,1108C382.215,1108 374,1118.64 374,1131.75L374,1179.25C374,1192.36 382.215,1203 392.333,1203L600.667,1203C610.785,1203 619,1192.36 619,1179.25L619,1131.75Z"/>
                            </clipPath>
                            <g clip-path="url(#_clip2)">
                                <g transform="matrix(0.833333,0,0,0.958241,41.2792,235.07)">
                                    <text x="426.098px" y="972.458px" style="font-family:'HelveticaNeue', 'Helvetica Neue';font-size:33.333px;fill:rgb(45,57,65);">MPLS/VPN/VPC</text>
                                </g>
                            </g>
                            <path d="M619,1131.75C619,1118.64 610.785,1108 600.667,1108L392.333,1108C382.215,1108 374,1118.64 374,1131.75L374,1179.25C374,1192.36 382.215,1203 392.333,1203L600.667,1203C610.785,1203 619,1192.36 619,1179.25L619,1131.75Z" style="fill:none;stroke:rgb(64,63,65);stroke-width:3.78px;stroke-dasharray:3.78,3.78;"/>
                        </g>
                        <g transform="matrix(1.09558,0,0,1.02638,-117.208,-958.663)">
                            <path d="M619,1131.75C619,1118.64 610.785,1108 600.667,1108L392.333,1108C382.215,1108 374,1118.64 374,1131.75L374,1179.25C374,1192.36 382.215,1203 392.333,1203L600.667,1203C610.785,1203 619,1192.36 619,1179.25L619,1131.75Z" style="fill:white;"/>
                            <clipPath id="_clip3">
                                <path d="M619,1131.75C619,1118.64 610.785,1108 600.667,1108L392.333,1108C382.215,1108 374,1118.64 374,1131.75L374,1179.25C374,1192.36 382.215,1203 392.333,1203L600.667,1203C610.785,1203 619,1192.36 619,1179.25L619,1131.75Z"/>
                            </clipPath>
                            <g clip-path="url(#_clip3)">
                                <g transform="matrix(0.833333,0,0,0.958241,52.5709,218.732)">
                                    <text x="426.098px" y="972.458px" style="font-family:'HelveticaNeue', 'Helvetica Neue';font-size:33.333px;fill:rgb(45,57,65);">Routing / FW /</text>
                                    <text x="478.898px" y="1006.73px" style="font-family:'HelveticaNeue', 'Helvetica Neue';font-size:33.333px;fill:rgb(45,57,65);">Pr<tspan x="510.998px 530.132px " y="1006.73px 1006.73px ">ox</tspan>ies</text>
                                </g>
                            </g>
                            <path d="M619,1131.75C619,1118.64 610.785,1108 600.667,1108L392.333,1108C382.215,1108 374,1118.64 374,1131.75L374,1179.25C374,1192.36 382.215,1203 392.333,1203L600.667,1203C610.785,1203 619,1192.36 619,1179.25L619,1131.75Z" style="fill:none;stroke:rgb(64,63,65);stroke-width:3.78px;stroke-dasharray:3.78,3.78;"/>
                        </g>
                        <g transform="matrix(1,0,0,1,8.88178e-16,23.079)">
                            <g transform="matrix(1.09558,0,0,1.02638,-116.679,-1094.21)">
                                <path d="M619,1131.75C619,1118.64 610.785,1108 600.667,1108L392.333,1108C382.215,1108 374,1118.64 374,1131.75L374,1179.25C374,1192.36 382.215,1203 392.333,1203L600.667,1203C610.785,1203 619,1192.36 619,1179.25L619,1131.75Z" style="fill:white;stroke:rgb(64,63,65);stroke-width:3.78px;stroke-dasharray:3.78,3.78;"/>
                            </g>
                            <g transform="matrix(0.912981,0,0,1.10803,-59.0836,-990.79)">
                                <g transform="matrix(1.12659,0,0,1,-57.3012,0)">
                                    <text x="452.648px" y="972.458px" style="font-family:'HelveticaNeue', 'Helvetica Neue';font-size:29.588px;fill:rgb(45,57,65);">App A<tspan x="533.778px 556.206px 572.094px 581.414px " y="972.458px 972.458px 972.458px 972.458px ">ware</tspan></text>
                                </g>
                                <g transform="matrix(1.12659,0,0,1,-56.8349,0)">
                                    <text x="448.965px" y="1002.87px" style="font-family:'HelveticaNeue', 'Helvetica Neue';font-size:29.588px;fill:rgb(45,57,65);">Networking</text>
                                </g>
                            </g>
                        </g>
                    </g>
                </g>
            </g>
        </g>
    </g>
</svg>
