<?xml version="1.0" encoding="UTF-8" standalone="no"?>
<!DOCTYPE svg PUBLIC "-//W3C//DTD SVG 1.1//EN" "http://www.w3.org/Graphics/SVG/1.1/DTD/svg11.dtd">
<svg width="100%" height="100%" viewBox="0 0 701 613" version="1.1" xmlns="http://www.w3.org/2000/svg" xmlns:xlink="http://www.w3.org/1999/xlink" xml:space="preserve" xmlns:serif="http://www.serif.com/" style="fill-rule:evenodd;clip-rule:evenodd;">
    <g transform="matrix(1,0,0,1,-1644.16,-708.462)">
        <g id="one-among-others-new" transform="matrix(1.09531,0,0,0.902504,1644.16,708.462)">
            <rect x="0" y="0" width="640" height="679" style="fill:none;"/>
            <g transform="matrix(1,0,0,1,27.3894,0.853182)">
                <g transform="matrix(0.912981,0,0,0.996585,-3.49647,56.9564)">
                    <g id="bigbox">
                        <path id="BigBox" d="M603.64,36.92C609.17,36.92 613.64,41.4 613.64,46.92C613.64,156.28 613.64,474.34 613.64,583.7C613.64,589.22 609.17,593.7 603.64,593.7C488.19,593.7 151.81,593.7 36.36,593.7C30.83,593.7 26.36,589.22 26.36,583.7C26.36,474.34 26.36,156.28 26.36,46.92C26.36,41.4 30.83,36.92 36.36,36.92C151.81,36.92 488.19,36.92 603.64,36.92Z" style="fill:none;stroke:rgb(64,63,65);stroke-width:8.76px;"/>
                    </g>
                </g>
                <g id="router" transform="matrix(0.912981,0,0,1.10803,-3.49647,54.2934)">
                    <g transform="matrix(1.00094,0,0,1,-1673.61,-752.232)">
                        <ellipse cx="1991.32" cy="764.62" rx="47.638" ry="48.025" style="fill:none;stroke:rgb(64,63,65);stroke-width:16.66px;stroke-linecap:round;stroke-linejoin:round;stroke-miterlimit:1.5;"/>
                        <ellipse cx="1991.32" cy="764.62" rx="47.638" ry="48.025" style="fill:white;"/>
                    </g>
                    <g transform="matrix(0.384029,0,0,0.628875,-424.35,-467.698)">
                        <path d="M1828.07,770.545L1828.07,753.965L1879.22,753.965L1879.22,742.862L1920.14,762.255L1879.22,781.648L1879.22,770.545L1828.07,770.545Z" style="fill:rgb(51,51,51);"/>
                    </g>
                    <g transform="matrix(-0.384029,0,0,0.628875,1064.2,-467.954)">
                        <path d="M1828.07,770.545L1828.07,753.965L1879.22,753.965L1879.22,742.862L1920.14,762.255L1879.22,781.648L1879.22,770.545L1828.07,770.545Z" style="fill:rgb(51,51,51);"/>
                    </g>
                    <g transform="matrix(-0.00198461,0.384024,0.628867,0.00324994,-155.567,-733.908)">
                        <path d="M1828.07,770.545L1828.07,753.965L1879.22,753.965L1879.22,742.862L1920.14,762.255L1879.22,781.648L1879.22,770.545L1828.07,770.545Z" style="fill:rgb(51,51,51);"/>
                    </g>
                    <g transform="matrix(-0.00198461,-0.384024,0.628867,-0.00324994,-155.412,758.795)">
                        <path d="M1828.07,770.545L1828.07,753.965L1879.22,753.965L1879.22,742.862L1920.14,762.255L1879.22,781.648L1879.22,770.545L1828.07,770.545Z" style="fill:rgb(51,51,51);"/>
                    </g>
                </g>
                <g id="Will-it-leak-" serif:id="Will it leak?" transform="matrix(0.912981,0,0,1.10803,24.806,-73.1299)">
                    <g id="will-it-leak" serif:id="will it leak" transform="matrix(0.586239,0,0,0.586239,348.568,80.8245)">
                        <text x="88.379px" y="100.409px" style="font-family:'Arial-BoldMT', 'Arial', sans-serif;font-weight:700;font-size:48px;fill:rgb(45,57,65);">W<tspan x="133.262px 146.598px " y="100.409px 100.409px ">il</tspan>l it leak?</text>
                    </g>
                    <g transform="matrix(-0.145827,0.0284906,0.0284906,0.145827,587.924,90.9688)">
                        <g transform="matrix(1,0,0,1,225.746,98.4849)">
                            <path d="M0,72.402L19.473,66.924C17.605,46.545 29.402,26.977 48.667,19.309L43.236,0C13.386,10.801 -4.604,41.313 0,72.402" style="fill:rgb(237,28,36);fill-rule:nonzero;"/>
                        </g>
                        <g transform="matrix(1,0,0,1,198.289,71.1256)">
                            <path d="M0,107.485L19.359,102.039C13.574,66.494 34.153,31.39 68.427,19.303L62.998,0C18.115,15.135 -8.664,61.278 0,107.485" style="fill:rgb(180,24,30);fill-rule:nonzero;"/>
                        </g>
                        <g transform="matrix(1,0,0,1,259.025,167.044)">
                            <path d="M0,-103.959L-5.419,-123.224C-65.335,-103.801 -100.909,-42.025 -88.106,19.265L-68.802,13.835C-78.68,-36.815 -49.309,-87.558 0,-103.959" style="fill:rgb(150,22,25);fill-rule:nonzero;"/>
                        </g>
                    </g>
                </g>
                <g id="row" transform="matrix(1,0,0,1,-37.7511,156.511)">
                    <g transform="matrix(0.869604,0,0,1.1038,191.314,-2415.06)">
                        <ellipse cx="154.338" cy="2531.24" rx="44.344" ry="43.073" style="fill:none;stroke:rgb(64,63,65);stroke-width:17.1px;stroke-linecap:round;stroke-linejoin:round;stroke-miterlimit:1.5;"/>
                    </g>
                    <g transform="matrix(0.869604,0,0,1.1038,351.695,-2415.06)">
                        <ellipse cx="154.338" cy="2531.24" rx="44.344" ry="43.073" style="fill:none;stroke:rgb(64,63,65);stroke-width:17.1px;stroke-linecap:round;stroke-linejoin:round;stroke-miterlimit:1.5;"/>
                    </g>
                    <g transform="matrix(0.869604,0,0,1.1038,32.6178,-2415.06)">
                        <ellipse cx="154.338" cy="2531.24" rx="44.344" ry="43.073" style="fill:none;stroke:rgb(64,63,65);stroke-width:17.1px;stroke-linecap:round;stroke-linejoin:round;stroke-miterlimit:1.5;"/>
                    </g>
                </g>
                <g id="row1" serif:id="row" transform="matrix(1,0,0,1,-38.3452,-0.853182)">
                    <g transform="matrix(0.869604,0,0,1.1038,192.227,-2417.25)">
                        <ellipse cx="154.338" cy="2531.24" rx="44.344" ry="43.073" style="fill:none;stroke:rgb(64,63,65);stroke-width:17.1px;stroke-linecap:round;stroke-linejoin:round;stroke-miterlimit:1.5;"/>
                    </g>
                    <g transform="matrix(0.869604,0,0,1.1038,351.695,-2417.52)">
                        <ellipse cx="154.338" cy="2531.24" rx="44.344" ry="43.073" style="fill:none;stroke:rgb(64,63,65);stroke-width:17.1px;stroke-linecap:round;stroke-linejoin:round;stroke-miterlimit:1.5;"/>
                    </g>
                    <g transform="matrix(0.869604,0,0,1.1038,32.6178,-2417.77)">
                        <ellipse cx="154.338" cy="2531.24" rx="44.344" ry="43.073" style="fill:none;stroke:rgb(64,63,65);stroke-width:17.1px;stroke-linecap:round;stroke-linejoin:round;stroke-miterlimit:1.5;"/>
                    </g>
                </g>
                <g transform="matrix(1,0,0,1,-37.4603,-2.39733)">
                    <g transform="matrix(0.869604,0,0,1.1038,190.99,-2581.91)">
                        <ellipse cx="154.338" cy="2531.24" rx="44.344" ry="43.073" style="fill:none;stroke:rgb(64,63,65);stroke-width:17.1px;stroke-linecap:round;stroke-linejoin:round;stroke-miterlimit:1.5;"/>
                    </g>
                    <g transform="matrix(0.869604,0,0,1.1038,32.3325,-2581.91)">
                        <ellipse cx="154.338" cy="2531.24" rx="44.344" ry="43.073" style="fill:none;stroke:rgb(64,63,65);stroke-width:17.1px;stroke-linecap:round;stroke-linejoin:round;stroke-miterlimit:1.5;"/>
                    </g>
                </g>
            </g>
            <g id="both-beacons">
                <g transform="matrix(-0.164649,0,0,0.199824,480.691,250.891)">
                    <g transform="matrix(1,0,0,1,-1181.1,-885.827)">
                        <g id="Layer-1" serif:id="Layer 1" transform="matrix(4.16667,0,0,4.16667,0,0)">
                            <g transform="matrix(1,0,0,1,309.769,98.3419)">
                                <path d="M0,127.025C35.4,117.066 56.101,80.166 46.142,44.765C36.511,10.526 1.677,-9.957 -32.628,-2.255L-27.198,17.048C-3.528,12.306 20.245,26.563 26.889,50.181C33.86,74.965 19.369,100.801 -5.415,107.771C-30.2,114.744 -56.036,100.252 -63.007,75.467L-82.26,80.882C-72.303,116.283 -35.401,136.982 0,127.025" style="fill:rgb(128,130,133);fill-rule:nonzero;"/>
                            </g>
                            <g transform="matrix(1,0,0,1,225.746,98.4849)">
                                <path d="M0,72.402L19.473,66.924C17.605,46.545 29.402,26.977 48.667,19.309L43.236,0C13.386,10.801 -4.604,41.313 0,72.402" style="fill:rgb(209,211,212);fill-rule:nonzero;"/>
                            </g>
                            <g transform="matrix(1,0,0,1,198.289,71.1256)">
                                <path d="M0,107.485L19.359,102.039C13.574,66.494 34.153,31.39 68.427,19.303L62.998,0C18.115,15.135 -8.664,61.278 0,107.485" style="fill:rgb(209,211,212);fill-rule:nonzero;"/>
                            </g>
                            <g transform="matrix(1,0,0,1,259.025,167.044)">
                                <path d="M0,-103.959L-5.419,-123.224C-65.335,-103.801 -100.909,-42.025 -88.106,19.265L-68.802,13.835C-78.68,-36.815 -49.309,-87.558 0,-103.959" style="fill:rgb(209,211,212);fill-rule:nonzero;"/>
                            </g>
                        </g>
                    </g>
                </g>
                <g id="Beacon-logo" transform="matrix(-0.164915,0,0,0.200147,480.779,251.505)">
                    <clipPath id="_clip1">
                        <rect x="-481.534" y="-703.203" width="795.047" height="768.65"/>
                    </clipPath>
                    <g clip-path="url(#_clip1)">
                        <g transform="matrix(1,0,0,1,-1181.1,-885.827)">
                            <g id="Layer-11" serif:id="Layer 1" transform="matrix(4.16667,0,0,4.16667,0,0)">
                                <g transform="matrix(1,0,0,1,309.769,98.3419)">
                                    <path d="M0,127.025C35.4,117.066 56.101,80.166 46.142,44.765C36.511,10.526 1.677,-9.957 -32.628,-2.255L-27.198,17.048C-3.528,12.306 20.245,26.563 26.889,50.181C33.86,74.965 19.369,100.801 -5.415,107.771C-30.2,114.744 -56.036,100.252 -63.007,75.467L-82.26,80.882C-72.303,116.283 -35.401,136.982 0,127.025" style="fill:rgb(82,128,148);fill-rule:nonzero;"/>
                                </g>
                                <g>
                                    <g transform="matrix(1,0,0,1,225.746,98.4849)">
                                        <path d="M0,72.402L19.473,66.924C17.605,46.545 29.402,26.977 48.667,19.309L43.236,0C13.386,10.801 -4.604,41.313 0,72.402" style="fill:rgb(237,28,36);fill-rule:nonzero;"/>
                                    </g>
                                    <g transform="matrix(1,0,0,1,198.289,71.1256)">
                                        <path d="M0,107.485L19.359,102.039C13.574,66.494 34.153,31.39 68.427,19.303L62.998,0C18.115,15.135 -8.664,61.278 0,107.485" style="fill:rgb(180,24,30);fill-rule:nonzero;"/>
                                    </g>
                                    <g transform="matrix(1,0,0,1,259.025,167.044)">
                                        <path d="M0,-103.959L-5.419,-123.224C-65.335,-103.801 -100.909,-42.025 -88.106,19.265L-68.802,13.835C-78.68,-36.815 -49.309,-87.558 0,-103.959" style="fill:rgb(150,22,25);fill-rule:nonzero;"/>
                                    </g>
                                </g>
                            </g>
                        </g>
                    </g>
                </g>
            </g>
        </g>
    </g>
</svg>
