<?xml version="1.0" encoding="UTF-8" standalone="no"?><!DOCTYPE svg PUBLIC "-//W3C//DTD SVG 1.1//EN" "http://www.w3.org/Graphics/SVG/1.1/DTD/svg11.dtd"><svg width="100%" height="100%" viewBox="0 0 1059 917" version="1.1" xmlns="http://www.w3.org/2000/svg" xmlns:xlink="http://www.w3.org/1999/xlink" xml:space="preserve" xmlns:serif="http://www.serif.com/" style="fill-rule:evenodd;clip-rule:evenodd;stroke-miterlimit:10;"><rect id="Artboard1" x="0" y="0" width="1060.08" height="917.17" style="fill:none;"/><clipPath id="_clip1"><rect x="0" y="0" width="1060.08" height="917.17"/></clipPath><g clip-path="url(#_clip1)"><g id="Layer_2"><g id="Layer_2-2"><g id="Home"><path d="M691.958,396.69c0,-25.434 -20.649,-46.084 -46.083,-46.084l-208.125,0c-25.434,0 -46.083,20.65 -46.083,46.084l0,17.041c0,25.434 20.649,46.084 46.083,46.084l208.125,0c25.434,0 46.083,-20.65 46.083,-46.084l0,-17.041Z" style="fill:none;stroke:#ccc;stroke-width:6.25px;"/><text x="425.496px" y="542.893px" style="font-family:'Lato-Light', 'Lato', sans-serif;font-weight:300;font-size:75px;">HOME</text></g><g id="Alert-arrow"><path d="M521.511,258.958l22.067,-10.517l22.885,8.587l-24.753,-52.313l-20.199,54.243Z" style="fill:#231f20;fill-rule:nonzero;"/><path d="M542.429,248.66l-0.762,92.672" style="fill-rule:nonzero;stroke:#000;stroke-width:6.55px;stroke-miterlimit:4;"/></g><path d="M535.375,6.864l12.5,0c4.708,0.75 9.458,1.333 14.167,2.291c36.274,8.144 64.422,37.128 71.5,73.625c0.666,3.834 1.166,7.667 1.75,11.542l0,12.5c-0.334,2.583 -0.625,5.208 -1.042,7.792c-3.146,21.053 -13.449,40.393 -29.167,54.75c-12.821,12.033 -28.86,20.096 -46.166,23.208c-3.834,0.708 -7.709,1.125 -11.542,1.708l-11.417,0c-0.5,-0.166 -1.017,-0.278 -1.541,-0.333c-12.985,-0.877 -25.619,-4.604 -37,-10.917c-24.877,-13.162 -42.418,-37 -47.584,-64.666c-0.791,-3.792 -1.208,-7.667 -1.791,-11.542l0,-12.5c0.666,-4.167 0.958,-8.667 2,-12.875c9.791,-39.458 34.5,-63.833 74.166,-72.875c3.417,-0.833 7.584,-1.167 11.167,-1.708Zm72.333,148.583c0.334,-0.417 0.834,-0.875 1.209,-1.417c17.224,-21.029 23.112,-49.208 15.75,-75.375c-10.714,-41.479 -51.101,-68.776 -93.584,-63.25c-20.919,2.272 -40.194,12.476 -53.833,28.5c-27.492,31.186 -28.57,78.084 -2.542,110.5c0.75,0.917 1.292,1.334 2.584,0.834l38.583,-13.667c0.896,-0.389 1.56,-1.176 1.792,-2.125c0.454,-4.946 -0.215,-9.932 -1.959,-14.583c-1.347,-3.73 -2.501,-7.527 -3.458,-11.375c-0.301,-0.979 -0.692,-1.927 -1.167,-2.834c-4.666,-8.333 -7.666,-17.083 -4.958,-26.875c0.227,-0.869 0.311,-1.77 0.25,-2.666c-0.156,-4.047 -0.545,-8.082 -1.167,-12.084c-2.685,-14.493 4.865,-29.076 18.25,-35.25c9.102,-3.751 19.138,-4.624 28.75,-2.5c15.338,2.587 26.678,16.001 26.678,31.555c0,1.91 -0.171,3.816 -0.511,5.695c-1.584,6.22 -1.584,12.739 0,18.959c0.189,0.878 0.189,1.788 0,2.666c-0.182,7.396 -2.387,14.602 -6.375,20.834c-0.313,0.505 -0.551,1.052 -0.708,1.625c-1.584,5 -3,10.041 -4.792,14.958c-1.416,3.466 -2.152,7.173 -2.167,10.917c0,1.833 0.625,2.708 2.375,3.166c3.042,0.834 6.042,1.792 9.042,2.792l31.958,11Z" style="fill:#528093;fill-rule:nonzero;"/><circle cx="541.667" cy="100.614" r="93.75" style="fill:none;stroke:#528093;stroke-width:14.42px;stroke-miterlimit:4;"/></g><text x="702.859px" y="707.914px" style="font-family:'Lato-Light', 'Lato', sans-serif;font-weight:300;font-size:62.5px;">PING!</text><text x="707.719px" y="333.295px" style="font-family:'Lato-Light', 'Lato', sans-serif;font-weight:300;font-size:62.5px;">ALER<tspan x="852.657px " y="333.295px ">T</tspan>!</text></g><g id="Layer_2-21" serif:id="Layer_2-2"><g id="Device"><path d="M458,888.845c0.05,3.76 -0.571,7.499 -1.833,11.041c-1.123,3.108 -2.883,5.946 -5.167,8.334c-2.26,2.322 -4.987,4.14 -8,5.333c-3.286,1.25 -6.777,1.872 -10.292,1.833l-19.375,0l0,-53.083l19.375,0c3.515,-0.038 7.006,0.584 10.292,1.833c3.009,1.181 5.736,2.985 8,5.292c2.275,2.394 4.034,5.231 5.167,8.333c1.264,3.557 1.885,7.31 1.833,11.084Zm-4.167,0c0.04,-3.368 -0.481,-6.72 -1.541,-9.917c-0.875,-2.703 -2.293,-5.198 -4.167,-7.333c-1.881,-2.011 -4.187,-3.577 -6.75,-4.584c-2.776,-1.075 -5.731,-1.612 -8.708,-1.583l-15.459,0l0,46.833l15.5,0c2.979,0.05 5.938,-0.488 8.709,-1.583c2.56,-0.992 4.866,-2.543 6.75,-4.542c1.879,-2.147 3.297,-4.657 4.166,-7.375c1.12,-3.186 1.698,-6.538 1.709,-9.916l-0.209,0Z" style="fill-rule:nonzero;"/><path d="M502.125,862.303l0,3.208l-27.917,0l0,21.459l23.334,0l0,3.083l-23.334,0l0,22.125l27.917,0l0,3.208l-31.792,0l0,-53.083l31.792,0Z" style="fill-rule:nonzero;"/><path d="M507.375,862.303l3,0c0.316,-0.006 0.626,0.097 0.875,0.292c0.248,0.194 0.436,0.454 0.542,0.75l18.083,44c0.468,1.191 0.844,2.417 1.125,3.666c0.269,-1.252 0.645,-2.479 1.125,-3.666l18,-43.792c0.121,-0.276 0.307,-0.519 0.542,-0.708c0.248,-0.327 0.631,-0.526 1.041,-0.542l3,0l-22.041,53.083l-3.417,0l-21.875,-53.083Z" style="fill-rule:nonzero;"/><rect x="564.208" y="862.303" width="4.167" height="53.083" style="fill-rule:nonzero;"/><path d="M623.958,906.47c0.246,-0.006 0.485,0.084 0.667,0.25l1.5,1.625c-1.109,1.164 -2.323,2.224 -3.625,3.166c-1.303,0.933 -2.7,1.729 -4.167,2.375c-1.622,0.687 -3.312,1.204 -5.041,1.542c-2.005,0.383 -4.043,0.565 -6.084,0.542c-3.456,0.049 -6.886,-0.603 -10.083,-1.917c-3.012,-1.227 -5.716,-3.105 -7.917,-5.5c-2.254,-2.402 -3.998,-5.237 -5.125,-8.333c-1.252,-3.588 -1.872,-7.367 -1.833,-11.167c-0.047,-3.763 0.588,-7.504 1.875,-11.042c1.194,-3.184 3.007,-6.102 5.333,-8.583c2.261,-2.494 5.013,-4.495 8.084,-5.875c3.368,-1.331 6.962,-1.996 10.583,-1.958c1.759,-0.02 3.516,0.12 5.25,0.416c1.538,0.268 3.045,0.686 4.5,1.25c1.37,0.533 2.682,1.203 3.917,2c1.261,0.842 2.459,1.775 3.583,2.792l-1.125,1.667c-0.222,0.303 -0.583,0.475 -0.958,0.458c-0.32,-0.044 -0.623,-0.173 -0.875,-0.375c-0.427,-0.357 -0.872,-0.69 -1.334,-1c-0.5,-0.375 -1.166,-0.792 -1.916,-1.25c-0.863,-0.536 -1.786,-0.97 -2.75,-1.292c-2.68,-0.927 -5.498,-1.392 -8.334,-1.375c-3.051,-0.022 -6.079,0.544 -8.916,1.667c-2.626,1.079 -4.997,2.697 -6.959,4.75c-2.013,2.177 -3.558,4.744 -4.541,7.542c-1.16,3.16 -1.725,6.509 -1.667,9.875c-0.051,3.416 0.499,6.815 1.625,10.041c0.977,2.757 2.493,5.293 4.458,7.459c1.891,2.031 4.192,3.636 6.75,4.708c2.642,1.09 5.476,1.643 8.334,1.625c1.701,0.014 3.402,-0.112 5.083,-0.375c1.425,-0.225 2.822,-0.602 4.167,-1.125c1.261,-0.433 2.475,-0.991 3.625,-1.667c1.122,-0.76 2.181,-1.61 3.166,-2.541c0.105,-0.111 0.233,-0.197 0.375,-0.25c0.108,-0.081 0.24,-0.125 0.375,-0.125Z" style="fill-rule:nonzero;"/><path d="M670,862.303l0,3.208l-27.958,0l0,21.459l23.25,0l0,3.083l-23.25,0l0,22.125l27.958,0l0,3.208l-31.792,0l0,-53.083l31.792,0Z" style="fill-rule:nonzero;"/><path d="M691.958,768.886c0,-25.434 -20.649,-46.083 -46.083,-46.083l-208.125,0c-25.434,0 -46.083,20.649 -46.083,46.083l0,17.042c0,25.434 20.649,46.083 46.083,46.083l208.125,0c25.434,0 46.083,-20.649 46.083,-46.083l0,-17.042Z" style="fill:none;stroke:#ccc;stroke-width:6.25px;"/><circle cx="541.583" cy="759.22" r="13.667" style="fill:#ec1c24;"/><circle cx="541.583" cy="381.906" r="13.667" style="fill:#ec1c24;"/><path d="M598.042,673.928l-19.959,18.25c-21.973,-16.549 -52.408,-16.736 -74.583,-0.458l-18.083,-19.834c33.16,-25.991 80.428,-25.134 112.625,2.042Z" style="fill:#ec1c24;fill-rule:nonzero;"/><path d="M624.708,651.261l-19.833,18.125c-36.421,-31.641 -90.756,-32.769 -128.458,-2.666l-18.084,-19.834c48.627,-39.895 119.913,-38.02 166.375,4.375Z" style="fill:#b4191e;fill-rule:nonzero;"/><path d="M449.708,638.553l-18.041,-19.583c63.996,-53.867 159.342,-50.977 219.958,6.666l-19.792,18.084c-50.591,-46.922 -128.954,-49.145 -182.125,-5.167Z" style="fill:#95171a;fill-rule:nonzero;"/></g></g></g></svg>