<svg xmlns="http://www.w3.org/2000/svg" viewBox="0 0 255.6 127.73"><defs><style>.cls-1{fill:#528093;}.cls-2{fill:#ec1c24;}.cls-3{fill:#b4191e;}.cls-4{fill:#95171a;}.cls-5{fill:#fff;}.cls-6{fill:red;}.cls-10,.cls-7,.cls-9{fill:none;}.cls-8{fill:#231f20;}.cls-9{stroke:#000;stroke-width:2.28px;}.cls-10,.cls-9{stroke-miterlimit:10;}.cls-10{stroke:#528093;stroke-width:3.46px;}</style></defs><title>Asset 12</title><g id="Layer_2" data-name="Layer 2"><g id="Layer_1-2" data-name="Layer 1"><path class="cls-1" d="M16.63,126.09a22.8,22.8,0,0,1,11.15-44.2l-1.85,6.6a16,16,0,1,0,12.24,20l6.58,1.85A22.83,22.83,0,0,1,16.63,126.09Z"/><path class="cls-2" d="M45.36,107.46l-6.66-1.87a16,16,0,0,0-10-16.28l1.85-6.6A22.83,22.83,0,0,1,45.36,107.46Z"/><path class="cls-3" d="M54.74,110.1l-6.62-1.86A25.69,25.69,0,0,0,31.35,80l1.86-6.6A32.54,32.54,0,0,1,54.74,110.1Z"/><path class="cls-4" d="M34,70.6,35.83,64A42.23,42.23,0,0,1,64.1,112.73l-6.6-1.85A35.4,35.4,0,0,0,34,70.6Z"/></g><g id="Layer_2-2" data-name="Layer 2"><rect x="86.87" width="93.46" height="45" rx="12" ry="12"/><path class="cls-5" d="M98.76,11.31c0-.77,0-1.39,0-1.85a2.72,2.72,0,0,0-.2-1.06A.93.93,0,0,0,98,7.9a5.46,5.46,0,0,0-1.07-.22.23.23,0,0,1-.21-.13.92.92,0,0,1-.08-.27A.45.45,0,0,1,96.68,7a.23.23,0,0,1,.23-.13c.51,0,1.1-.09,1.76-.16a10.8,10.8,0,0,0,2-.41c.25-.07.42,0,.5,0a.61.61,0,0,1,.14.31v7.71s0,.06,0,.06.06,0,.08-.06a5,5,0,0,1,1.47-1.4,4.21,4.21,0,0,1,2.35-.61,4.11,4.11,0,0,1,2,.49,4.83,4.83,0,0,1,1.49,1.32,6.14,6.14,0,0,1,.91,1.89,7.9,7.9,0,0,1,.31,2.23,7.85,7.85,0,0,1-.55,3.08,6.13,6.13,0,0,1-1.49,2.15,6.23,6.23,0,0,1-2.18,1.26,8,8,0,0,1-2.6.42,18.31,18.31,0,0,1-2-.12,11.7,11.7,0,0,1-2.36-.58Zm2.52,10.93a1.16,1.16,0,0,0,.19.48,2.34,2.34,0,0,0,.53.62,3.71,3.71,0,0,0,.8.53,2.36,2.36,0,0,0,1,.22,2.75,2.75,0,0,0,1.61-.44,3,3,0,0,0,1-1.21,6,6,0,0,0,.52-1.76,14.4,14.4,0,0,0,0-3.85,4.88,4.88,0,0,0-.39-1.44,2.4,2.4,0,0,0-.79-1,2.28,2.28,0,0,0-1.34-.36,3,3,0,0,0-1.29.27,3.94,3.94,0,0,0-1,.64,2.79,2.79,0,0,0-.67.84,1.67,1.67,0,0,0-.25.8Z"/><path class="cls-5" d="M113.91,18.08q-.14,0-.15.09a1.62,1.62,0,0,0,0,.23,7.67,7.67,0,0,0,.31,2.36,4.12,4.12,0,0,0,.86,1.58,3.15,3.15,0,0,0,1.31.87,4.92,4.92,0,0,0,1.65.27,10.43,10.43,0,0,0,1.78-.15,3.09,3.09,0,0,0,1.47-.66.35.35,0,0,1,.29-.08.47.47,0,0,1,.24.13.64.64,0,0,1,.12.25.26.26,0,0,1-.06.24,4.61,4.61,0,0,1-1.93,1.56,8.28,8.28,0,0,1-5.44-.06,5.09,5.09,0,0,1-1.93-1.35,5.63,5.63,0,0,1-1.13-2.05,8.5,8.5,0,0,1-.36-2.53,7,7,0,0,1,.44-2.5,6,6,0,0,1,3.16-3.41,5.7,5.7,0,0,1,2.44-.51,5.29,5.29,0,0,1,2.06.39,4.56,4.56,0,0,1,1.57,1.07,4.85,4.85,0,0,1,1,1.64,5.57,5.57,0,0,1,.37,2.05c0,.38-.14.57-.41.57Zm4.91-.94c.25,0,.4-.09.43-.27a3,3,0,0,0,.06-.65,3.31,3.31,0,0,0-.18-1.08,3,3,0,0,0-.49-.93,2.52,2.52,0,0,0-.78-.64,2.14,2.14,0,0,0-1-.25,2.74,2.74,0,0,0-2.14.93,3,3,0,0,0-.55,1,7.51,7.51,0,0,0-.27,1.18,2.75,2.75,0,0,0,0,.53c0,.13,0,.2.13.2Z"/><path class="cls-5" d="M132.52,22a3.34,3.34,0,0,0,.18,1.31.67.67,0,0,0,.68.38,1.37,1.37,0,0,0,.49-.07,3.14,3.14,0,0,0,.53-.28.15.15,0,0,1,.18,0,.56.56,0,0,1,.16.15.67.67,0,0,1,.09.21.2.2,0,0,1-.05.2,3.11,3.11,0,0,1-2.47,1.27,2.11,2.11,0,0,1-1.33-.42,2.63,2.63,0,0,1-.82-1c0-.09-.09-.1-.16,0a6.25,6.25,0,0,1-1.63,1,5.81,5.81,0,0,1-2.32.41,3.24,3.24,0,0,1-2.36-.82,3.11,3.11,0,0,1-.84-2.33,3.24,3.24,0,0,1,1.8-3,10.69,10.69,0,0,1,5.24-1s.06,0,.08-.13a3.82,3.82,0,0,0,0-.62v-.73a7.29,7.29,0,0,0-.11-1.26,3.13,3.13,0,0,0-.36-1,1.84,1.84,0,0,0-.71-.7,2.33,2.33,0,0,0-1.13-.26,3,3,0,0,0-1.61.39,1.15,1.15,0,0,0-.62,1,1,1,0,0,0,.19.58,1.07,1.07,0,0,1,.18.58,1,1,0,0,1-.37.72,1.32,1.32,0,0,1-.92.35,1.24,1.24,0,0,1-1-.39,1.47,1.47,0,0,1-.31-.95,2.39,2.39,0,0,1,.38-1.28,3.34,3.34,0,0,1,1-1,5.45,5.45,0,0,1,1.5-.69,6.36,6.36,0,0,1,1.8-.25,5.3,5.3,0,0,1,3.39,1,4,4,0,0,1,1.23,3.3ZM130,19.37a1.31,1.31,0,0,0,0-.37s-.06-.06-.13-.06a6.82,6.82,0,0,0-3.27.92,2.32,2.32,0,0,0-.66,3.25,1.56,1.56,0,0,0,1.35.55,4,4,0,0,0,1.3-.24,3.7,3.7,0,0,0,1.22-.7.58.58,0,0,0,.22-.42Z"/><path class="cls-5" d="M137.25,18.35a7.64,7.64,0,0,0,.24,1.94,5,5,0,0,0,.74,1.64,3.58,3.58,0,0,0,1.28,1.13,3.87,3.87,0,0,0,1.88.42,11.23,11.23,0,0,0,1.84-.15,3,3,0,0,0,1.51-.69.22.22,0,0,1,.24-.06.67.67,0,0,1,.25.13.43.43,0,0,1,.14.23.23.23,0,0,1,0,.24,4.46,4.46,0,0,1-2.06,1.6,8.38,8.38,0,0,1-2.8.42,7.34,7.34,0,0,1-2.15-.33A5.19,5.19,0,0,1,135,21.8a7.83,7.83,0,0,1-.54-3.1,7.09,7.09,0,0,1,.44-2.49,5.69,5.69,0,0,1,1.29-2,6.29,6.29,0,0,1,2.08-1.35,7.67,7.67,0,0,1,2.85-.49,5.92,5.92,0,0,1,1.52.19,4.17,4.17,0,0,1,1.31.55,2.86,2.86,0,0,1,.93.9,2.16,2.16,0,0,1,.35,1.2,1.53,1.53,0,0,1-.32.92,1.22,1.22,0,0,1-1,.43,1.4,1.4,0,0,1-.93-.3,1,1,0,0,1-.36-.86.92.92,0,0,1,.2-.62.74.74,0,0,0,.2-.45c0-.32-.21-.57-.64-.74a3.87,3.87,0,0,0-1.43-.26,3.17,3.17,0,0,0-1.7.43,3.45,3.45,0,0,0-1.13,1.15,4.67,4.67,0,0,0-.63,1.61A8.64,8.64,0,0,0,137.25,18.35Z"/><path class="cls-5" d="M158,18.43a8.62,8.62,0,0,1-.45,2.9,5.88,5.88,0,0,1-1.3,2.12,5.53,5.53,0,0,1-2,1.3,7.37,7.37,0,0,1-2.63.45,6.32,6.32,0,0,1-2.34-.42,4.91,4.91,0,0,1-1.85-1.24,5.75,5.75,0,0,1-1.24-2.06,8.74,8.74,0,0,1-.46-2.95,6.79,6.79,0,0,1,.46-2.51,5.43,5.43,0,0,1,1.28-1.94,5.82,5.82,0,0,1,2-1.27,6.88,6.88,0,0,1,2.52-.45,7.14,7.14,0,0,1,2.44.4,5.23,5.23,0,0,1,3.18,3.06A7,7,0,0,1,158,18.43Zm-2.82.29a14.21,14.21,0,0,0-.13-2,6.09,6.09,0,0,0-.48-1.72,3.16,3.16,0,0,0-1-1.21,2.55,2.55,0,0,0-1.58-.46,3,3,0,0,0-1.75.46A3.15,3.15,0,0,0,149.19,15a5.75,5.75,0,0,0-.54,1.73,13.24,13.24,0,0,0-.15,2,13.66,13.66,0,0,0,.14,1.88,5.88,5.88,0,0,0,.51,1.74,3.53,3.53,0,0,0,1,1.29,2.67,2.67,0,0,0,1.68.51,2.75,2.75,0,0,0,1.69-.48,3.23,3.23,0,0,0,1-1.26A5.91,5.91,0,0,0,155,20.7,16.32,16.32,0,0,0,155.16,18.72Z"/><path class="cls-5" d="M162,21.68c0,.45,0,.82,0,1.13a2,2,0,0,0,.15.75.88.88,0,0,0,.4.45,2.45,2.45,0,0,0,.79.25.3.3,0,0,1,.24.14.47.47,0,0,1,.08.29.39.39,0,0,1-.08.25.26.26,0,0,1-.24.12,10.06,10.06,0,0,1-1-.09,12.58,12.58,0,0,0-1.54-.1,15.13,15.13,0,0,0-1.67.1,13.51,13.51,0,0,1-1.5.09.26.26,0,0,1-.22-.12.46.46,0,0,1-.08-.25.55.55,0,0,1,.08-.29.34.34,0,0,1,.25-.14,5.12,5.12,0,0,0,1-.22,1.07,1.07,0,0,0,.54-.4,1.52,1.52,0,0,0,.2-.7c0-.29,0-.65,0-1.1V18.45c0-.87,0-1.6,0-2.18a5.27,5.27,0,0,0-.19-1.39,1.19,1.19,0,0,0-.51-.71,2,2,0,0,0-1-.2.33.33,0,0,1-.26-.11.36.36,0,0,1-.09-.24.4.4,0,0,1,.09-.27.33.33,0,0,1,.26-.11,9.7,9.7,0,0,0,1.49-.16,19.61,19.61,0,0,0,2-.45.45.45,0,0,1,.56.14.94.94,0,0,1,.19.58v1.08a.05.05,0,0,0,0,.06s.05,0,.07,0a5.64,5.64,0,0,1,.52-.66,4.28,4.28,0,0,1,.81-.68,4.59,4.59,0,0,1,1.06-.54,3.87,3.87,0,0,1,1.31-.21,4.33,4.33,0,0,1,3.16,1.11,4.9,4.9,0,0,1,1.14,3.61v4.6c0,.48,0,.87,0,1.18a2,2,0,0,0,.19.74,1,1,0,0,0,.46.43,3.14,3.14,0,0,0,.87.23.3.3,0,0,1,.24.14.47.47,0,0,1,.08.29.39.39,0,0,1-.08.25.26.26,0,0,1-.24.12q-.34,0-1.14-.09a12.17,12.17,0,0,0-1.6-.1,12.35,12.35,0,0,0-1.64.1,11.65,11.65,0,0,1-1.29.09.24.24,0,0,1-.21-.12.39.39,0,0,1-.08-.25.47.47,0,0,1,.08-.29.3.3,0,0,1,.24-.14,3,3,0,0,0,.9-.25,1,1,0,0,0,.46-.44,1.94,1.94,0,0,0,.17-.7c0-.27,0-.62,0-1V17.76q0-.68-.06-1.35a3.58,3.58,0,0,0-.29-1.21,2.32,2.32,0,0,0-.7-.88,2.05,2.05,0,0,0-1.26-.35,3.59,3.59,0,0,0-1.41.25,2.87,2.87,0,0,0-1,.69,3,3,0,0,0-.64,1,3.51,3.51,0,0,0-.21,1.22Z"/><path class="cls-6" d="M126.57,26c0,.19,0,.39-.08.62l-.27.83-.52,1.71a7.32,7.32,0,0,0-.38,1.48c.33-.06.74-.06,1.07-.15.06,0,.13,0,.2,0s0-.11.07-.1.2,0,.19.17-.32.28-.42.31c-.25.11-.54.13-.78.24a1.57,1.57,0,0,0-.38.22c-.26.19-.36.81-.44,1.13l-.32,1.42c-.14.53-.16,1-.26,1.56-.21,1.11-.46,2.22-.65,3.34-.1.6-.18,1.3-1,1a.84.84,0,0,1-.54-.8,14.15,14.15,0,0,1,.23-1.82c.11-.74.26-1.45.43-2.16.24-1,.35-2,.6-3a6.41,6.41,0,0,1-.84.35c-.34.09-.68.2-1,.31s-1,.25-1.11.52a3.44,3.44,0,0,0-.17.88l0,.48c0,.53-.14,1.06-.21,1.59s-.17,1.18-.22,1.77c0,.35.07,1.11-.31,1.26s-1-.34-1.16-.7a2.42,2.42,0,0,1,0-1.07c.13-1.34.38-2.64.55-4-.25,0-.78-.18-.69-.53,0-.16.29-.26.42-.31s.4-.07.49-.36.11-.44.15-.66c.09-.47.2-.93.29-1.39.34-1.53.64-3,1.11-4.52a2.2,2.2,0,0,0,.13-.36s0-.21,0-.19c.13-.26.47-.27.73-.21s.78.27.71.68a5.1,5.1,0,0,1-.29.64c-.07.23,0,.54-.13.83s-.18.73-.29,1.09c-.2.61-.32,1.24-.48,1.87-.11.37,0,.7-.14,1.08a5.9,5.9,0,0,1-.2.83,11.63,11.63,0,0,0,1.26-.42l.75-.18a3.63,3.63,0,0,0,.82-.19c.28-.19.37-1.21.46-1.58l.41-1.71.74-2.92c.07-.28,0-.49.41-.49a1.43,1.43,0,0,1,1.14.62C126.91,25.39,126.66,25.64,126.57,26ZM121,28.61c-.21.77-.56,1.53-.71,2.32s-.26,1.54-.38,2.33c.11-.62.25-1.23.39-1.86Zm0-.07,0-.09S121,28.5,121,28.54Zm2.56,8.33a3,3,0,0,0-.24.6,3.62,3.62,0,0,0,0,.57,1.77,1.77,0,0,1,.08-.31A3.62,3.62,0,0,0,123.57,36.87Z"/><path class="cls-6" d="M132.31,32.11a2,2,0,0,1-.23.09c-.15.09-.12.07-.21.24s-.18.46-.26.68-.5,1.05-.62,1,.1-.18.08-.2l-.38.65c0-.06.07-.08.07-.07,0,.3-.54.73-.75.95a2.11,2.11,0,0,1-.87.59,2,2,0,0,1-1,0,2.21,2.21,0,0,1-1.51-2.64,11.21,11.21,0,0,1,.59-1.81,3.38,3.38,0,0,1,.66-.89,1.91,1.91,0,0,1,.41-.33c.1-.09.34-.14.42-.22a3.25,3.25,0,0,0,.15-.68c.05-.14.11-.29.17-.42a2.89,2.89,0,0,1,.71-1,1.3,1.3,0,0,1,1.61.15s.31.13.31.24l-.07-.06.09.12v0c-.07-.13.17.09.17.09a1.15,1.15,0,0,1,.24.4,2.13,2.13,0,0,1,.13.71,11.2,11.2,0,0,1-.12,1.91c.48-.17,1-.37,1.42-.55.11-.05.21-.16.32-.06s0,0,0,0C134.4,31.58,132.48,32.05,132.31,32.11Zm-1.55.32a2,2,0,0,1-2-.93,7.49,7.49,0,0,0-.42,1.13l.08-.17c0,.17-1.09,3.36.25,2.92h0C129.78,35,130.45,33.47,130.76,32.43Zm.15-3.86c-.42-.46-.9.39-1.09.77a0,0,0,0,0,0,0v0h0s0,.05,0,.05a3.71,3.71,0,0,0-.21.44s.14-.35.17-.3-.16.68-.19.78a4.08,4.08,0,0,0-.08.85c0,.29,0,.61.31.77a1,1,0,0,0,.56.07,1.13,1.13,0,0,0,.41-.05c.16-.07.12,0,.17-.19a5.46,5.46,0,0,0,.21-1.57C131.14,29.81,131.23,29,130.91,28.57Zm-1.09.77,0,0S129.82,29.35,129.82,29.34Z"/><path class="cls-6" d="M142.41,31.05c-.31.67-.62,1.35-1,2-.25.47-.69,1.35-1.27,1.46-.11,0-.84-.07-.83-.21h0s0,0-.07-.07A1,1,0,0,1,139,34a2,2,0,0,1-.29-.56,6.77,6.77,0,0,1-.21-1,2.91,2.91,0,0,1,0-1c0-.07.15-1.05.25-1.05s0,.14,0,.15c0-.17.06-.35.09-.54a.34.34,0,0,1-.05.11s.25-1.22.3-1.42c-.45.61-.61,1.37-1.07,2a8.51,8.51,0,0,0-.64,1.63c-.16.44-.27,1.07-.89.65a.87.87,0,0,1-.35-.47,2,2,0,0,1,0-.65,1.8,1.8,0,0,0-.06-.45,8.09,8.09,0,0,1,.37-1.85c0-.19.37-1.29.1-1.26a3.2,3.2,0,0,0-.26.44,7.23,7.23,0,0,0-.44.82c-.4.94-.6,1.84-.92,2.8-.12.38-.21.75-.31,1.11,0,.18-.13.35-.15.52a1.61,1.61,0,0,1,0,.22c-.11.33-.83,0-1-.16-.42-.35-.35-.76-.45-1.22a4.82,4.82,0,0,1,.09-1.85,5.74,5.74,0,0,1,.18-.9,4.4,4.4,0,0,0,.21-.5c0-.09-.05-.16.09-.25s.29,0,.4.06.28.3.38.38.28.16.25.4c0,0,0,.07,0,.11s-.2.36-.28.54a.75.75,0,0,0-.11.28c0,.12,0,.16,0,.28s-.11.46-.12.7a2.83,2.83,0,0,0,0,.5,2.41,2.41,0,0,1,.12.48c.18-.44.21-1,.37-1.43s.34-1.18.56-1.75.44-.91.63-1.39.44-.94.86-1.06c.58-.19,1.17.46,1.13,1s-.22.89-.3,1.31c-.1.62-.17,1.24-.23,1.85a13.09,13.09,0,0,1,.5-1.35l-.26.5a20.3,20.3,0,0,1,1.17-2.33c.37-.5,1.24-1.13,1.64-.26a4.22,4.22,0,0,1-.06,2.51,12.11,12.11,0,0,0-.43,2.14.27.27,0,0,1,.05-.11s0,.81.17.82c.33,0,.82-1,1-1.22.36-.58.7-1.18,1-1.77.06-.11.62-1.23.8-.88,0,0,0,0,0,0C142.93,30.08,142.57,30.7,142.41,31.05Zm-5.77-1.48v0a3,3,0,0,0,.08-1.31,4.65,4.65,0,0,1-.15,1.49c-.1.41-.23.83-.3,1.25a4.36,4.36,0,0,0,0,1.2,4,4,0,0,1,.15-1.15,12.38,12.38,0,0,1,.23-1.42l0-.06h0Z"/><path class="cls-6" d="M147.85,29l-.4.77-.69,1.31c-.18.34-.41.66-.59,1a11.87,11.87,0,0,1-.58,1.12,4.2,4.2,0,0,1-.89,1,1.1,1.1,0,0,1-.83.23,2.27,2.27,0,0,1-1.22-.52.77.77,0,0,1-.23-.28,2.62,2.62,0,0,1-.09-.33,2.1,2.1,0,0,1,0-.56c0-.22.06-.44.05-.66s0-.46,0-.68a4.2,4.2,0,0,1-.07-.62c0-.14.09-.29.11-.44a1.5,1.5,0,0,0-.1.3c0,.14,0,.28-.07.41s0,.26,0,.4a1.49,1.49,0,0,0-.07.47c0,.15.05.3.06.45a1.48,1.48,0,0,0,0,.42s.06.15.06.18a2.09,2.09,0,0,0,0,.24,2.81,2.81,0,0,0,.13.45,2,2,0,0,1-.38-1.4c0-.51,0-1,0-1.5a6.77,6.77,0,0,1,.83-2.94,2.14,2.14,0,0,1,1.9-1.38,1.5,1.5,0,0,1,1,.34,1.15,1.15,0,0,1,.28,1.06,3.79,3.79,0,0,1-1,1.8,5.17,5.17,0,0,1-.6.64,4.13,4.13,0,0,1-.49.32l-.27.15c-.11,0-.12,0-.16.14s0,.34,0,.51,0,.43,0,.65a3.24,3.24,0,0,0,.11,1.35c.33.81,1.49-.74,1.7-1s.26-.37.38-.54.15-.22.2-.33a1,1,0,0,0,0-.12,7.89,7.89,0,0,1,.55-1c.24-.4.44-.81.66-1.24.11-.24.35-.91.69-.51v0s0,0,0,0S147.92,28.87,147.85,29Zm-4.18,1.13a4.79,4.79,0,0,0,1.19-1.35l.22-.41a1.26,1.26,0,0,0,.13-.26c0-.09,0-.15,0-.25v-.36c0-.17-.15-.59-.39-.49a.75.75,0,0,0-.25.31l-.23.45a10.35,10.35,0,0,0-.5,1.74.18.18,0,0,1,0,.05C143.74,29.73,143.72,29.92,143.67,30.12Z"/><path d="M72,90.71V95H70.42V83.54h3.39a6.32,6.32,0,0,1,1.89.25A3.59,3.59,0,0,1,77,84.5a2.94,2.94,0,0,1,.79,1.12,4,4,0,0,1,.26,1.47,3.65,3.65,0,0,1-.28,1.46A3.15,3.15,0,0,1,77,89.7a3.69,3.69,0,0,1-1.34.74,5.68,5.68,0,0,1-1.83.27Zm0-1.23h1.84A3.51,3.51,0,0,0,75,89.3a2.29,2.29,0,0,0,.85-.49,2,2,0,0,0,.52-.75,2.58,2.58,0,0,0,.18-1,2.2,2.2,0,0,0-.68-1.71,3,3,0,0,0-2-.62H72Z"/><path d="M81.88,95H80.33V83.54h1.55Z"/><path d="M86.06,83.59a.7.7,0,0,1,.23.21l6.64,8.64a2.8,2.8,0,0,1,0-.4c0-.13,0-.26,0-.38V83.54h1.36V95h-.79a.67.67,0,0,1-.3-.06.84.84,0,0,1-.25-.22l-6.63-8.63c0,.13,0,.26,0,.39s0,.25,0,.35V95H85V83.54h.8A.64.64,0,0,1,86.06,83.59Z"/><path d="M102.16,93.87a7.46,7.46,0,0,0,.85,0,7.34,7.34,0,0,0,.73-.13,4.13,4.13,0,0,0,.65-.22,5.51,5.51,0,0,0,.61-.28V90.67h-1.78a.32.32,0,0,1-.24-.09.27.27,0,0,1-.09-.21v-.88h3.52v4.4a6,6,0,0,1-.9.54,5.47,5.47,0,0,1-1,.39,7.93,7.93,0,0,1-1.14.23,10.89,10.89,0,0,1-1.32.08,5.88,5.88,0,0,1-2.29-.43A5.27,5.27,0,0,1,98,93.5a5.41,5.41,0,0,1-1.17-1.85,7.06,7.06,0,0,1,0-4.77A5.13,5.13,0,0,1,98,85a5.33,5.33,0,0,1,1.85-1.2,6.66,6.66,0,0,1,2.43-.42,7.15,7.15,0,0,1,1.26.1,6,6,0,0,1,1.09.29,4.62,4.62,0,0,1,.92.45,5.2,5.2,0,0,1,.79.61l-.44.7a.41.41,0,0,1-.35.22.57.57,0,0,1-.28-.09l-.45-.27a3.32,3.32,0,0,0-.6-.31,5,5,0,0,0-.84-.25,5.47,5.47,0,0,0-1.15-.11,4.66,4.66,0,0,0-1.75.32,3.77,3.77,0,0,0-1.34.9,4,4,0,0,0-.84,1.43,5.47,5.47,0,0,0-.3,1.87,5.56,5.56,0,0,0,.31,1.94,4,4,0,0,0,.87,1.45,3.78,3.78,0,0,0,1.32.9A4.47,4.47,0,0,0,102.16,93.87Z"/><path d="M109.14,94.12a1,1,0,0,1,.08-.39,1,1,0,0,1,.21-.32,1.16,1.16,0,0,1,.31-.22,1.1,1.1,0,0,1,.4-.08,1,1,0,0,1,.39.08,1.21,1.21,0,0,1,.32.22,1,1,0,0,1,.21.32,1,1,0,0,1,.08.39,1.06,1.06,0,0,1-.08.4,1,1,0,0,1-.21.31,1,1,0,0,1-.32.21,1,1,0,0,1-.39.08,1.1,1.1,0,0,1-.4-.08,1,1,0,0,1-.52-.52A1.06,1.06,0,0,1,109.14,94.12Zm1.7-10.58v4.57c0,.24,0,.48,0,.71s0,.46,0,.69,0,.47-.06.71,0,.5-.08.78h-1c0-.28-.06-.54-.08-.78s0-.48-.06-.71,0-.47,0-.69,0-.47,0-.71V83.54Z"/><path d="M160.7,95h-1.2a.53.53,0,0,1-.34-.1.66.66,0,0,1-.19-.27l-1.07-2.77h-5.15l-1.07,2.77a.67.67,0,0,1-.19.26.53.53,0,0,1-.34.11H150l4.59-11.46h1.57Zm-7.52-4.26h4.28l-1.8-4.66a10.09,10.09,0,0,1-.34-1.08l-.17.6c-.06.19-.11.35-.17.49Z"/><path d="M163.7,93.7h5V95h-6.52V83.54h1.56Z"/><path d="M177.43,83.54V84.8h-5.5v3.81h4.45v1.21h-4.45v3.92h5.5V95h-7.06V83.54Z"/><path d="M181.37,90.22V95h-1.55V83.54h3.24a6.88,6.88,0,0,1,1.88.22,3.56,3.56,0,0,1,1.31.63,2.53,2.53,0,0,1,.77,1,3.43,3.43,0,0,1,.24,1.31,3.25,3.25,0,0,1-.19,1.14,3.11,3.11,0,0,1-.55,1,3.48,3.48,0,0,1-.89.71,4.32,4.32,0,0,1-1.19.45,1.57,1.57,0,0,1,.51.49L188.3,95h-1.38a.67.67,0,0,1-.62-.33l-3-4.09a.88.88,0,0,0-.3-.28,1,1,0,0,0-.48-.08Zm0-1.13H183a4,4,0,0,0,1.2-.17,2.44,2.44,0,0,0,.86-.46,2,2,0,0,0,.53-.72,2.43,2.43,0,0,0,.17-.92,1.82,1.82,0,0,0-.67-1.54,3.27,3.27,0,0,0-2-.52h-1.69Z"/><path d="M197.36,83.54v1.3h-3.7V95H192.1V84.84h-3.72v-1.3Z"/><path d="M199.34,94.12a1,1,0,0,1,.08-.39,1,1,0,0,1,.21-.32,1.16,1.16,0,0,1,.31-.22,1.1,1.1,0,0,1,.4-.08,1,1,0,0,1,.39.08,1.21,1.21,0,0,1,.32.22,1,1,0,0,1,.21.32,1,1,0,0,1,.08.39,1.06,1.06,0,0,1-.08.4,1,1,0,0,1-.21.31,1,1,0,0,1-.32.21,1,1,0,0,1-.39.08,1.1,1.1,0,0,1-.4-.08,1,1,0,0,1-.52-.52A1.06,1.06,0,0,1,199.34,94.12ZM201,83.54v4.57c0,.24,0,.48,0,.71s0,.46,0,.69,0,.47-.06.71-.05.5-.08.78h-1c0-.28-.06-.54-.08-.78s-.05-.48-.06-.71,0-.47,0-.69,0-.47,0-.71V83.54Z"/><rect class="cls-7" x="84.8" y="48.1" width="18.57" height="15.67" transform="translate(-15.28 60.34) rotate(-33.04)"/><polygon class="cls-8" points="90.57 67.56 89.09 59.18 82.03 54.42 101.86 50.87 90.57 67.56"/><line class="cls-9" x1="89.26" y1="59.54" x2="63.15" y2="78.49"/><rect class="cls-7" x="186.25" y="63.58" width="15.67" height="18.57" transform="translate(27.18 195.83) rotate(-56.96)"/><polygon class="cls-8" points="190.57 61.24 189.09 69.62 182.03 74.37 201.86 77.93 190.57 61.24"/><line class="cls-9" x1="189.26" y1="69.25" x2="163.15" y2="50.3"/><path class="cls-1" d="M229.86,81h3c1.13.18,2.27.32,3.4.55a22.5,22.5,0,0,1,17.16,17.67c.16.92.28,1.84.42,2.77v3c-.08.62-.15,1.25-.25,1.87a22.25,22.25,0,0,1-7,13.14,21.84,21.84,0,0,1-11.08,5.57c-.92.17-1.85.27-2.77.41H230a1.76,1.76,0,0,0-.37-.08,21.26,21.26,0,0,1-8.88-2.62,22.16,22.16,0,0,1-11.42-15.52c-.19-.91-.29-1.84-.43-2.77v-3c.16-1,.23-2.08.48-3.09,2.35-9.47,8.28-15.32,17.8-17.49C228,81.21,229,81.13,229.86,81Zm17.36,35.66c.08-.1.2-.21.29-.34a20,20,0,0,0,3.78-18.09,20.47,20.47,0,0,0-22.46-15.18,19.77,19.77,0,0,0-12.92,6.84,20.6,20.6,0,0,0-.61,26.52c.18.22.31.32.62.2l9.26-3.28a.75.75,0,0,0,.43-.51,7.91,7.91,0,0,0-.47-3.5,27.78,27.78,0,0,1-.83-2.73,4,4,0,0,0-.28-.68c-1.12-2-1.84-4.1-1.19-6.45a2,2,0,0,0,.06-.64,25.2,25.2,0,0,0-.28-2.9A7.76,7.76,0,0,1,227,87.46a11.56,11.56,0,0,1,6.9-.6,7.68,7.68,0,0,1,6.28,8.94,9.22,9.22,0,0,0,0,4.55,1.52,1.52,0,0,1,0,.64,9.72,9.72,0,0,1-1.53,5,1.49,1.49,0,0,0-.17.39c-.38,1.2-.72,2.41-1.15,3.59a7,7,0,0,0-.52,2.62c0,.44.15.65.57.76.73.2,1.45.43,2.17.67Z"/><circle class="cls-10" cx="231.37" cy="103.5" r="22.5"/></g></g></svg>