<?xml version="1.0" encoding="UTF-8" standalone="no"?><!DOCTYPE svg PUBLIC "-//W3C//DTD SVG 1.1//EN" "http://www.w3.org/Graphics/SVG/1.1/DTD/svg11.dtd"><svg width="100%" height="100%" viewBox="0 0 1059 917" version="1.1" xmlns="http://www.w3.org/2000/svg" xmlns:xlink="http://www.w3.org/1999/xlink" xml:space="preserve" xmlns:serif="http://www.serif.com/" style="fill-rule:evenodd;clip-rule:evenodd;stroke-miterlimit:10;"><rect id="Artboard1" x="0" y="0" width="1060.08" height="917.17" style="fill:none;"/><clipPath id="_clip1"><rect x="0" y="0" width="1060.08" height="917.17"/></clipPath><g clip-path="url(#_clip1)"><g id="Layer_2"><g id="Layer_2-2"><g id="Ping"></g><g id="Home"><path d="M691.958,396.69c0,-25.434 -20.649,-46.084 -46.083,-46.084l-208.125,0c-25.434,0 -46.083,20.65 -46.083,46.084l0,17.041c0,25.434 20.649,46.084 46.083,46.084l208.125,0c25.434,0 46.083,-20.65 46.083,-46.084l0,-17.041Z" style="fill:none;stroke:#ccc;stroke-width:6.25px;"/><path d="M474.283,489.83l0,53.063l-3.862,0l0,-25.425l-33.225,0l0,25.425l-3.863,0l0,-53.063l3.863,0l0,24.75l33.225,0l0,-24.75l3.862,0Z" style="fill-rule:nonzero;"/><path d="M537.096,516.343c0,4.1 -0.613,7.819 -1.838,11.156c-1.225,3.338 -2.95,6.188 -5.175,8.55c-2.225,2.363 -4.893,4.188 -8.006,5.475c-3.112,1.288 -6.544,1.931 -10.294,1.931c-3.75,0 -7.175,-0.643 -10.275,-1.931c-3.1,-1.287 -5.762,-3.112 -7.987,-5.475c-2.225,-2.362 -3.95,-5.212 -5.175,-8.55c-1.225,-3.337 -1.838,-7.056 -1.838,-11.156c0,-4.075 0.613,-7.781 1.838,-11.119c1.225,-3.337 2.95,-6.187 5.175,-8.55c2.225,-2.362 4.887,-4.194 7.987,-5.494c3.1,-1.3 6.525,-1.95 10.275,-1.95c3.75,0 7.182,0.644 10.294,1.932c3.113,1.287 5.781,3.118 8.006,5.493c2.225,2.375 3.95,5.232 5.175,8.569c1.225,3.338 1.838,7.044 1.838,11.119Zm-3.975,0c0,-3.7 -0.513,-7.025 -1.538,-9.975c-1.025,-2.95 -2.475,-5.45 -4.35,-7.5c-1.875,-2.05 -4.125,-3.619 -6.75,-4.706c-2.625,-1.088 -5.525,-1.632 -8.7,-1.632c-3.15,0 -6.037,0.544 -8.662,1.632c-2.625,1.087 -4.881,2.656 -6.769,4.706c-1.887,2.05 -3.35,4.55 -4.387,7.5c-1.038,2.95 -1.557,6.275 -1.557,9.975c0,3.725 0.519,7.056 1.557,9.994c1.037,2.937 2.5,5.431 4.387,7.481c1.888,2.05 4.144,3.612 6.769,4.687c2.625,1.075 5.512,1.613 8.662,1.613c3.175,0 6.075,-0.538 8.7,-1.613c2.625,-1.075 4.875,-2.637 6.75,-4.687c1.875,-2.05 3.325,-4.544 4.35,-7.481c1.025,-2.938 1.538,-6.269 1.538,-9.994Z" style="fill-rule:nonzero;"/><path d="M601.746,489.83l0,53.063l-3.338,0l0,-45.225c0,-0.65 0.038,-1.338 0.113,-2.063l-20.888,37.088c-0.35,0.65 -0.85,0.975 -1.5,0.975l-0.6,0c-0.65,0 -1.15,-0.325 -1.5,-0.975l-21.45,-37.163c0.075,0.75 0.113,1.463 0.113,2.138l0,45.225l-3.375,0l0,-53.063l2.662,0c0.35,0 0.625,0.038 0.825,0.113c0.2,0.075 0.4,0.275 0.6,0.6l21.413,36.9c0.375,0.7 0.7,1.45 0.975,2.25c0.15,-0.4 0.312,-0.794 0.487,-1.181c0.175,-0.388 0.363,-0.757 0.563,-1.107l20.812,-36.862c0.2,-0.325 0.407,-0.525 0.619,-0.6c0.213,-0.075 0.494,-0.113 0.844,-0.113l2.625,0Z" style="fill-rule:nonzero;"/><path d="M649.296,539.705l-0.075,3.188l-31.8,0l0,-53.063l31.8,0l0,3.188l-27.938,0l0,21.45l23.25,0l0,3.112l-23.25,0l0,22.125l28.013,0Z" style="fill-rule:nonzero;"/></g><g id="Alert-arrow"><path d="M521.511,258.958l22.067,-10.517l22.885,8.587l-24.753,-52.313l-20.199,54.243Z" style="fill:#231f20;fill-rule:nonzero;"/><path d="M542.429,248.66l-0.762,92.672" style="fill:none;fill-rule:nonzero;stroke:#000;stroke-width:6.55px;stroke-miterlimit:4;"/></g><path d="M535.375,6.864l12.5,0c4.708,0.75 9.458,1.333 14.167,2.291c36.274,8.144 64.422,37.128 71.5,73.625c0.666,3.834 1.166,7.667 1.75,11.542l0,12.5c-0.334,2.583 -0.625,5.208 -1.042,7.792c-3.146,21.053 -13.449,40.393 -29.167,54.75c-12.821,12.033 -28.86,20.096 -46.166,23.208c-3.834,0.708 -7.709,1.125 -11.542,1.708l-11.417,0c-0.5,-0.166 -1.017,-0.278 -1.541,-0.333c-12.985,-0.877 -25.619,-4.604 -37,-10.917c-24.877,-13.162 -42.418,-37 -47.584,-64.666c-0.791,-3.792 -1.208,-7.667 -1.791,-11.542l0,-12.5c0.666,-4.167 0.958,-8.667 2,-12.875c9.791,-39.458 34.5,-63.833 74.166,-72.875c3.417,-0.833 7.584,-1.167 11.167,-1.708Zm72.333,148.583c0.334,-0.417 0.834,-0.875 1.209,-1.417c17.224,-21.029 23.112,-49.208 15.75,-75.375c-10.714,-41.479 -51.101,-68.776 -93.584,-63.25c-20.919,2.272 -40.194,12.476 -53.833,28.5c-27.492,31.186 -28.57,78.084 -2.542,110.5c0.75,0.917 1.292,1.334 2.584,0.834l38.583,-13.667c0.896,-0.389 1.56,-1.176 1.792,-2.125c0.454,-4.946 -0.215,-9.932 -1.959,-14.583c-1.347,-3.73 -2.501,-7.527 -3.458,-11.375c-0.301,-0.979 -0.692,-1.927 -1.167,-2.834c-4.666,-8.333 -7.666,-17.083 -4.958,-26.875c0.227,-0.869 0.311,-1.77 0.25,-2.666c-0.156,-4.047 -0.545,-8.082 -1.167,-12.084c-2.685,-14.493 4.865,-29.076 18.25,-35.25c9.102,-3.751 19.138,-4.624 28.75,-2.5c15.338,2.587 26.678,16.001 26.678,31.555c0,1.91 -0.171,3.816 -0.511,5.695c-1.584,6.22 -1.584,12.739 0,18.959c0.189,0.878 0.189,1.788 0,2.666c-0.182,7.396 -2.387,14.602 -6.375,20.834c-0.313,0.505 -0.551,1.052 -0.708,1.625c-1.584,5 -3,10.041 -4.792,14.958c-1.416,3.466 -2.152,7.173 -2.167,10.917c0,1.833 0.625,2.708 2.375,3.166c3.042,0.834 6.042,1.792 9.042,2.792l31.958,11Z" style="fill:#528093;fill-rule:nonzero;"/><circle cx="541.667" cy="100.614" r="93.75" style="fill:none;stroke:#528093;stroke-width:14.42px;stroke-miterlimit:4;"/></g><path d="M720.828,687.539c1.937,0 3.677,-0.271 5.219,-0.813c1.541,-0.541 2.849,-1.291 3.922,-2.25c1.072,-0.958 1.895,-2.088 2.468,-3.39c0.573,-1.302 0.86,-2.724 0.86,-4.266c0,-3.396 -1.042,-6.01 -3.125,-7.844c-2.084,-1.833 -5.198,-2.75 -9.344,-2.75l-8.219,0l0,21.313l8.219,0Zm0,-23.844c5.187,0 9.099,1.136 11.734,3.406c2.636,2.271 3.953,5.511 3.953,9.719c0,1.938 -0.364,3.719 -1.093,5.344c-0.729,1.625 -1.771,3.026 -3.125,4.203c-1.354,1.177 -3,2.094 -4.938,2.75c-1.937,0.656 -4.114,0.984 -6.531,0.984l-8.219,0l0,17.813l-3.219,0l0,-44.219l11.438,0Z" style="fill-rule:nonzero;"/><rect x="745.515" y="663.695" width="3.219" height="44.219" style="fill-rule:nonzero;"/><path d="M795.922,663.695l0,44.219l-1.5,0c-0.271,0 -0.495,-0.047 -0.672,-0.141c-0.177,-0.094 -0.349,-0.255 -0.516,-0.484l-28.719,-38.375c0.063,0.625 0.094,1.219 0.094,1.781l0,37.219l-2.812,0l0,-44.219l1.593,0c0.292,0 0.516,0.037 0.672,0.109c0.157,0.073 0.328,0.235 0.516,0.485l28.656,38.281c-0.062,-0.625 -0.094,-1.219 -0.094,-1.781l0,-37.094l2.782,0Z" style="fill-rule:nonzero;"/><path d="M844.297,687.851l0,15.719c-2.209,1.563 -4.563,2.761 -7.063,3.594c-2.5,0.833 -5.312,1.25 -8.437,1.25c-3.5,0 -6.646,-0.537 -9.438,-1.61c-2.791,-1.072 -5.172,-2.593 -7.14,-4.562c-1.969,-1.969 -3.48,-4.349 -4.532,-7.141c-1.052,-2.791 -1.578,-5.895 -1.578,-9.312c0,-3.417 0.516,-6.516 1.547,-9.297c1.031,-2.781 2.51,-5.156 4.438,-7.125c1.927,-1.969 4.255,-3.49 6.984,-4.563c2.729,-1.072 5.802,-1.609 9.219,-1.609c1.687,0 3.244,0.115 4.672,0.344c1.427,0.229 2.755,0.568 3.984,1.015c1.229,0.448 2.375,1 3.437,1.657c1.063,0.656 2.084,1.411 3.063,2.265l-0.875,1.375c-0.292,0.5 -0.729,0.615 -1.313,0.344c-0.312,-0.125 -0.76,-0.417 -1.343,-0.875c-0.584,-0.458 -1.386,-0.937 -2.407,-1.437c-1.02,-0.5 -2.286,-0.948 -3.796,-1.344c-1.511,-0.396 -3.349,-0.594 -5.516,-0.594c-2.875,0 -5.474,0.458 -7.797,1.375c-2.323,0.917 -4.302,2.229 -5.937,3.938c-1.636,1.708 -2.896,3.791 -3.782,6.25c-0.885,2.458 -1.328,5.218 -1.328,8.281c0,3.104 0.443,5.896 1.328,8.375c0.886,2.479 2.167,4.583 3.844,6.312c1.677,1.73 3.714,3.052 6.109,3.969c2.396,0.917 5.094,1.375 8.094,1.375c1.313,0 2.526,-0.083 3.641,-0.25c1.114,-0.167 2.177,-0.401 3.187,-0.703c1.011,-0.302 1.99,-0.677 2.938,-1.125c0.948,-0.448 1.911,-0.953 2.89,-1.516l0,-11.906l-8.468,0c-0.229,0 -0.422,-0.073 -0.578,-0.219c-0.157,-0.145 -0.235,-0.312 -0.235,-0.5l0,-1.75l12.188,0Z" style="fill-rule:nonzero;"/><path d="M857.828,663.695l0,17.875c0,0.938 -0.01,1.823 -0.031,2.656c-0.021,0.834 -0.047,1.683 -0.078,2.547c-0.032,0.865 -0.079,1.776 -0.141,2.735c-0.063,0.958 -0.125,2.02 -0.188,3.187l-2.031,0c-0.062,-1.167 -0.125,-2.229 -0.187,-3.187c-0.063,-0.959 -0.11,-1.87 -0.141,-2.735c-0.031,-0.864 -0.057,-1.713 -0.078,-2.547c-0.021,-0.833 -0.031,-1.718 -0.031,-2.656l0,-17.875l2.906,0Zm-4.438,41.813c0,-0.396 0.073,-0.771 0.219,-1.125c0.146,-0.355 0.349,-0.662 0.61,-0.922c0.26,-0.261 0.562,-0.469 0.906,-0.625c0.344,-0.157 0.724,-0.235 1.14,-0.235c0.396,0 0.771,0.078 1.125,0.235c0.355,0.156 0.662,0.364 0.922,0.625c0.261,0.26 0.469,0.567 0.625,0.922c0.157,0.354 0.235,0.729 0.235,1.125c0,0.416 -0.078,0.796 -0.235,1.14c-0.156,0.344 -0.364,0.646 -0.625,0.906c-0.26,0.261 -0.567,0.464 -0.922,0.61c-0.354,0.146 -0.729,0.219 -1.125,0.219c-0.812,0 -1.494,-0.276 -2.046,-0.829c-0.553,-0.552 -0.829,-1.234 -0.829,-2.046Z" style="fill-rule:nonzero;"/><path d="M738.094,317.232l-9,-22.344c-0.312,-0.729 -0.615,-1.604 -0.906,-2.625c-0.125,0.5 -0.261,0.974 -0.406,1.422c-0.146,0.448 -0.303,0.86 -0.469,1.235l-9,22.312l19.781,0Zm9.781,16.063l-2.468,0c-0.292,0 -0.532,-0.079 -0.719,-0.235c-0.188,-0.156 -0.334,-0.359 -0.438,-0.609l-5.187,-12.844l-21.719,0l-5.187,12.844c-0.084,0.229 -0.23,0.427 -0.438,0.594c-0.208,0.166 -0.458,0.25 -0.75,0.25l-2.437,0l18.093,-44.219l3.157,0l18.093,44.219Z" style="fill-rule:nonzero;"/><path d="M779.375,330.576l0,2.719l-24.156,0l0,-44.219l3.219,0l0,41.5l20.937,0Z" style="fill-rule:nonzero;"/><path d="M813.407,330.638l-0.063,2.657l-26.5,0l0,-44.219l26.5,0l0,2.656l-23.281,0l0,17.875l19.375,0l0,2.594l-19.375,0l0,18.437l23.344,0Z" style="fill-rule:nonzero;"/><path d="M833.969,310.92c1.958,0 3.714,-0.235 5.266,-0.704c1.552,-0.468 2.864,-1.14 3.937,-2.015c1.073,-0.875 1.891,-1.927 2.453,-3.156c0.563,-1.23 0.844,-2.615 0.844,-4.157c0,-3.145 -1.026,-5.479 -3.078,-7c-2.052,-1.52 -5.047,-2.281 -8.984,-2.281l-8.094,0l0,19.313l7.656,0Zm19.625,22.375l-2.75,0c-0.354,0 -0.651,-0.058 -0.891,-0.172c-0.239,-0.115 -0.463,-0.328 -0.671,-0.641l-14.188,-17.937c-0.167,-0.23 -0.338,-0.427 -0.516,-0.594c-0.177,-0.167 -0.375,-0.297 -0.593,-0.391c-0.219,-0.094 -0.479,-0.161 -0.782,-0.203c-0.302,-0.042 -0.671,-0.062 -1.109,-0.062l-5.781,0l0,20l-3.219,0l0,-44.219l11.313,0c5.083,0 8.89,0.984 11.421,2.953c2.532,1.969 3.797,4.859 3.797,8.672c0,1.687 -0.291,3.229 -0.875,4.625c-0.583,1.396 -1.422,2.62 -2.515,3.672c-1.094,1.052 -2.417,1.911 -3.969,2.578c-1.552,0.667 -3.297,1.114 -5.234,1.344c0.5,0.312 0.947,0.729 1.343,1.25l15.219,19.125Z" style="fill-rule:nonzero;"/><path d="M887.938,291.795l-15.531,0l0,41.5l-3.219,0l0,-41.5l-15.625,0l0,-2.719l34.375,0l0,2.719Z" style="fill-rule:nonzero;"/><path d="M898.282,289.076l0,17.875c0,0.937 -0.011,1.823 -0.032,2.656c-0.021,0.833 -0.047,1.682 -0.078,2.547c-0.031,0.865 -0.078,1.776 -0.14,2.734c-0.063,0.959 -0.125,2.021 -0.188,3.188l-2.031,0c-0.063,-1.167 -0.125,-2.229 -0.188,-3.188c-0.062,-0.958 -0.109,-1.869 -0.14,-2.734c-0.032,-0.865 -0.058,-1.714 -0.078,-2.547c-0.021,-0.833 -0.032,-1.719 -0.032,-2.656l0,-17.875l2.907,0Zm-4.438,41.812c0,-0.395 0.073,-0.77 0.219,-1.125c0.146,-0.354 0.349,-0.661 0.609,-0.922c0.261,-0.26 0.563,-0.468 0.906,-0.625c0.344,-0.156 0.724,-0.234 1.141,-0.234c0.396,0 0.771,0.078 1.125,0.234c0.354,0.157 0.662,0.365 0.922,0.625c0.26,0.261 0.469,0.568 0.625,0.922c0.156,0.355 0.234,0.73 0.234,1.125c0,0.417 -0.078,0.797 -0.234,1.141c-0.156,0.344 -0.365,0.646 -0.625,0.906c-0.26,0.261 -0.568,0.464 -0.922,0.61c-0.354,0.145 -0.729,0.218 -1.125,0.218c-0.812,0 -1.495,-0.276 -2.047,-0.828c-0.552,-0.552 -0.828,-1.234 -0.828,-2.047Z" style="fill-rule:nonzero;"/></g><g id="Layer_2-21" serif:id="Layer_2-2"><g id="Device"><path d="M458,888.845c0.05,3.76 -0.571,7.499 -1.833,11.041c-1.123,3.108 -2.883,5.946 -5.167,8.334c-2.26,2.322 -4.987,4.14 -8,5.333c-3.286,1.25 -6.777,1.872 -10.292,1.833l-19.375,0l0,-53.083l19.375,0c3.515,-0.038 7.006,0.584 10.292,1.833c3.009,1.181 5.736,2.985 8,5.292c2.275,2.394 4.034,5.231 5.167,8.333c1.264,3.557 1.885,7.31 1.833,11.084Zm-4.167,0c0.04,-3.368 -0.481,-6.72 -1.541,-9.917c-0.875,-2.703 -2.293,-5.198 -4.167,-7.333c-1.881,-2.011 -4.187,-3.577 -6.75,-4.584c-2.776,-1.075 -5.731,-1.612 -8.708,-1.583l-15.459,0l0,46.833l15.5,0c2.979,0.05 5.938,-0.488 8.709,-1.583c2.56,-0.992 4.866,-2.543 6.75,-4.542c1.879,-2.147 3.297,-4.657 4.166,-7.375c1.12,-3.186 1.698,-6.538 1.709,-9.916l-0.209,0Z" style="fill-rule:nonzero;"/><path d="M502.125,862.303l0,3.208l-27.917,0l0,21.459l23.334,0l0,3.083l-23.334,0l0,22.125l27.917,0l0,3.208l-31.792,0l0,-53.083l31.792,0Z" style="fill-rule:nonzero;"/><path d="M507.375,862.303l3,0c0.316,-0.006 0.626,0.097 0.875,0.292c0.248,0.194 0.436,0.454 0.542,0.75l18.083,44c0.468,1.191 0.844,2.417 1.125,3.666c0.269,-1.252 0.645,-2.479 1.125,-3.666l18,-43.792c0.121,-0.276 0.307,-0.519 0.542,-0.708c0.248,-0.327 0.631,-0.526 1.041,-0.542l3,0l-22.041,53.083l-3.417,0l-21.875,-53.083Z" style="fill-rule:nonzero;"/><rect x="564.208" y="862.303" width="4.167" height="53.083" style="fill-rule:nonzero;"/><path d="M623.958,906.47c0.246,-0.006 0.485,0.084 0.667,0.25l1.5,1.625c-1.109,1.164 -2.323,2.224 -3.625,3.166c-1.303,0.933 -2.7,1.729 -4.167,2.375c-1.622,0.687 -3.312,1.204 -5.041,1.542c-2.005,0.383 -4.043,0.565 -6.084,0.542c-3.456,0.049 -6.886,-0.603 -10.083,-1.917c-3.012,-1.227 -5.716,-3.105 -7.917,-5.5c-2.254,-2.402 -3.998,-5.237 -5.125,-8.333c-1.252,-3.588 -1.872,-7.367 -1.833,-11.167c-0.047,-3.763 0.588,-7.504 1.875,-11.042c1.194,-3.184 3.007,-6.102 5.333,-8.583c2.261,-2.494 5.013,-4.495 8.084,-5.875c3.368,-1.331 6.962,-1.996 10.583,-1.958c1.759,-0.02 3.516,0.12 5.25,0.416c1.538,0.268 3.045,0.686 4.5,1.25c1.37,0.533 2.682,1.203 3.917,2c1.261,0.842 2.459,1.775 3.583,2.792l-1.125,1.667c-0.222,0.303 -0.583,0.475 -0.958,0.458c-0.32,-0.044 -0.623,-0.173 -0.875,-0.375c-0.427,-0.357 -0.872,-0.69 -1.334,-1c-0.5,-0.375 -1.166,-0.792 -1.916,-1.25c-0.863,-0.536 -1.786,-0.97 -2.75,-1.292c-2.68,-0.927 -5.498,-1.392 -8.334,-1.375c-3.051,-0.022 -6.079,0.544 -8.916,1.667c-2.626,1.079 -4.997,2.697 -6.959,4.75c-2.013,2.177 -3.558,4.744 -4.541,7.542c-1.16,3.16 -1.725,6.509 -1.667,9.875c-0.051,3.416 0.499,6.815 1.625,10.041c0.977,2.757 2.493,5.293 4.458,7.459c1.891,2.031 4.192,3.636 6.75,4.708c2.642,1.09 5.476,1.643 8.334,1.625c1.701,0.014 3.402,-0.112 5.083,-0.375c1.425,-0.225 2.822,-0.602 4.167,-1.125c1.261,-0.433 2.475,-0.991 3.625,-1.667c1.122,-0.76 2.181,-1.61 3.166,-2.541c0.105,-0.111 0.233,-0.197 0.375,-0.25c0.108,-0.081 0.24,-0.125 0.375,-0.125Z" style="fill-rule:nonzero;"/><path d="M670,862.303l0,3.208l-27.958,0l0,21.459l23.25,0l0,3.083l-23.25,0l0,22.125l27.958,0l0,3.208l-31.792,0l0,-53.083l31.792,0Z" style="fill-rule:nonzero;"/><path d="M691.958,768.886c0,-25.434 -20.649,-46.083 -46.083,-46.083l-208.125,0c-25.434,0 -46.083,20.649 -46.083,46.083l0,17.042c0,25.434 20.649,46.083 46.083,46.083l208.125,0c25.434,0 46.083,-20.649 46.083,-46.083l0,-17.042Z" style="fill:none;stroke:#ccc;stroke-width:6.25px;"/><circle cx="541.583" cy="759.22" r="13.667" style="fill:#ec1c24;"/><circle cx="541.583" cy="381.906" r="13.667" style="fill:#ec1c24;"/><path d="M598.042,673.928l-19.959,18.25c-21.973,-16.549 -52.408,-16.736 -74.583,-0.458l-18.083,-19.834c33.16,-25.991 80.428,-25.134 112.625,2.042Z" style="fill:#ec1c24;fill-rule:nonzero;"/><path d="M624.708,651.261l-19.833,18.125c-36.421,-31.641 -90.756,-32.769 -128.458,-2.666l-18.084,-19.834c48.627,-39.895 119.913,-38.02 166.375,4.375Z" style="fill:#b4191e;fill-rule:nonzero;"/><path d="M449.708,638.553l-18.041,-19.583c63.996,-53.867 159.342,-50.977 219.958,6.666l-19.792,18.084c-50.591,-46.922 -128.954,-49.145 -182.125,-5.167Z" style="fill:#95171a;fill-rule:nonzero;"/></g></g></g></svg>