<?xml version="1.0" encoding="UTF-8" standalone="no"?>
<!DOCTYPE svg PUBLIC "-//W3C//DTD SVG 1.1//EN" "http://www.w3.org/Graphics/SVG/1.1/DTD/svg11.dtd">
<svg width="100%" height="100%" viewBox="0 0 701 613" version="1.1" xmlns="http://www.w3.org/2000/svg" xmlns:xlink="http://www.w3.org/1999/xlink" xml:space="preserve" style="fill-rule:evenodd;clip-rule:evenodd;stroke-linejoin:round;stroke-miterlimit:1.41421;">
    <g transform="matrix(1,0,0,1,-4.74259,0)">
        <g id="will-it-leak" transform="matrix(1.09531,0,0,0.902504,4.74259,0)">
            <rect x="0" y="0" width="640" height="679" style="fill:none;"/>
            <clipPath id="_clip1">
                <rect x="0" y="0" width="640" height="679"/>
            </clipPath>
            <g clip-path="url(#_clip1)">
                <g transform="matrix(1,0,0,1,38.3452,0.853182)">
                    <g id="box" transform="matrix(0.912981,0,0,1.10803,-3.49647,47.6452)">
                        <g transform="matrix(1,0,0,0.899422,0,8.40335)">
                            <g id="bigbox">
                                <g id="BigBox">
                                    <path d="M603.64,36.92C609.17,36.92 613.64,41.4 613.64,46.92C613.64,156.28 613.64,474.34 613.64,583.7C613.64,589.22 609.17,593.7 603.64,593.7C488.19,593.7 151.81,593.7 36.36,593.7C30.83,593.7 26.36,589.22 26.36,583.7C26.36,474.34 26.36,156.28 26.36,46.92C26.36,41.4 30.83,36.92 36.36,36.92C151.81,36.92 488.19,36.92 603.64,36.92Z" style="fill-opacity:0;fill-rule:nonzero;"/>
                                    <path d="M603.798,34.141L603.955,34.144L604.112,34.149L604.269,34.156L604.425,34.165L604.581,34.176L604.736,34.189L604.891,34.204L605.045,34.22L605.199,34.239L605.352,34.259L605.505,34.282L605.657,34.306L605.809,34.332L605.959,34.36L606.11,34.39L606.26,34.421L606.409,34.455L606.557,34.49L606.705,34.527L606.852,34.566L606.999,34.606L607.145,34.649L607.29,34.693L607.434,34.739L607.578,34.787L607.721,34.836L607.863,34.887L608.005,34.94L608.146,34.994L608.285,35.05L608.425,35.108L608.563,35.168L608.7,35.229L608.837,35.292L608.973,35.356L609.108,35.422L609.242,35.49L609.375,35.559L609.508,35.63L609.639,35.703L609.769,35.777L609.899,35.852L610.028,35.929L610.156,36.008L610.282,36.088L610.408,36.17L610.533,36.253L610.657,36.338L610.78,36.425L610.901,36.512L611.022,36.602L611.142,36.692L611.26,36.784L611.378,36.878L611.494,36.973L611.61,37.07L611.724,37.167L611.837,37.266L611.949,37.367L612.061,37.469L612.17,37.573L612.279,37.678L612.386,37.784L612.492,37.892L612.598,38.001L612.701,38.111L612.804,38.222L612.905,38.335L613.005,38.45L613.104,38.565L613.201,38.682L613.298,38.8L613.393,38.919L613.486,39.04L613.578,39.162L613.669,39.285L613.759,39.409L613.847,39.535L613.934,39.662L614.019,39.79L614.103,39.919L614.185,40.049L614.266,40.181L614.346,40.314L614.424,40.447L614.5,40.582L614.575,40.719L614.649,40.856L614.72,40.994L614.791,41.134L614.859,41.274L614.926,41.416L614.992,41.558L615.056,41.702L615.118,41.847L615.179,41.993L615.237,42.139L615.294,42.287L615.35,42.436L615.403,42.585L615.455,42.736L615.506,42.887L615.554,43.04L615.601,43.193L615.645,43.347L615.688,43.502L615.73,43.659L615.769,43.815L615.806,43.972L615.841,44.13L615.875,44.29L615.907,44.45L615.936,44.609L615.964,44.77L615.99,44.932L616.014,45.096L616.035,45.259L616.055,45.422L616.073,45.586L616.088,45.751L616.102,45.917L616.114,46.083L616.123,46.249L616.131,46.417L616.136,46.584L616.139,46.751L616.14,46.91L616.14,583.71L616.139,583.869L616.136,584.036L616.131,584.203L616.123,584.371L616.114,584.537L616.102,584.703L616.088,584.869L616.073,585.034L616.055,585.198L616.035,585.361L616.014,585.524L615.99,585.688L615.964,585.85L615.936,586.011L615.907,586.17L615.875,586.33L615.841,586.49L615.806,586.648L615.769,586.805L615.73,586.961L615.688,587.118L615.645,587.273L615.601,587.427L615.554,587.58L615.506,587.732L615.455,587.884L615.403,588.035L615.35,588.184L615.294,588.333L615.237,588.481L615.179,588.627L615.118,588.773L615.056,588.918L614.992,589.061L614.926,589.204L614.859,589.346L614.791,589.486L614.72,589.626L614.649,589.764L614.575,589.901L614.5,590.038L614.423,590.173L614.346,590.306L614.266,590.439L614.185,590.571L614.103,590.701L614.019,590.83L613.934,590.958L613.847,591.085L613.759,591.211L613.669,591.335L613.578,591.458L613.486,591.58L613.393,591.7L613.298,591.82L613.202,591.938L613.104,592.055L613.005,592.17L612.905,592.285L612.804,592.398L612.701,592.509L612.598,592.619L612.492,592.729L612.386,592.836L612.279,592.942L612.17,593.047L612.061,593.15L611.949,593.253L611.837,593.354L611.725,593.452L611.61,593.551L611.494,593.647L611.378,593.742L611.26,593.836L611.142,593.928L611.022,594.018L610.902,594.108L610.78,594.195L610.657,594.282L610.533,594.366L610.408,594.45L610.282,594.532L610.155,594.612L610.028,594.69L609.899,594.768L609.769,594.843L609.639,594.917L609.508,594.99L609.375,595.061L609.242,595.13L609.107,595.198L608.972,595.264L608.837,595.328L608.701,595.391L608.563,595.452L608.424,595.512L608.285,595.57L608.146,595.626L608.005,595.68L607.864,595.733L607.721,595.784L607.578,595.833L607.434,595.881L607.289,595.927L607.145,595.971L606.999,596.013L606.852,596.054L606.705,596.093L606.557,596.13L606.409,596.165L606.26,596.199L606.11,596.23L605.96,596.26L605.808,596.288L605.657,596.314L605.505,596.338L605.352,596.361L605.199,596.381L605.046,596.4L604.891,596.416L604.736,596.431L604.581,596.444L604.425,596.455L604.269,596.464L604.113,596.471L603.955,596.476L603.798,596.479L603.647,596.48L36.353,596.48L36.202,596.479L36.045,596.476L35.887,596.471L35.731,596.464L35.575,596.455L35.419,596.444L35.264,596.431L35.109,596.416L34.954,596.4L34.801,596.381L34.648,596.361L34.495,596.338L34.343,596.314L34.192,596.288L34.04,596.26L33.89,596.23L33.74,596.199L33.591,596.165L33.443,596.13L33.295,596.093L33.148,596.054L33.001,596.014L32.855,595.971L32.711,595.927L32.566,595.881L32.422,595.833L32.279,595.784L32.136,595.733L31.995,595.68L31.855,595.626L31.715,595.57L31.576,595.512L31.437,595.452L31.299,595.391L31.163,595.328L31.028,595.264L30.892,595.198L30.758,595.13L30.625,595.061L30.492,594.99L30.361,594.917L30.23,594.843L30.101,594.768L29.972,594.69L29.845,594.612L29.718,594.532L29.592,594.45L29.467,594.366L29.343,594.282L29.22,594.196L29.099,594.108L28.978,594.019L28.858,593.928L28.74,593.836L28.622,593.742L28.505,593.647L28.39,593.551L28.276,593.453L28.163,593.353L28.05,593.253L27.939,593.15L27.83,593.047L27.721,592.942L27.614,592.836L27.508,592.729L27.402,592.619L27.299,592.509L27.196,592.398L27.095,592.285L26.995,592.171L26.896,592.055L26.798,591.938L26.702,591.82L26.607,591.701L26.514,591.58L26.422,591.458L26.331,591.335L26.241,591.211L26.153,591.085L26.066,590.958L25.981,590.83L25.897,590.701L25.815,590.571L25.734,590.439L25.654,590.306L25.577,590.173L25.5,590.038L25.425,589.901L25.352,589.764L25.28,589.626L25.209,589.486L25.141,589.346L25.074,589.204L25.008,589.061L24.944,588.918L24.882,588.773L24.821,588.627L24.763,588.481L24.706,588.333L24.65,588.184L24.596,588.035L24.545,587.884L24.494,587.733L24.446,587.58L24.399,587.427L24.355,587.273L24.312,587.118L24.27,586.962L24.231,586.805L24.194,586.648L24.159,586.49L24.125,586.331L24.093,586.171L24.064,586.01L24.036,585.849L24.01,585.687L23.986,585.525L23.965,585.362L23.945,585.198L23.927,585.034L23.912,584.868L23.898,584.703L23.886,584.537L23.877,584.371L23.869,584.204L23.864,584.036L23.861,583.868L23.86,583.71L23.86,46.91L23.861,46.752L23.864,46.584L23.869,46.416L23.877,46.249L23.886,46.083L23.898,45.917L23.912,45.751L23.927,45.586L23.945,45.422L23.965,45.258L23.986,45.095L24.01,44.933L24.036,44.771L24.064,44.61L24.093,44.449L24.125,44.289L24.159,44.13L24.194,43.972L24.231,43.815L24.271,43.658L24.312,43.502L24.355,43.347L24.399,43.193L24.446,43.04L24.494,42.887L24.545,42.736L24.596,42.585L24.65,42.436L24.706,42.287L24.763,42.139L24.822,41.993L24.882,41.847L24.944,41.702L25.008,41.558L25.074,41.416L25.141,41.274L25.209,41.134L25.28,40.994L25.352,40.856L25.425,40.719L25.5,40.583L25.576,40.447L25.654,40.314L25.734,40.181L25.815,40.049L25.897,39.919L25.981,39.79L26.066,39.662L26.153,39.535L26.241,39.409L26.331,39.285L26.422,39.162L26.514,39.04L26.607,38.919L26.702,38.8L26.798,38.682L26.896,38.565L26.995,38.449L27.095,38.335L27.196,38.222L27.299,38.111L27.403,38L27.508,37.892L27.614,37.784L27.721,37.678L27.83,37.573L27.94,37.469L28.05,37.367L28.163,37.267L28.276,37.167L28.39,37.069L28.505,36.973L28.622,36.878L28.74,36.784L28.858,36.692L28.978,36.601L29.099,36.512L29.22,36.424L29.343,36.338L29.467,36.253L29.592,36.17L29.718,36.088L29.844,36.008L29.972,35.929L30.101,35.852L30.23,35.777L30.361,35.703L30.492,35.63L30.625,35.559L30.758,35.49L30.892,35.422L31.027,35.356L31.163,35.292L31.3,35.229L31.437,35.168L31.576,35.108L31.715,35.05L31.855,34.994L31.995,34.94L32.137,34.887L32.279,34.836L32.422,34.787L32.566,34.739L32.71,34.693L32.855,34.649L33.001,34.606L33.148,34.566L33.295,34.527L33.443,34.49L33.591,34.455L33.74,34.421L33.89,34.39L34.041,34.36L34.191,34.332L34.343,34.306L34.495,34.282L34.648,34.259L34.801,34.239L34.955,34.22L35.109,34.204L35.264,34.189L35.419,34.176L35.575,34.165L35.731,34.156L35.888,34.149L36.045,34.144L36.202,34.141L36.353,34.14L603.647,34.14L603.798,34.141ZM36.367,39.7L36.259,39.7L36.159,39.702L36.058,39.705L35.959,39.71L35.859,39.715L35.76,39.722L35.662,39.73L35.564,39.74L35.466,39.75L35.369,39.762L35.272,39.775L35.176,39.789L35.08,39.804L34.984,39.821L34.889,39.838L34.795,39.857L34.701,39.877L34.608,39.898L34.515,39.92L34.422,39.943L34.33,39.967L34.239,39.993L34.148,40.019L34.057,40.047L33.967,40.075L33.878,40.105L33.789,40.136L33.701,40.167L33.613,40.2L33.526,40.234L33.44,40.268L33.354,40.304L33.268,40.341L33.184,40.379L33.099,40.417L33.016,40.457L32.933,40.497L32.851,40.539L32.769,40.581L32.688,40.625L32.608,40.669L32.528,40.714L32.449,40.76L32.371,40.807L32.293,40.855L32.216,40.904L32.14,40.953L32.064,41.004L31.99,41.055L31.916,41.107L31.842,41.16L31.77,41.214L31.698,41.268L31.627,41.323L31.556,41.379L31.487,41.436L31.418,41.493L31.35,41.552L31.283,41.611L31.216,41.67L31.151,41.731L31.086,41.792L31.022,41.854L30.959,41.916L30.896,41.979L30.835,42.043L30.774,42.107L30.715,42.172L30.656,42.238L30.597,42.304L30.54,42.371L30.484,42.439L30.429,42.507L30.374,42.575L30.32,42.645L30.267,42.714L30.216,42.785L30.165,42.855L30.115,42.927L30.066,42.999L30.017,43.071L29.97,43.144L29.924,43.217L29.878,43.291L29.834,43.365L29.79,43.44L29.748,43.515L29.706,43.591L29.665,43.667L29.626,43.743L29.587,43.82L29.549,43.897L29.512,43.975L29.476,44.053L29.442,44.132L29.408,44.211L29.375,44.29L29.343,44.37L29.312,44.45L29.282,44.53L29.253,44.611L29.225,44.692L29.198,44.773L29.172,44.855L29.147,44.937L29.123,45.02L29.1,45.102L29.078,45.185L29.057,45.269L29.037,45.353L29.019,45.437L29.001,45.521L28.984,45.606L28.968,45.691L28.954,45.777L28.94,45.863L28.927,45.949L28.916,46.036L28.905,46.122L28.896,46.21L28.888,46.297L28.88,46.385L28.874,46.473L28.869,46.562L28.865,46.651L28.862,46.74L28.861,46.83L28.86,46.93L28.86,583.69L28.861,583.79L28.862,583.88L28.865,583.969L28.869,584.058L28.874,584.147L28.88,584.235L28.888,584.323L28.896,584.41L28.905,584.498L28.916,584.584L28.927,584.671L28.94,584.757L28.954,584.843L28.968,584.929L28.984,585.014L29.001,585.098L29.019,585.183L29.037,585.267L29.057,585.351L29.078,585.435L29.1,585.518L29.123,585.6L29.147,585.683L29.172,585.765L29.198,585.847L29.225,585.928L29.253,586.009L29.282,586.09L29.312,586.17L29.343,586.251L29.375,586.33L29.408,586.409L29.441,586.488L29.476,586.567L29.512,586.645L29.549,586.723L29.587,586.8L29.626,586.877L29.665,586.953L29.706,587.029L29.748,587.105L29.79,587.18L29.834,587.255L29.878,587.329L29.924,587.403L29.97,587.476L30.017,587.549L30.066,587.621L30.115,587.693L30.165,587.765L30.216,587.835L30.267,587.906L30.32,587.976L30.374,588.045L30.429,588.113L30.484,588.182L30.54,588.249L30.597,588.316L30.656,588.382L30.714,588.448L30.774,588.512L30.835,588.577L30.896,588.641L30.959,588.704L31.022,588.767L31.086,588.828L31.151,588.889L31.216,588.95L31.283,589.009L31.35,589.069L31.418,589.126L31.487,589.184L31.556,589.241L31.627,589.297L31.698,589.352L31.77,589.406L31.842,589.46L31.916,589.513L31.99,589.565L32.065,589.616L32.14,589.667L32.216,589.716L32.293,589.765L32.371,589.813L32.449,589.86L32.528,589.906L32.608,589.951L32.688,589.995L32.769,590.039L32.851,590.081L32.933,590.122L33.015,590.163L33.1,590.203L33.184,590.242L33.268,590.279L33.353,590.316L33.439,590.351L33.526,590.386L33.614,590.42L33.701,590.453L33.789,590.484L33.878,590.515L33.967,590.545L34.057,590.573L34.148,590.601L34.239,590.627L34.33,590.653L34.422,590.677L34.514,590.7L34.607,590.722L34.701,590.743L34.795,590.763L34.89,590.782L34.984,590.799L35.08,590.816L35.176,590.831L35.272,590.845L35.369,590.858L35.466,590.87L35.563,590.88L35.662,590.89L35.76,590.898L35.859,590.905L35.959,590.91L36.058,590.915L36.158,590.918L36.259,590.92L36.367,590.92L603.633,590.92L603.741,590.92L603.842,590.918L603.941,590.915L604.041,590.91L604.141,590.905L604.24,590.898L604.338,590.89L604.437,590.88L604.534,590.87L604.631,590.858L604.728,590.845L604.824,590.831L604.92,590.816L605.016,590.799L605.11,590.782L605.205,590.763L605.299,590.743L605.393,590.722L605.486,590.7L605.578,590.677L605.67,590.653L605.761,590.627L605.852,590.601L605.943,590.573L606.033,590.545L606.122,590.515L606.211,590.484L606.299,590.453L606.386,590.42L606.474,590.386L606.561,590.351L606.647,590.316L606.732,590.279L606.816,590.242L606.9,590.203L606.985,590.163L607.067,590.122L607.149,590.081L607.231,590.039L607.312,589.995L607.392,589.951L607.472,589.906L607.551,589.86L607.629,589.813L607.707,589.765L607.784,589.716L607.86,589.667L607.935,589.616L608.01,589.565L608.084,589.513L608.158,589.46L608.23,589.407L608.302,589.352L608.373,589.297L608.444,589.241L608.513,589.184L608.582,589.126L608.65,589.069L608.718,589.009L608.784,588.95L608.849,588.889L608.914,588.828L608.978,588.767L609.041,588.704L609.104,588.641L609.165,588.577L609.226,588.513L609.286,588.448L609.344,588.382L609.402,588.316L609.46,588.249L609.516,588.181L609.572,588.113L609.626,588.045L609.68,587.975L609.732,587.906L609.784,587.835L609.836,587.764L609.885,587.694L609.934,587.622L609.983,587.549L610.03,587.476L610.076,587.403L610.122,587.329L610.166,587.255L610.21,587.18L610.252,587.105L610.294,587.03L610.334,586.953L610.374,586.876L610.413,586.8L610.451,586.723L610.488,586.645L610.524,586.567L610.559,586.488L610.592,586.41L610.625,586.33L610.657,586.25L610.688,586.17L610.718,586.09L610.747,586.009L610.775,585.928L610.802,585.847L610.828,585.765L610.853,585.683L610.877,585.6L610.9,585.518L610.922,585.435L610.943,585.351L610.963,585.267L610.981,585.183L610.999,585.099L611.016,585.014L611.032,584.928L611.047,584.842L611.06,584.757L611.073,584.671L611.084,584.585L611.095,584.497L611.104,584.41L611.112,584.323L611.12,584.235L611.126,584.147L611.131,584.058L611.135,583.969L611.138,583.88L611.139,583.79L611.14,583.69L611.14,46.93L611.139,46.83L611.138,46.74L611.135,46.651L611.131,46.562L611.126,46.473L611.12,46.385L611.113,46.297L611.104,46.21L611.095,46.123L611.084,46.035L611.073,45.949L611.06,45.863L611.047,45.777L611.032,45.692L611.016,45.606L610.999,45.521L610.981,45.437L610.963,45.353L610.943,45.269L610.922,45.185L610.9,45.102L610.877,45.02L610.853,44.937L610.828,44.855L610.802,44.773L610.775,44.692L610.747,44.611L610.718,44.53L610.688,44.45L610.657,44.37L610.625,44.29L610.592,44.21L610.558,44.132L610.524,44.053L610.488,43.975L610.451,43.898L610.413,43.82L610.374,43.744L610.334,43.666L610.294,43.59L610.252,43.515L610.21,43.44L610.166,43.365L610.122,43.291L610.076,43.217L610.03,43.144L609.983,43.071L609.934,42.998L609.885,42.926L609.836,42.856L609.784,42.785L609.732,42.714L609.68,42.645L609.626,42.575L609.572,42.507L609.516,42.439L609.46,42.371L609.402,42.304L609.344,42.238L609.286,42.172L609.226,42.107L609.165,42.043L609.104,41.979L609.041,41.916L608.978,41.853L608.914,41.792L608.849,41.731L608.784,41.671L608.718,41.611L608.65,41.551L608.582,41.493L608.513,41.436L608.444,41.379L608.373,41.323L608.302,41.268L608.23,41.213L608.158,41.16L608.084,41.107L608.01,41.055L607.936,41.004L607.86,40.953L607.784,40.904L607.707,40.855L607.629,40.807L607.551,40.76L607.472,40.714L607.392,40.669L607.312,40.625L607.231,40.581L607.149,40.539L607.067,40.498L606.984,40.457L606.901,40.417L606.817,40.379L606.732,40.341L606.646,40.304L606.56,40.268L606.474,40.234L606.387,40.2L606.299,40.167L606.211,40.136L606.122,40.105L606.033,40.075L605.943,40.047L605.852,40.019L605.761,39.993L605.67,39.967L605.578,39.943L605.486,39.92L605.392,39.898L605.299,39.877L605.205,39.857L605.11,39.838L605.016,39.821L604.92,39.804L604.824,39.789L604.728,39.775L604.631,39.762L604.534,39.75L604.436,39.74L604.338,39.73L604.24,39.722L604.141,39.715L604.041,39.71L603.942,39.705L603.842,39.702L603.741,39.7L603.633,39.7L36.367,39.7Z" style="fill:rgb(51,51,51);"/>
                                </g>
                            </g>
                        </g>
                        <g id="Black" transform="matrix(1,0,0,1,-22.4475,-277.7)">
                            <path d="M374.94,238.93C393.72,238.93 408.95,254.15 408.95,272.93C408.95,290.16 408.95,310.82 408.95,328.79C408.95,345.51 395.39,359.07 378.67,359.07C358.13,359.07 326.81,359.07 306.28,359.07C289.55,359.07 276,345.51 276,328.79C276,310.82 276,287.18 276,269.21C276,252.48 289.55,238.93 306.28,238.93C326.81,238.93 355.16,238.93 374.94,238.93Z" style="fill:white;fill-opacity:0.909804;fill-rule:nonzero;stroke:rgb(51,51,51);stroke-width:5.33px;stroke-linejoin:miter;stroke-miterlimit:4;stroke-dasharray:10.67,5.33,0,0;"/>
                        </g>
                        <g id="icon" transform="matrix(5.91918,0,0,5.91918,320.028,21.3)">
                            <g transform="matrix(1,0,0,1,-8.29,-8.29)">
                                <g>
                                    <path d="M8.29,0C3.719,0 0,3.718 0,8.29C0,12.862 3.718,16.58 8.29,16.58C12.862,16.58 16.58,12.861 16.58,8.29C16.58,3.719 12.861,0 8.29,0ZM8.29,15.808C4.144,15.808 0.771,12.435 0.771,8.289C0.771,4.143 4.144,0.77 8.29,0.77C12.436,0.77 15.809,4.143 15.809,8.289C15.809,12.435 12.436,15.808 8.29,15.808Z" style="fill:rgb(3,1,4);fill-rule:nonzero;"/>
                                    <path d="M15.145,7.258C14.599,7.258 13.174,7.258 12.442,7.258C12.204,7.258 12.049,7.258 12.049,7.258C12.049,7.258 12.049,6.689 12.049,6.331C12.049,5.974 11.781,6.243 11.781,6.243C11.781,6.243 9.769,7.759 9.558,7.97C9.404,8.123 9.575,8.27 9.575,8.27L11.728,10.051C11.728,10.051 11.985,10.322 11.985,10.029C11.985,9.735 11.985,9.025 11.985,9.025L15.119,9.025C15.119,9.025 15.271,9.064 15.271,8.834C15.271,8.602 15.271,7.586 15.271,7.421C15.272,7.254 15.145,7.258 15.145,7.258Z" style="fill:rgb(3,1,4);fill-rule:nonzero;"/>
                                    <path d="M7.066,7.97C6.855,7.759 4.842,6.243 4.842,6.243C4.842,6.243 4.575,5.974 4.575,6.331C4.575,6.688 4.575,7.258 4.575,7.258C4.575,7.258 4.42,7.258 4.182,7.258C3.45,7.258 2.024,7.258 1.479,7.258C1.479,7.258 1.352,7.254 1.352,7.42C1.352,7.585 1.352,8.601 1.352,8.833C1.352,9.063 1.504,9.024 1.504,9.024L4.638,9.024C4.638,9.024 4.638,9.734 4.638,10.028C4.638,10.321 4.894,10.05 4.894,10.05L7.047,8.269C7.049,8.27 7.221,8.123 7.066,7.97Z" style="fill:rgb(3,1,4);fill-rule:nonzero;"/>
                                    <path d="M8.5,9.505C8.348,9.352 8.201,9.523 8.201,9.523L6.42,11.676C6.42,11.676 6.149,11.932 6.442,11.932C6.736,11.932 7.446,11.932 7.446,11.932L7.446,15.066C7.446,15.066 7.406,15.218 7.637,15.218C7.869,15.218 8.885,15.218 9.05,15.218C9.216,15.218 9.212,15.091 9.212,15.091C9.212,14.546 9.212,13.12 9.212,12.389C9.212,12.151 9.212,11.995 9.212,11.995C9.212,11.995 9.781,11.995 10.139,11.995C10.495,11.995 10.227,11.728 10.227,11.728C10.227,11.728 8.711,9.716 8.5,9.505Z" style="fill:rgb(3,1,4);fill-rule:nonzero;"/>
                                    <path d="M6.42,4.893L8.201,7.046C8.201,7.046 8.347,7.218 8.5,7.064C8.711,6.853 10.228,4.841 10.228,4.841C10.228,4.841 10.497,4.574 10.14,4.574C9.783,4.574 9.213,4.574 9.213,4.574C9.213,4.574 9.213,4.419 9.213,4.181C9.213,3.449 9.213,2.024 9.213,1.478C9.213,1.478 9.217,1.351 9.051,1.351C8.886,1.351 7.87,1.351 7.638,1.351C7.407,1.351 7.447,1.503 7.447,1.503L7.447,4.637C7.447,4.637 6.737,4.637 6.443,4.637C6.149,4.637 6.42,4.893 6.42,4.893Z" style="fill:rgb(3,1,4);fill-rule:nonzero;"/>
                                </g>
                            </g>
                        </g>
                        <g transform="matrix(0.560773,0,0,0.283051,238.947,16.8315)">
                            <rect x="607.988" y="75.943" width="33.731" height="22.376" style="fill:white;"/>
                        </g>
                    </g>
                    <g id="_.3f." transform="matrix(0.535226,0,0,0.64957,159.724,394.92)">
                        <text x="88.379px" y="100.409px" style="font-family:'HelveticaNeue', 'Helvetica Neue';font-size:511.736px;fill:none;">?</text>
                        <text x="88.379px" y="100.409px" style="font-family:'HelveticaNeue', 'Helvetica Neue';font-size:511.736px;fill:none;stroke:black;stroke-width:1.71px;">?</text>
                    </g>
                    <g id="Will-it-leak.3f." transform="matrix(0.912981,0,0,1.10803,-6.00687,-67.5226)">
                        <g id="will-it-leak1" transform="matrix(0.586239,0,0,0.586239,348.568,80.8245)">
                            <text x="88.379px" y="100.409px" style="font-family:'HelveticaNeue', 'Helvetica Neue';font-size:48px;fill:none;">Will it leak?</text>
                            <text x="88.379px" y="100.409px" style="font-family:'HelveticaNeue', 'Helvetica Neue';font-size:48px;fill:rgb(21,21,255);">Will it leak?</text>
                        </g>
                        <g id="signal" transform="matrix(0.569858,0,0,0.569858,406.9,-109.192)">
                            <path id="a9y8nt61AR" d="M248.66,411.56C249.06,405.35 246.88,399.7 242.12,394.62C237.37,389.53 230.93,386.8 222.81,386.41" style="fill:rgb(255,0,68);fill-opacity:0;fill-rule:nonzero;stroke:rgb(21,21,255);stroke-width:3px;stroke-linejoin:miter;stroke-miterlimit:4;"/>
                            <path id="f2PRba2WIP" d="M285.58,410.49C284.84,393.42 279.85,379.8 270.63,369.65C261.4,359.49 246.74,353.69 226.65,352.24" style="fill:rgb(247,0,30);fill-opacity:0;fill-rule:nonzero;stroke:rgb(21,21,255);stroke-width:3px;stroke-linejoin:miter;stroke-miterlimit:4;"/>
                            <path id="aOzkSv39b" d="M266.38,411.56C266.79,400.27 263.15,390.54 255.45,382.37C247.75,374.19 237.48,369.95 224.64,369.65" style="fill:rgb(255,0,68);fill-opacity:0;fill-rule:nonzero;stroke:rgb(21,21,255);stroke-width:3px;stroke-linejoin:miter;stroke-miterlimit:4;"/>
                        </g>
                    </g>
                </g>
            </g>
        </g>
    </g>
</svg>
