<svg xmlns="http://www.w3.org/2000/svg" viewBox="0 0 73.57 80.59"><defs><style>.cls-1{fill:#fff;}.cls-2{fill:none;stroke:#ccc;stroke-miterlimit:10;stroke-width:1.5px;stroke-dasharray:4.67 4.67;}.cls-3{fill:#ec1c24;}.cls-4{fill:#b4191e;}.cls-5{fill:#95171a;}</style></defs><title>Asset 13</title><g id="Layer_2" data-name="Layer 2"><g id="Layer_2-2" data-name="Layer 2"><path class="cls-1" d="M11,67.7h.72a.33.33,0,0,1,.21.07.4.4,0,0,1,.13.18l4.34,10.56a6,6,0,0,1,.27.88,5.34,5.34,0,0,1,.27-.88L21.25,68a.45.45,0,0,1,.13-.17.33.33,0,0,1,.22-.08h.72L17.06,80.44h-.82Z" transform="translate(-7.42)"/><path class="cls-1" d="M25.24,80.44h-.93V67.7h.93Z" transform="translate(-7.42)"/><path class="cls-1" d="M29.11,74.68v5.76h-.92V67.7h3.25a5.38,5.38,0,0,1,3.3.85,3,3,0,0,1,1.09,2.5,3.36,3.36,0,0,1-.26,1.33,3.07,3.07,0,0,1-.72,1.06,4.18,4.18,0,0,1-1.14.75,5.15,5.15,0,0,1-1.5.38,1.43,1.43,0,0,1,.38.36L37,80.44h-.8a.49.49,0,0,1-.25-.06.48.48,0,0,1-.2-.18L31.65,75a.85.85,0,0,0-.33-.28,1.28,1.28,0,0,0-.54-.08Zm0-.69h2.22a5.07,5.07,0,0,0,1.51-.2A3.23,3.23,0,0,0,34,73.21a2.5,2.5,0,0,0,.7-.91,2.84,2.84,0,0,0,.25-1.19,2.34,2.34,0,0,0-.9-2,4.28,4.28,0,0,0-2.59-.66H29.11Z" transform="translate(-7.42)"/><path class="cls-1" d="M46.83,67.7v.79H42.36v12h-.92v-12h-4.5V67.7Z" transform="translate(-7.42)"/><path class="cls-1" d="M53.38,79.78A4.12,4.12,0,0,0,55,79.46a3.41,3.41,0,0,0,1.22-.89A3.66,3.66,0,0,0,57,77.24a5,5,0,0,0,.27-1.66V67.7h.92v7.88a5.68,5.68,0,0,1-.33,2,5.05,5.05,0,0,1-1,1.6A4.43,4.43,0,0,1,55.4,80.2a5.4,5.4,0,0,1-4,0,4.43,4.43,0,0,1-1.52-1.06,4.71,4.71,0,0,1-1-1.6,5.68,5.68,0,0,1-.33-2V67.7h.93v7.87a5.25,5.25,0,0,0,.26,1.66,4,4,0,0,0,.77,1.34,3.67,3.67,0,0,0,1.22.89A4.07,4.07,0,0,0,53.38,79.78Z" transform="translate(-7.42)"/><path class="cls-1" d="M70.58,80.44h-.71a.31.31,0,0,1-.21-.07.43.43,0,0,1-.12-.17L68,76.5H61.78l-1.49,3.7a.52.52,0,0,1-.13.17.38.38,0,0,1-.22.07h-.7L64.45,67.7h.92Zm-8.52-4.63h5.71l-2.61-6.43c0-.1-.08-.22-.12-.35s-.09-.26-.13-.41c0,.15-.08.28-.12.41l-.13.36Z" transform="translate(-7.42)"/><path class="cls-1" d="M73.16,79.65h6v.79h-7V67.7h.92Z" transform="translate(-7.42)"/><rect class="cls-2" x="0.75" y="34.22" width="72.07" height="26.21" rx="11.06" ry="11.06"/><circle class="cls-3" cx="36.2" cy="42.96" r="3.28"/><path class="cls-3" d="M57.12,22.49l-4.79,4.38a15,15,0,0,0-17.9-.11L30.09,22A21.42,21.42,0,0,1,57.12,22.49Z" transform="translate(-7.42)"/><path class="cls-4" d="M63.87,17.05,59.11,21.4a24.09,24.09,0,0,0-30.83-.64L23.94,16A30.52,30.52,0,0,1,63.87,17.05Z" transform="translate(-7.42)"/><path class="cls-5" d="M22.14,14,17.81,9.3A39.6,39.6,0,0,1,70.6,10.9l-4.75,4.34A33.18,33.18,0,0,0,22.14,14Z" transform="translate(-7.42)"/></g></g></svg>